<?xml version="1.0" encoding="UTF-8" standalone="no"?>
<!DOCTYPE svg PUBLIC "-//W3C//DTD SVG 1.1//EN"
 "http://www.w3.org/Graphics/SVG/1.1/DTD/svg11.dtd">
<!-- Generated by graphviz version 8.1.0 (20230707.0739)
 -->
<!-- Title: include/CMyWindow.h Pages: 1 -->
<svg width="505pt" height="86pt"
 viewBox="0.00 0.00 504.50 86.00" xmlns="http://www.w3.org/2000/svg" xmlns:xlink="http://www.w3.org/1999/xlink">
<g id="graph0" class="graph" transform="scale(1 1) rotate(0) translate(4 82)">
<title>include/CMyWindow.h</title>
<!-- Node1 -->
<g id="node1" class="node">
<title>Node1</title>
<g id="a_node1"><a xlink:title=" ">
<polygon fill="#bfbfbf" stroke="black" points="169.62,-57.5 169.62,-77.5 282.38,-77.5 282.38,-57.5 169.62,-57.5"/>
<text text-anchor="middle" x="226" y="-64" font-family="Helvetica,sans-Serif" font-size="10.00">include/CMyWindow.h</text>
</a>
</g>
</g>
<!-- Node2 -->
<g id="node2" class="node">
<title>Node2</title>
<g id="a_node2"><a xlink:href="src_2_c_my_window_8cpp.html" target="_top" xlink:title=" ">
<polygon fill="none" stroke="black" points="0,-0.5 0,-20.5 106,-20.5 106,-0.5 0,-0.5"/>
<text text-anchor="middle" x="53" y="-7" font-family="Helvetica,sans-Serif" font-size="10.00">src/CMyWindow.cpp</text>
</a>
</g>
</g>
<!-- Node1&#45;&gt;Node2 -->
<g id="edge1" class="edge">
<title>Node1&#45;&gt;Node2</title>
<path fill="none" stroke="midnightblue" d="M187.44,-54.24C155.23,-44 110.07,-29.64 81.17,-20.46"/>
<polygon fill="midnightblue" stroke="midnightblue" points="186.23,-57.85 196.82,-57.54 188.35,-51.18 186.23,-57.85"/>
</g>
<!-- Node3 -->
<g id="node3" class="node">
<title>Node3</title>
<g id="a_node3"><a xlink:href="_main_8cpp.html" target="_top" xlink:title=" ">
<polygon fill="none" stroke="black" points="123.88,-0.5 123.88,-20.5 196.12,-20.5 196.12,-0.5 123.88,-0.5"/>
<text text-anchor="middle" x="160" y="-7" font-family="Helvetica,sans-Serif" font-size="10.00">src/Main.cpp</text>
</a>
</g>
</g>
<!-- Node1&#45;&gt;Node3 -->
<g id="edge2" class="edge">
<title>Node1&#45;&gt;Node3</title>
<path fill="none" stroke="midnightblue" d="M207.1,-50.75C195.33,-40.94 180.62,-28.68 170.8,-20.5"/>
<polygon fill="midnightblue" stroke="midnightblue" points="204.47,-53.95 214.4,-57.66 208.95,-48.57 204.47,-53.95"/>
</g>
<!-- Node4 -->
<g id="node4" class="node">
<title>Node4</title>
<g id="a_node4"><a xlink:href="_notification_icon_manager_8cpp.html" target="_top" xlink:title=" ">
<polygon fill="none" stroke="black" points="214.62,-0.5 214.62,-20.5 369.38,-20.5 369.38,-0.5 214.62,-0.5"/>
<text text-anchor="middle" x="292" y="-7" font-family="Helvetica,sans-Serif" font-size="10.00">src/NotificationIconManager.cpp</text>
</a>
</g>
</g>
<!-- Node1&#45;&gt;Node4 -->
<g id="edge3" class="edge">
<title>Node1&#45;&gt;Node4</title>
<path fill="none" stroke="midnightblue" d="M244.9,-50.75C256.67,-40.94 271.38,-28.68 281.2,-20.5"/>
<polygon fill="midnightblue" stroke="midnightblue" points="243.05,-48.57 237.6,-57.66 247.53,-53.95 243.05,-48.57"/>
</g>
<!-- Node5 -->
<g id="node5" class="node">
<title>Node5</title>
<g id="a_node5"><a xlink:href="test_2_c_my_window_8cpp.html" target="_top" xlink:title=" ">
<polygon fill="none" stroke="black" points="387.5,-0.5 387.5,-20.5 496.5,-20.5 496.5,-0.5 387.5,-0.5"/>
<text text-anchor="middle" x="442" y="-7" font-family="Helvetica,sans-Serif" font-size="10.00">test/CMyWindow.cpp</text>
</a>
</g>
</g>
<!-- Node1&#45;&gt;Node5 -->
<g id="edge4" class="edge">
<title>Node1&#45;&gt;Node5</title>
<path fill="none" stroke="midnightblue" d="M271.81,-54.84C312.15,-44.56 370.04,-29.82 406.83,-20.46"/>
<polygon fill="midnightblue" stroke="midnightblue" points="271.01,-51.68 262.18,-57.54 272.74,-58.47 271.01,-51.68"/>
</g>
</g>
</svg>
