<?xml version="1.0" encoding="UTF-8" standalone="no"?>
<!DOCTYPE svg PUBLIC "-//W3C//DTD SVG 1.1//EN"
 "http://www.w3.org/Graphics/SVG/1.1/DTD/svg11.dtd">
<!-- Generated by graphviz version 8.1.0 (20230707.0739)
 -->
<!-- Title: include/CMyWindow.h Pages: 1 -->
<svg width="304pt" height="86pt"
 viewBox="0.00 0.00 304.25 86.00" xmlns="http://www.w3.org/2000/svg" xmlns:xlink="http://www.w3.org/1999/xlink">
<g id="graph0" class="graph" transform="scale(1 1) rotate(0) translate(4 82)">
<title>include/CMyWindow.h</title>
<!-- Node1 -->
<g id="node1" class="node">
<title>Node1</title>
<g id="a_node1"><a xlink:title=" ">
<polygon fill="#bfbfbf" stroke="black" points="87.5,-57.5 87.5,-77.5 200.25,-77.5 200.25,-57.5 87.5,-57.5"/>
<text text-anchor="middle" x="143.88" y="-64" font-family="Helvetica,sans-Serif" font-size="10.00">include/CMyWindow.h</text>
</a>
</g>
</g>
<!-- Node2 -->
<g id="node2" class="node">
<title>Node2</title>
<g id="a_node2"><a xlink:title=" ">
<polygon fill="none" stroke="#bfbfbf" points="0,-0.5 0,-20.5 67.75,-20.5 67.75,-0.5 0,-0.5"/>
<text text-anchor="middle" x="33.88" y="-7" font-family="Helvetica,sans-Serif" font-size="10.00">Winsock2.h</text>
</a>
</g>
</g>
<!-- Node1&#45;&gt;Node2 -->
<g id="edge1" class="edge">
<title>Node1&#45;&gt;Node2</title>
<path fill="none" stroke="midnightblue" d="M126.2,-57.66C108.75,-48.94 81.79,-35.46 61.5,-25.31"/>
<polygon fill="midnightblue" stroke="midnightblue" points="63.38,-21.84 52.87,-20.5 60.25,-28.1 63.38,-21.84"/>
</g>
<!-- Node3 -->
<g id="node3" class="node">
<title>Node3</title>
<g id="a_node3"><a xlink:title=" ">
<polygon fill="none" stroke="#bfbfbf" points="86.25,-0.5 86.25,-20.5 137.5,-20.5 137.5,-0.5 86.25,-0.5"/>
<text text-anchor="middle" x="111.88" y="-7" font-family="Helvetica,sans-Serif" font-size="10.00">afxwin.h</text>
</a>
</g>
</g>
<!-- Node1&#45;&gt;Node3 -->
<g id="edge2" class="edge">
<title>Node1&#45;&gt;Node3</title>
<path fill="none" stroke="midnightblue" d="M138.88,-57.91C134.49,-50.36 127.96,-39.14 122.42,-29.62"/>
<polygon fill="midnightblue" stroke="midnightblue" points="125,-28.1 116.95,-21.21 118.95,-31.62 125,-28.1"/>
</g>
<!-- Node4 -->
<g id="node4" class="node">
<title>Node4</title>
<g id="a_node4"><a xlink:title=" ">
<polygon fill="none" stroke="#bfbfbf" points="155.88,-0.5 155.88,-20.5 195.88,-20.5 195.88,-0.5 155.88,-0.5"/>
<text text-anchor="middle" x="175.88" y="-7" font-family="Helvetica,sans-Serif" font-size="10.00">string</text>
</a>
</g>
</g>
<!-- Node1&#45;&gt;Node4 -->
<g id="edge3" class="edge">
<title>Node1&#45;&gt;Node4</title>
<path fill="none" stroke="midnightblue" d="M148.88,-57.91C153.26,-50.36 159.79,-39.14 165.33,-29.62"/>
<polygon fill="midnightblue" stroke="midnightblue" points="168.8,-31.62 170.8,-21.21 162.75,-28.1 168.8,-31.62"/>
</g>
<!-- Node5 -->
<g id="node5" class="node">
<title>Node5</title>
<g id="a_node5"><a xlink:title=" ">
<polygon fill="none" stroke="#bfbfbf" points="213.5,-0.5 213.5,-20.5 296.25,-20.5 296.25,-0.5 213.5,-0.5"/>
<text text-anchor="middle" x="254.88" y="-7" font-family="Helvetica,sans-Serif" font-size="10.00">unordered_map</text>
</a>
</g>
</g>
<!-- Node1&#45;&gt;Node5 -->
<g id="edge4" class="edge">
<title>Node1&#45;&gt;Node5</title>
<path fill="none" stroke="midnightblue" d="M161.71,-57.66C179.32,-48.94 206.52,-35.46 227,-25.31"/>
<polygon fill="midnightblue" stroke="midnightblue" points="228.31,-28.07 235.72,-20.5 225.2,-21.8 228.31,-28.07"/>
</g>
</g>
</svg>
