<?xml version="1.0" encoding="UTF-8" standalone="no"?>
<!DOCTYPE svg PUBLIC "-//W3C//DTD SVG 1.1//EN"
 "http://www.w3.org/Graphics/SVG/1.1/DTD/svg11.dtd">
<!-- Generated by graphviz version 8.1.0 (20230707.0739)
 -->
<!-- Title: include/CMyWindow.h Pages: 1 -->
<svg width="243pt" height="86pt"
 viewBox="0.00 0.00 242.75 86.00" xmlns="http://www.w3.org/2000/svg" xmlns:xlink="http://www.w3.org/1999/xlink">
<g id="graph0" class="graph" transform="scale(1 1) rotate(0) translate(4 82)">
<title>include/CMyWindow.h</title>
<!-- Node1 -->
<g id="node1" class="node">
<title>Node1</title>
<g id="a_node1"><a xlink:title=" ">
<polygon fill="#bfbfbf" stroke="black" points="52,-57.5 52,-77.5 164.75,-77.5 164.75,-57.5 52,-57.5"/>
<text text-anchor="middle" x="108.38" y="-64" font-family="Helvetica,sans-Serif" font-size="10.00">include/CMyWindow.h</text>
</a>
</g>
</g>
<!-- Node2 -->
<g id="node2" class="node">
<title>Node2</title>
<g id="a_node2"><a xlink:title=" ">
<polygon fill="none" stroke="#bfbfbf" points="0,-0.5 0,-20.5 64.75,-20.5 64.75,-0.5 0,-0.5"/>
<text text-anchor="middle" x="32.38" y="-7" font-family="Helvetica,sans-Serif" font-size="10.00">winsock2.h</text>
</a>
</g>
</g>
<!-- Node1&#45;&gt;Node2 -->
<g id="edge1" class="edge">
<title>Node1&#45;&gt;Node2</title>
<path fill="none" stroke="midnightblue" d="M96.16,-57.66C84.71,-49.37 67.33,-36.8 53.61,-26.87"/>
<polygon fill="midnightblue" stroke="midnightblue" points="55.96,-23.52 45.81,-20.5 51.86,-29.2 55.96,-23.52"/>
</g>
<!-- Node3 -->
<g id="node3" class="node">
<title>Node3</title>
<g id="a_node3"><a xlink:title=" ">
<polygon fill="none" stroke="#bfbfbf" points="82.75,-0.5 82.75,-20.5 134,-20.5 134,-0.5 82.75,-0.5"/>
<text text-anchor="middle" x="108.38" y="-7" font-family="Helvetica,sans-Serif" font-size="10.00">afxwin.h</text>
</a>
</g>
</g>
<!-- Node1&#45;&gt;Node3 -->
<g id="edge2" class="edge">
<title>Node1&#45;&gt;Node3</title>
<path fill="none" stroke="midnightblue" d="M108.38,-57.91C108.38,-50.76 108.38,-40.32 108.38,-31.15"/>
<polygon fill="midnightblue" stroke="midnightblue" points="111.88,-31.21 108.38,-21.21 104.88,-31.21 111.88,-31.21"/>
</g>
<!-- Node4 -->
<g id="node4" class="node">
<title>Node4</title>
<g id="a_node4"><a xlink:title=" ">
<polygon fill="none" stroke="#bfbfbf" points="152,-0.5 152,-20.5 234.75,-20.5 234.75,-0.5 152,-0.5"/>
<text text-anchor="middle" x="193.38" y="-7" font-family="Helvetica,sans-Serif" font-size="10.00">unordered_map</text>
</a>
</g>
</g>
<!-- Node1&#45;&gt;Node4 -->
<g id="edge3" class="edge">
<title>Node1&#45;&gt;Node4</title>
<path fill="none" stroke="midnightblue" d="M122.03,-57.66C135.09,-49.21 155.03,-36.31 170.51,-26.3"/>
<polygon fill="midnightblue" stroke="midnightblue" points="171.98,-28.87 178.47,-20.5 168.17,-22.99 171.98,-28.87"/>
</g>
</g>
</svg>
