<?xml version="1.0" encoding="UTF-8" standalone="no"?>
<!DOCTYPE svg PUBLIC "-//W3C//DTD SVG 1.1//EN"
 "http://www.w3.org/Graphics/SVG/1.1/DTD/svg11.dtd">
<!-- Generated by graphviz version 8.1.0 (20230707.0739)
 -->
<!-- Title: src/CMyWindow.cpp Pages: 1 -->
<svg width="706pt" height="143pt"
 viewBox="0.00 0.00 705.62 143.00" xmlns="http://www.w3.org/2000/svg" xmlns:xlink="http://www.w3.org/1999/xlink">
<g id="graph0" class="graph" transform="scale(1 1) rotate(0) translate(4 139)">
<title>src/CMyWindow.cpp</title>
<!-- Node1 -->
<g id="node1" class="node">
<title>Node1</title>
<g id="a_node1"><a xlink:title=" ">
<polygon fill="#bfbfbf" stroke="black" points="341.38,-114.5 341.38,-134.5 447.38,-134.5 447.38,-114.5 341.38,-114.5"/>
<text text-anchor="middle" x="394.38" y="-121" font-family="Helvetica,sans-Serif" font-size="10.00">src/CMyWindow.cpp</text>
</a>
</g>
</g>
<!-- Node2 -->
<g id="node2" class="node">
<title>Node2</title>
<g id="a_node2"><a xlink:href="_c_my_window_8h.html" target="_top" xlink:title=" ">
<polygon fill="none" stroke="black" points="68.88,-57.5 68.88,-77.5 147.88,-77.5 147.88,-57.5 68.88,-57.5"/>
<text text-anchor="middle" x="108.38" y="-64" font-family="Helvetica,sans-Serif" font-size="10.00">CMyWindow.h</text>
</a>
</g>
</g>
<!-- Node1&#45;&gt;Node2 -->
<g id="edge1" class="edge">
<title>Node1&#45;&gt;Node2</title>
<path fill="none" stroke="midnightblue" d="M347.6,-114.55C302.04,-105.82 230.5,-92.1 158.34,-78.18"/>
<polygon fill="midnightblue" stroke="midnightblue" points="159.17,-74.59 148.69,-76.13 157.84,-81.46 159.17,-74.59"/>
</g>
<!-- Node6 -->
<g id="node6" class="node">
<title>Node6</title>
<g id="a_node6"><a xlink:title=" ">
<polygon fill="none" stroke="#bfbfbf" points="165.88,-57.5 165.88,-77.5 226.88,-77.5 226.88,-57.5 165.88,-57.5"/>
<text text-anchor="middle" x="196.38" y="-64" font-family="Helvetica,sans-Serif" font-size="10.00">windows.h</text>
</a>
</g>
</g>
<!-- Node1&#45;&gt;Node6 -->
<g id="edge5" class="edge">
<title>Node1&#45;&gt;Node6</title>
<path fill="none" stroke="midnightblue" d="M362.12,-114.54C328.01,-105.07 274.12,-90.09 237.1,-79.81"/>
<polygon fill="midnightblue" stroke="midnightblue" points="238.24,-76.22 227.66,-76.91 236.36,-82.96 238.24,-76.22"/>
</g>
<!-- Node7 -->
<g id="node7" class="node">
<title>Node7</title>
<g id="a_node7"><a xlink:title=" ">
<polygon fill="none" stroke="#bfbfbf" points="244.62,-57.5 244.62,-77.5 292.12,-77.5 292.12,-57.5 244.62,-57.5"/>
<text text-anchor="middle" x="268.38" y="-64" font-family="Helvetica,sans-Serif" font-size="10.00">psapi.h</text>
</a>
</g>
</g>
<!-- Node1&#45;&gt;Node7 -->
<g id="edge6" class="edge">
<title>Node1&#45;&gt;Node7</title>
<path fill="none" stroke="midnightblue" d="M373.85,-114.54C353.53,-105.67 322.18,-91.99 298.93,-81.84"/>
<polygon fill="midnightblue" stroke="midnightblue" points="300.46,-78.25 289.89,-77.46 297.66,-84.66 300.46,-78.25"/>
</g>
<!-- Node8 -->
<g id="node8" class="node">
<title>Node8</title>
<g id="a_node8"><a xlink:title=" ">
<polygon fill="none" stroke="#bfbfbf" points="310.38,-57.5 310.38,-77.5 350.38,-77.5 350.38,-57.5 310.38,-57.5"/>
<text text-anchor="middle" x="330.38" y="-64" font-family="Helvetica,sans-Serif" font-size="10.00">string</text>
</a>
</g>
</g>
<!-- Node1&#45;&gt;Node8 -->
<g id="edge7" class="edge">
<title>Node1&#45;&gt;Node8</title>
<path fill="none" stroke="midnightblue" d="M384.09,-114.66C374.63,-106.53 360.38,-94.28 348.93,-84.44"/>
<polygon fill="midnightblue" stroke="midnightblue" points="351.71,-81.36 341.84,-77.5 347.15,-86.67 351.71,-81.36"/>
</g>
<!-- Node9 -->
<g id="node9" class="node">
<title>Node9</title>
<g id="a_node9"><a xlink:title=" ">
<polygon fill="none" stroke="#bfbfbf" points="368.75,-57.5 368.75,-77.5 420,-77.5 420,-57.5 368.75,-57.5"/>
<text text-anchor="middle" x="394.38" y="-64" font-family="Helvetica,sans-Serif" font-size="10.00">sstream</text>
</a>
</g>
</g>
<!-- Node1&#45;&gt;Node9 -->
<g id="edge8" class="edge">
<title>Node1&#45;&gt;Node9</title>
<path fill="none" stroke="midnightblue" d="M394.38,-114.91C394.38,-107.76 394.38,-97.32 394.38,-88.15"/>
<polygon fill="midnightblue" stroke="midnightblue" points="397.88,-88.21 394.38,-78.21 390.88,-88.21 397.88,-88.21"/>
</g>
<!-- Node10 -->
<g id="node10" class="node">
<title>Node10</title>
<g id="a_node10"><a xlink:title=" ">
<polygon fill="none" stroke="#bfbfbf" points="437.62,-57.5 437.62,-77.5 479.12,-77.5 479.12,-57.5 437.62,-57.5"/>
<text text-anchor="middle" x="458.38" y="-64" font-family="Helvetica,sans-Serif" font-size="10.00">locale</text>
</a>
</g>
</g>
<!-- Node1&#45;&gt;Node10 -->
<g id="edge9" class="edge">
<title>Node1&#45;&gt;Node10</title>
<path fill="none" stroke="midnightblue" d="M404.66,-114.66C414.12,-106.53 428.37,-94.28 439.82,-84.44"/>
<polygon fill="midnightblue" stroke="midnightblue" points="441.6,-86.67 446.91,-77.5 437.04,-81.36 441.6,-86.67"/>
</g>
<!-- Node11 -->
<g id="node11" class="node">
<title>Node11</title>
<g id="a_node11"><a xlink:title=" ">
<polygon fill="none" stroke="#bfbfbf" points="496.88,-57.5 496.88,-77.5 545.88,-77.5 545.88,-57.5 496.88,-57.5"/>
<text text-anchor="middle" x="521.38" y="-64" font-family="Helvetica,sans-Serif" font-size="10.00">codecvt</text>
</a>
</g>
</g>
<!-- Node1&#45;&gt;Node11 -->
<g id="edge10" class="edge">
<title>Node1&#45;&gt;Node11</title>
<path fill="none" stroke="midnightblue" d="M415.06,-114.54C435.63,-105.63 467.43,-91.86 490.89,-81.7"/>
<polygon fill="midnightblue" stroke="midnightblue" points="491.91,-84.64 499.7,-77.46 489.13,-78.22 491.91,-84.64"/>
</g>
<!-- Node12 -->
<g id="node12" class="node">
<title>Node12</title>
<g id="a_node12"><a xlink:title=" ">
<polygon fill="none" stroke="#bfbfbf" points="563.62,-57.5 563.62,-77.5 617.12,-77.5 617.12,-57.5 563.62,-57.5"/>
<text text-anchor="middle" x="590.38" y="-64" font-family="Helvetica,sans-Serif" font-size="10.00">iostream</text>
</a>
</g>
</g>
<!-- Node1&#45;&gt;Node12 -->
<g id="edge11" class="edge">
<title>Node1&#45;&gt;Node12</title>
<path fill="none" stroke="midnightblue" d="M426.3,-114.54C461.15,-104.76 516.87,-89.13 553.55,-78.83"/>
<polygon fill="midnightblue" stroke="midnightblue" points="554.13,-82.03 562.81,-75.95 552.24,-75.29 554.13,-82.03"/>
</g>
<!-- Node13 -->
<g id="node13" class="node">
<title>Node13</title>
<g id="a_node13"><a xlink:title=" ">
<polygon fill="none" stroke="#bfbfbf" points="635.12,-57.5 635.12,-77.5 697.62,-77.5 697.62,-57.5 635.12,-57.5"/>
<text text-anchor="middle" x="666.38" y="-64" font-family="Helvetica,sans-Serif" font-size="10.00">simpleini.h</text>
</a>
</g>
</g>
<!-- Node1&#45;&gt;Node13 -->
<g id="edge12" class="edge">
<title>Node1&#45;&gt;Node13</title>
<path fill="none" stroke="midnightblue" d="M442.92,-114.56C487.65,-106.19 556.1,-93.05 624.81,-78.27"/>
<polygon fill="midnightblue" stroke="midnightblue" points="625.36,-81.52 634.39,-75.99 623.88,-74.68 625.36,-81.52"/>
</g>
<!-- Node3 -->
<g id="node3" class="node">
<title>Node3</title>
<g id="a_node3"><a xlink:title=" ">
<polygon fill="none" stroke="#bfbfbf" points="0,-0.5 0,-20.5 64.75,-20.5 64.75,-0.5 0,-0.5"/>
<text text-anchor="middle" x="32.38" y="-7" font-family="Helvetica,sans-Serif" font-size="10.00">winsock2.h</text>
</a>
</g>
</g>
<!-- Node2&#45;&gt;Node3 -->
<g id="edge2" class="edge">
<title>Node2&#45;&gt;Node3</title>
<path fill="none" stroke="midnightblue" d="M96.16,-57.66C84.71,-49.37 67.33,-36.8 53.61,-26.87"/>
<polygon fill="midnightblue" stroke="midnightblue" points="55.96,-23.52 45.81,-20.5 51.86,-29.2 55.96,-23.52"/>
</g>
<!-- Node4 -->
<g id="node4" class="node">
<title>Node4</title>
<g id="a_node4"><a xlink:title=" ">
<polygon fill="none" stroke="#bfbfbf" points="82.75,-0.5 82.75,-20.5 134,-20.5 134,-0.5 82.75,-0.5"/>
<text text-anchor="middle" x="108.38" y="-7" font-family="Helvetica,sans-Serif" font-size="10.00">afxwin.h</text>
</a>
</g>
</g>
<!-- Node2&#45;&gt;Node4 -->
<g id="edge3" class="edge">
<title>Node2&#45;&gt;Node4</title>
<path fill="none" stroke="midnightblue" d="M108.38,-57.91C108.38,-50.76 108.38,-40.32 108.38,-31.15"/>
<polygon fill="midnightblue" stroke="midnightblue" points="111.88,-31.21 108.38,-21.21 104.88,-31.21 111.88,-31.21"/>
</g>
<!-- Node5 -->
<g id="node5" class="node">
<title>Node5</title>
<g id="a_node5"><a xlink:title=" ">
<polygon fill="none" stroke="#bfbfbf" points="152.5,-0.5 152.5,-20.5 190.25,-20.5 190.25,-0.5 152.5,-0.5"/>
<text text-anchor="middle" x="171.38" y="-7" font-family="Helvetica,sans-Serif" font-size="10.00">array</text>
</a>
</g>
</g>
<!-- Node2&#45;&gt;Node5 -->
<g id="edge4" class="edge">
<title>Node2&#45;&gt;Node5</title>
<path fill="none" stroke="midnightblue" d="M118.5,-57.66C127.81,-49.53 141.84,-37.28 153.11,-27.44"/>
<polygon fill="midnightblue" stroke="midnightblue" points="154.84,-29.71 160.07,-20.5 150.23,-24.44 154.84,-29.71"/>
</g>
</g>
</svg>
