<?xml version="1.0" encoding="UTF-8" standalone="no"?>
<!DOCTYPE svg PUBLIC "-//W3C//DTD SVG 1.1//EN"
 "http://www.w3.org/Graphics/SVG/1.1/DTD/svg11.dtd">
<!-- Generated by graphviz version 8.1.0 (20230707.0739)
 -->
<!-- Title: include/CMyWindow.h Pages: 1 -->
<svg width="377pt" height="86pt"
 viewBox="0.00 0.00 377.38 86.00" xmlns="http://www.w3.org/2000/svg" xmlns:xlink="http://www.w3.org/1999/xlink">
<g id="graph0" class="graph" transform="scale(1 1) rotate(0) translate(4 82)">
<title>include/CMyWindow.h</title>
<!-- Node1 -->
<g id="node1" class="node">
<title>Node1</title>
<g id="a_node1"><a xlink:title=" ">
<polygon fill="#bfbfbf" stroke="black" points="103.62,-57.5 103.62,-77.5 216.38,-77.5 216.38,-57.5 103.62,-57.5"/>
<text text-anchor="middle" x="160" y="-64" font-family="Helvetica,sans-Serif" font-size="10.00">include/CMyWindow.h</text>
</a>
</g>
</g>
<!-- Node2 -->
<g id="node2" class="node">
<title>Node2</title>
<g id="a_node2"><a xlink:href="_c_my_window_8cpp.html" target="_top" xlink:title=" ">
<polygon fill="none" stroke="black" points="0,-0.5 0,-20.5 106,-20.5 106,-0.5 0,-0.5"/>
<text text-anchor="middle" x="53" y="-7" font-family="Helvetica,sans-Serif" font-size="10.00">src/CMyWindow.cpp</text>
</a>
</g>
</g>
<!-- Node1&#45;&gt;Node2 -->
<g id="edge1" class="edge">
<title>Node1&#45;&gt;Node2</title>
<path fill="none" stroke="midnightblue" d="M133.22,-52.73C113.59,-42.65 87.52,-29.24 70.5,-20.5"/>
<polygon fill="midnightblue" stroke="midnightblue" points="131.31,-56.2 141.81,-57.66 134.51,-49.98 131.31,-56.2"/>
</g>
<!-- Node3 -->
<g id="node3" class="node">
<title>Node3</title>
<g id="a_node3"><a xlink:href="_main_8cpp.html" target="_top" xlink:title=" ">
<polygon fill="none" stroke="black" points="123.88,-0.5 123.88,-20.5 196.12,-20.5 196.12,-0.5 123.88,-0.5"/>
<text text-anchor="middle" x="160" y="-7" font-family="Helvetica,sans-Serif" font-size="10.00">src/Main.cpp</text>
</a>
</g>
</g>
<!-- Node1&#45;&gt;Node3 -->
<g id="edge2" class="edge">
<title>Node1&#45;&gt;Node3</title>
<path fill="none" stroke="midnightblue" d="M160,-47C160,-37.85 160,-27.39 160,-20.21"/>
<polygon fill="midnightblue" stroke="midnightblue" points="156.5,-46.91 160,-56.91 163.5,-46.91 156.5,-46.91"/>
</g>
<!-- Node4 -->
<g id="node4" class="node">
<title>Node4</title>
<g id="a_node4"><a xlink:href="_notification_icon_manager_8cpp.html" target="_top" xlink:title=" ">
<polygon fill="none" stroke="black" points="214.62,-0.5 214.62,-20.5 369.38,-20.5 369.38,-0.5 214.62,-0.5"/>
<text text-anchor="middle" x="292" y="-7" font-family="Helvetica,sans-Serif" font-size="10.00">src/NotificationIconManager.cpp</text>
</a>
</g>
</g>
<!-- Node1&#45;&gt;Node4 -->
<g id="edge3" class="edge">
<title>Node1&#45;&gt;Node4</title>
<path fill="none" stroke="midnightblue" d="M191.37,-53.43C215.79,-43.26 249.03,-29.4 270.51,-20.46"/>
<polygon fill="midnightblue" stroke="midnightblue" points="190.39,-50.46 182.5,-57.54 193.08,-56.93 190.39,-50.46"/>
</g>
</g>
</svg>
