<?xml version="1.0" encoding="UTF-8" standalone="no"?>
<!DOCTYPE svg PUBLIC "-//W3C//DTD SVG 1.1//EN"
 "http://www.w3.org/Graphics/SVG/1.1/DTD/svg11.dtd">
<!-- Generated by graphviz version 8.1.0 (20230707.0739)
 -->
<!-- Title: include/Exception.h Pages: 1 -->
<svg width="150pt" height="86pt"
 viewBox="0.00 0.00 150.12 86.00" xmlns="http://www.w3.org/2000/svg" xmlns:xlink="http://www.w3.org/1999/xlink">
<g id="graph0" class="graph" transform="scale(1 1) rotate(0) translate(4 82)">
<title>include/Exception.h</title>
<!-- Node1 -->
<g id="node1" class="node">
<title>Node1</title>
<g id="a_node1"><a xlink:title=" ">
<polygon fill="#bfbfbf" stroke="black" points="9.25,-57.5 9.25,-77.5 110.75,-77.5 110.75,-57.5 9.25,-57.5"/>
<text text-anchor="middle" x="60" y="-64" font-family="Helvetica,sans-Serif" font-size="10.00">include/Exception.h</text>
</a>
</g>
</g>
<!-- Node2 -->
<g id="node2" class="node">
<title>Node2</title>
<g id="a_node2"><a xlink:title=" ">
<polygon fill="none" stroke="#bfbfbf" points="0,-0.5 0,-20.5 40,-20.5 40,-0.5 0,-0.5"/>
<text text-anchor="middle" x="20" y="-7" font-family="Helvetica,sans-Serif" font-size="10.00">string</text>
</a>
</g>
</g>
<!-- Node1&#45;&gt;Node2 -->
<g id="edge1" class="edge">
<title>Node1&#45;&gt;Node2</title>
<path fill="none" stroke="midnightblue" d="M53.75,-57.91C48.15,-50.2 39.75,-38.66 32.74,-29.02"/>
<polygon fill="midnightblue" stroke="midnightblue" points="35.05,-27.24 26.34,-21.21 29.39,-31.36 35.05,-27.24"/>
</g>
<!-- Node3 -->
<g id="node3" class="node">
<title>Node3</title>
<g id="a_node3"><a xlink:title=" ">
<polygon fill="none" stroke="#bfbfbf" points="57.88,-0.5 57.88,-20.5 142.12,-20.5 142.12,-0.5 57.88,-0.5"/>
<text text-anchor="middle" x="100" y="-7" font-family="Helvetica,sans-Serif" font-size="10.00">source_location</text>
</a>
</g>
</g>
<!-- Node1&#45;&gt;Node3 -->
<g id="edge2" class="edge">
<title>Node1&#45;&gt;Node3</title>
<path fill="none" stroke="midnightblue" d="M66.25,-57.91C71.85,-50.2 80.25,-38.66 87.26,-29.02"/>
<polygon fill="midnightblue" stroke="midnightblue" points="90.61,-31.36 93.66,-21.21 84.95,-27.24 90.61,-31.36"/>
</g>
</g>
</svg>
