<?xml version="1.0" encoding="UTF-8" standalone="no"?>
<!DOCTYPE svg PUBLIC "-//W3C//DTD SVG 1.1//EN"
 "http://www.w3.org/Graphics/SVG/1.1/DTD/svg11.dtd">
<!-- Generated by graphviz version 8.1.0 (20230707.0739)
 -->
<!-- Title: include/Exception.h Pages: 1 -->
<svg width="292pt" height="155pt"
 viewBox="0.00 0.00 292.12 155.00" xmlns="http://www.w3.org/2000/svg" xmlns:xlink="http://www.w3.org/1999/xlink">
<g id="graph0" class="graph" transform="scale(1 1) rotate(0) translate(4 151)">
<title>include/Exception.h</title>
<!-- Node1 -->
<g id="node1" class="node">
<title>Node1</title>
<g id="a_node1"><a xlink:title=" ">
<polygon fill="#bfbfbf" stroke="black" points="115.38,-126.5 115.38,-146.5 216.88,-146.5 216.88,-126.5 115.38,-126.5"/>
<text text-anchor="middle" x="166.12" y="-133" font-family="Helvetica,sans-Serif" font-size="10.00">include/Exception.h</text>
</a>
</g>
</g>
<!-- Node2 -->
<g id="node2" class="node">
<title>Node2</title>
<g id="a_node2"><a xlink:href="_notification_icon_manager_8h.html" target="_top" xlink:title=" ">
<polygon fill="none" stroke="black" points="44.25,-57.5 44.25,-89.5 160,-89.5 160,-57.5 44.25,-57.5"/>
<text text-anchor="start" x="52.25" y="-76" font-family="Helvetica,sans-Serif" font-size="10.00">include/NotificationIcon</text>
<text text-anchor="middle" x="102.12" y="-64" font-family="Helvetica,sans-Serif" font-size="10.00">Manager.h</text>
</a>
</g>
</g>
<!-- Node1&#45;&gt;Node2 -->
<g id="edge1" class="edge">
<title>Node1&#45;&gt;Node2</title>
<path fill="none" stroke="midnightblue" d="M149.13,-119.3C139.37,-110 127.21,-98.41 117.7,-89.35"/>
<polygon fill="midnightblue" stroke="midnightblue" points="146.3,-121.39 155.96,-125.76 151.13,-116.33 146.3,-121.39"/>
</g>
<!-- Node5 -->
<g id="node5" class="node">
<title>Node5</title>
<g id="a_node5"><a xlink:href="src_2_c_my_window_8cpp.html" target="_top" xlink:title=" ">
<polygon fill="none" stroke="black" points="178.12,-63.5 178.12,-83.5 284.12,-83.5 284.12,-63.5 178.12,-63.5"/>
<text text-anchor="middle" x="231.12" y="-70" font-family="Helvetica,sans-Serif" font-size="10.00">src/CMyWindow.cpp</text>
</a>
</g>
</g>
<!-- Node1&#45;&gt;Node5 -->
<g id="edge4" class="edge">
<title>Node1&#45;&gt;Node5</title>
<path fill="none" stroke="midnightblue" d="M183.25,-119.43C195.6,-107.84 211.8,-92.64 221.83,-83.22"/>
<polygon fill="midnightblue" stroke="midnightblue" points="181.33,-116.36 176.44,-125.76 186.12,-121.47 181.33,-116.36"/>
</g>
<!-- Node3 -->
<g id="node3" class="node">
<title>Node3</title>
<g id="a_node3"><a xlink:href="_main_8cpp.html" target="_top" xlink:title=" ">
<polygon fill="none" stroke="black" points="0,-0.5 0,-20.5 72.25,-20.5 72.25,-0.5 0,-0.5"/>
<text text-anchor="middle" x="36.12" y="-7" font-family="Helvetica,sans-Serif" font-size="10.00">src/Main.cpp</text>
</a>
</g>
</g>
<!-- Node2&#45;&gt;Node3 -->
<g id="edge2" class="edge">
<title>Node2&#45;&gt;Node3</title>
<path fill="none" stroke="midnightblue" d="M78.28,-50.46C66.99,-40.03 54.14,-28.15 45.63,-20.28"/>
<polygon fill="midnightblue" stroke="midnightblue" points="75.43,-52.52 85.15,-56.73 80.18,-47.38 75.43,-52.52"/>
</g>
<!-- Node4 -->
<g id="node4" class="node">
<title>Node4</title>
<g id="a_node4"><a xlink:href="_notification_icon_manager_8cpp.html" target="_top" xlink:title=" ">
<polygon fill="none" stroke="black" points="90.75,-0.5 90.75,-20.5 245.5,-20.5 245.5,-0.5 90.75,-0.5"/>
<text text-anchor="middle" x="168.12" y="-7" font-family="Helvetica,sans-Serif" font-size="10.00">src/NotificationIconManager.cpp</text>
</a>
</g>
</g>
<!-- Node2&#45;&gt;Node4 -->
<g id="edge3" class="edge">
<title>Node2&#45;&gt;Node4</title>
<path fill="none" stroke="midnightblue" d="M125.97,-50.46C137.26,-40.03 150.11,-28.15 158.62,-20.28"/>
<polygon fill="midnightblue" stroke="midnightblue" points="124.07,-47.38 119.1,-56.73 128.82,-52.52 124.07,-47.38"/>
</g>
</g>
</svg>
