<?xml version="1.0" encoding="UTF-8" standalone="no"?>
<!DOCTYPE svg PUBLIC "-//W3C//DTD SVG 1.1//EN"
 "http://www.w3.org/Graphics/SVG/1.1/DTD/svg11.dtd">
<!-- Generated by graphviz version 8.1.0 (20230707.0739)
 -->
<!-- Title: include/Exception.h Pages: 1 -->
<svg width="429pt" height="155pt"
 viewBox="0.00 0.00 429.00 155.00" xmlns="http://www.w3.org/2000/svg" xmlns:xlink="http://www.w3.org/1999/xlink">
<g id="graph0" class="graph" transform="scale(1 1) rotate(0) translate(4 151)">
<title>include/Exception.h</title>
<!-- Node1 -->
<g id="node1" class="node">
<title>Node1</title>
<g id="a_node1"><a xlink:title=" ">
<polygon fill="#bfbfbf" stroke="black" points="181.38,-126.5 181.38,-146.5 282.88,-146.5 282.88,-126.5 181.38,-126.5"/>
<text text-anchor="middle" x="232.12" y="-133" font-family="Helvetica,sans-Serif" font-size="10.00">include/Exception.h</text>
</a>
</g>
</g>
<!-- Node2 -->
<g id="node2" class="node">
<title>Node2</title>
<g id="a_node2"><a xlink:href="_notification_icon_manager_8h.html" target="_top" xlink:title=" ">
<polygon fill="none" stroke="black" points="110.25,-57.5 110.25,-89.5 226,-89.5 226,-57.5 110.25,-57.5"/>
<text text-anchor="start" x="118.25" y="-76" font-family="Helvetica,sans-Serif" font-size="10.00">include/NotificationIcon</text>
<text text-anchor="middle" x="168.12" y="-64" font-family="Helvetica,sans-Serif" font-size="10.00">Manager.h</text>
</a>
</g>
</g>
<!-- Node1&#45;&gt;Node2 -->
<g id="edge1" class="edge">
<title>Node1&#45;&gt;Node2</title>
<path fill="none" stroke="midnightblue" d="M215.13,-119.3C205.37,-110 193.21,-98.41 183.7,-89.35"/>
<polygon fill="midnightblue" stroke="midnightblue" points="212.3,-121.39 221.96,-125.76 217.13,-116.33 212.3,-121.39"/>
</g>
<!-- Node6 -->
<g id="node6" class="node">
<title>Node6</title>
<g id="a_node6"><a xlink:href="src_2_c_my_window_8cpp.html" target="_top" xlink:title=" ">
<polygon fill="none" stroke="black" points="244.12,-63.5 244.12,-83.5 350.12,-83.5 350.12,-63.5 244.12,-63.5"/>
<text text-anchor="middle" x="297.12" y="-70" font-family="Helvetica,sans-Serif" font-size="10.00">src/CMyWindow.cpp</text>
</a>
</g>
</g>
<!-- Node1&#45;&gt;Node6 -->
<g id="edge5" class="edge">
<title>Node1&#45;&gt;Node6</title>
<path fill="none" stroke="midnightblue" d="M249.25,-119.43C261.6,-107.84 277.8,-92.64 287.83,-83.22"/>
<polygon fill="midnightblue" stroke="midnightblue" points="247.33,-116.36 242.44,-125.76 252.12,-121.47 247.33,-116.36"/>
</g>
<!-- Node3 -->
<g id="node3" class="node">
<title>Node3</title>
<g id="a_node3"><a xlink:href="_main_8cpp.html" target="_top" xlink:title=" ">
<polygon fill="none" stroke="black" points="0,-0.5 0,-20.5 72.25,-20.5 72.25,-0.5 0,-0.5"/>
<text text-anchor="middle" x="36.12" y="-7" font-family="Helvetica,sans-Serif" font-size="10.00">src/Main.cpp</text>
</a>
</g>
</g>
<!-- Node2&#45;&gt;Node3 -->
<g id="edge2" class="edge">
<title>Node2&#45;&gt;Node3</title>
<path fill="none" stroke="midnightblue" d="M126.01,-53.04C102.32,-42.09 73.87,-28.94 55.42,-20.42"/>
<polygon fill="midnightblue" stroke="midnightblue" points="124.29,-56.56 134.83,-57.58 127.22,-50.21 124.29,-56.56"/>
</g>
<!-- Node4 -->
<g id="node4" class="node">
<title>Node4</title>
<g id="a_node4"><a xlink:href="src_2_notification_icon_manager_8cpp.html" target="_top" xlink:title=" ">
<polygon fill="none" stroke="black" points="90.75,-0.5 90.75,-20.5 245.5,-20.5 245.5,-0.5 90.75,-0.5"/>
<text text-anchor="middle" x="168.12" y="-7" font-family="Helvetica,sans-Serif" font-size="10.00">src/NotificationIconManager.cpp</text>
</a>
</g>
</g>
<!-- Node2&#45;&gt;Node4 -->
<g id="edge3" class="edge">
<title>Node2&#45;&gt;Node4</title>
<path fill="none" stroke="midnightblue" d="M168.12,-46.77C168.12,-37.31 168.12,-27.24 168.12,-20.28"/>
<polygon fill="midnightblue" stroke="midnightblue" points="164.63,-46.73 168.12,-56.73 171.63,-46.73 164.63,-46.73"/>
</g>
<!-- Node5 -->
<g id="node5" class="node">
<title>Node5</title>
<g id="a_node5"><a xlink:href="test_2_notification_icon_manager_8cpp.html" target="_top" xlink:title=" ">
<polygon fill="none" stroke="black" points="263.25,-0.5 263.25,-20.5 421,-20.5 421,-0.5 263.25,-0.5"/>
<text text-anchor="middle" x="342.12" y="-7" font-family="Helvetica,sans-Serif" font-size="10.00">test/NotificationIconManager.cpp</text>
</a>
</g>
</g>
<!-- Node2&#45;&gt;Node5 -->
<g id="edge4" class="edge">
<title>Node2&#45;&gt;Node5</title>
<path fill="none" stroke="midnightblue" d="M220.73,-54.06C252.52,-42.91 291.61,-29.21 316.69,-20.42"/>
<polygon fill="midnightblue" stroke="midnightblue" points="219.97,-50.97 211.69,-57.58 222.29,-57.57 219.97,-50.97"/>
</g>
</g>
</svg>
