<?xml version="1.0" encoding="UTF-8" standalone="no"?>
<!DOCTYPE svg PUBLIC "-//W3C//DTD SVG 1.1//EN"
 "http://www.w3.org/Graphics/SVG/1.1/DTD/svg11.dtd">
<!-- Generated by graphviz version 8.1.0 (20230707.0739)
 -->
<!-- Title: main Pages: 1 -->
<svg width="204pt" height="92pt"
 viewBox="0.00 0.00 203.50 92.00" xmlns="http://www.w3.org/2000/svg" xmlns:xlink="http://www.w3.org/1999/xlink">
<g id="graph0" class="graph" transform="scale(1 1) rotate(0) translate(4 88)">
<title>main</title>
<!-- Node1 -->
<g id="node1" class="node">
<title>Node1</title>
<g id="a_node1"><a xlink:title=" ">
<polygon fill="#bfbfbf" stroke="black" points="0,-31.5 0,-51.5 37,-51.5 37,-31.5 0,-31.5"/>
<text text-anchor="middle" x="18.5" y="-38" font-family="Helvetica,sans-Serif" font-size="10.00">main</text>
</a>
</g>
</g>
<!-- Node2 -->
<g id="node2" class="node">
<title>Node2</title>
<g id="a_node2"><a xlink:href="class_notification_icon_manager.html#a5f6578ce57844a74a0bda686f1fffbef" target="_top" xlink:title=" ">
<polygon fill="none" stroke="black" points="74.5,-51.5 74.5,-83.5 194,-83.5 194,-51.5 74.5,-51.5"/>
<text text-anchor="start" x="82.5" y="-70" font-family="Helvetica,sans-Serif" font-size="10.00">NotificationIconManager</text>
<text text-anchor="middle" x="134.25" y="-58" font-family="Helvetica,sans-Serif" font-size="10.00">::AddNotificationIcon</text>
</a>
</g>
</g>
<!-- Node1&#45;&gt;Node2 -->
<g id="edge1" class="edge">
<title>Node1&#45;&gt;Node2</title>
<path fill="none" stroke="midnightblue" d="M36.78,-45.45C44.39,-47.19 53.88,-49.36 63.91,-51.65"/>
<polygon fill="midnightblue" stroke="midnightblue" points="62.98,-55.26 73.51,-54.07 64.54,-48.43 62.98,-55.26"/>
</g>
<!-- Node3 -->
<g id="node3" class="node">
<title>Node3</title>
<g id="a_node3"><a xlink:href="class_notification_icon_manager.html#a38640c691857ff771689c3f74dc0d4cb" target="_top" xlink:title=" ">
<polygon fill="none" stroke="black" points="73,-0.5 73,-32.5 195.5,-32.5 195.5,-0.5 73,-0.5"/>
<text text-anchor="start" x="81" y="-19" font-family="Helvetica,sans-Serif" font-size="10.00">NotificationIconManager</text>
<text text-anchor="middle" x="134.25" y="-7" font-family="Helvetica,sans-Serif" font-size="10.00">::RemoveNotificationIcon</text>
</a>
</g>
</g>
<!-- Node1&#45;&gt;Node3 -->
<g id="edge2" class="edge">
<title>Node1&#45;&gt;Node3</title>
<path fill="none" stroke="midnightblue" d="M36.78,-37.7C44.03,-36.11 53,-34.14 62.51,-32.05"/>
<polygon fill="midnightblue" stroke="midnightblue" points="62.99,-35.31 72,-29.74 61.48,-28.47 62.99,-35.31"/>
</g>
</g>
</svg>
