<?xml version="1.0" encoding="UTF-8" standalone="no"?>
<!DOCTYPE svg PUBLIC "-//W3C//DTD SVG 1.1//EN"
 "http://www.w3.org/Graphics/SVG/1.1/DTD/svg11.dtd">
<!-- Generated by graphviz version 8.1.0 (20230707.0739)
 -->
<!-- Title: src/Main.cpp Pages: 1 -->
<svg width="632pt" height="257pt"
 viewBox="0.00 0.00 631.50 257.00" xmlns="http://www.w3.org/2000/svg" xmlns:xlink="http://www.w3.org/1999/xlink">
<g id="graph0" class="graph" transform="scale(1 1) rotate(0) translate(4 253)">
<title>src/Main.cpp</title>
<!-- Node1 -->
<g id="node1" class="node">
<title>Node1</title>
<g id="a_node1"><a xlink:title=" ">
<polygon fill="#bfbfbf" stroke="black" points="461.75,-228.5 461.75,-248.5 534,-248.5 534,-228.5 461.75,-228.5"/>
<text text-anchor="middle" x="497.88" y="-235" font-family="Helvetica,sans-Serif" font-size="10.00">src/Main.cpp</text>
</a>
</g>
</g>
<!-- Node2 -->
<g id="node2" class="node">
<title>Node2</title>
<g id="a_node2"><a xlink:href="_c_my_window_8h.html" target="_top" xlink:title=" ">
<polygon fill="none" stroke="black" points="126.38,-171.5 126.38,-191.5 205.38,-191.5 205.38,-171.5 126.38,-171.5"/>
<text text-anchor="middle" x="165.88" y="-178" font-family="Helvetica,sans-Serif" font-size="10.00">CMyWindow.h</text>
</a>
</g>
</g>
<!-- Node1&#45;&gt;Node2 -->
<g id="edge1" class="edge">
<title>Node1&#45;&gt;Node2</title>
<path fill="none" stroke="midnightblue" d="M462.03,-231.56C402.63,-221.72 283.64,-202.01 215.96,-190.8"/>
<polygon fill="midnightblue" stroke="midnightblue" points="216.59,-187.19 206.15,-189.01 215.45,-194.09 216.59,-187.19"/>
</g>
<!-- Node7 -->
<g id="node7" class="node">
<title>Node7</title>
<g id="a_node7"><a xlink:href="_notification_icon_manager_8h.html" target="_top" xlink:title=" ">
<polygon fill="none" stroke="black" points="367,-171.5 367,-191.5 494.75,-191.5 494.75,-171.5 367,-171.5"/>
<text text-anchor="middle" x="430.88" y="-178" font-family="Helvetica,sans-Serif" font-size="10.00">NotificationIconManager.h</text>
</a>
</g>
</g>
<!-- Node1&#45;&gt;Node7 -->
<g id="edge6" class="edge">
<title>Node1&#45;&gt;Node7</title>
<path fill="none" stroke="midnightblue" d="M487.11,-228.66C477.21,-220.53 462.28,-208.28 450.3,-198.44"/>
<polygon fill="midnightblue" stroke="midnightblue" points="452.79,-195.14 442.84,-191.5 448.34,-200.55 452.79,-195.14"/>
</g>
<!-- Node12 -->
<g id="node12" class="node">
<title>Node12</title>
<g id="a_node12"><a xlink:title=" ">
<polygon fill="none" stroke="#bfbfbf" points="462.12,-57.5 462.12,-77.5 515.62,-77.5 515.62,-57.5 462.12,-57.5"/>
<text text-anchor="middle" x="488.88" y="-64" font-family="Helvetica,sans-Serif" font-size="10.00">iostream</text>
</a>
</g>
</g>
<!-- Node1&#45;&gt;Node12 -->
<g id="edge17" class="edge">
<title>Node1&#45;&gt;Node12</title>
<path fill="none" stroke="midnightblue" d="M503.08,-228.62C514.46,-208.04 539.37,-155.67 524.88,-114 521.13,-103.24 513.67,-93.11 506.51,-85.15"/>
<polygon fill="midnightblue" stroke="midnightblue" points="509.51,-83.18 500.04,-78.44 504.48,-88.05 509.51,-83.18"/>
</g>
<!-- Node15 -->
<g id="node15" class="node">
<title>Node15</title>
<g id="a_node15"><a xlink:title=" ">
<polygon fill="none" stroke="#bfbfbf" points="572.25,-171.5 572.25,-191.5 623.5,-191.5 623.5,-171.5 572.25,-171.5"/>
<text text-anchor="middle" x="597.88" y="-178" font-family="Helvetica,sans-Serif" font-size="10.00">sstream</text>
</a>
</g>
</g>
<!-- Node1&#45;&gt;Node15 -->
<g id="edge16" class="edge">
<title>Node1&#45;&gt;Node15</title>
<path fill="none" stroke="midnightblue" d="M513.94,-228.66C529.59,-220.05 553.65,-206.83 572,-196.73"/>
<polygon fill="midnightblue" stroke="midnightblue" points="573.44,-199.38 580.52,-191.5 570.07,-193.25 573.44,-199.38"/>
</g>
<!-- Node3 -->
<g id="node3" class="node">
<title>Node3</title>
<g id="a_node3"><a xlink:title=" ">
<polygon fill="none" stroke="#bfbfbf" points="0,-114.5 0,-134.5 67.75,-134.5 67.75,-114.5 0,-114.5"/>
<text text-anchor="middle" x="33.88" y="-121" font-family="Helvetica,sans-Serif" font-size="10.00">Winsock2.h</text>
</a>
</g>
</g>
<!-- Node2&#45;&gt;Node3 -->
<g id="edge2" class="edge">
<title>Node2&#45;&gt;Node3</title>
<path fill="none" stroke="midnightblue" d="M144.37,-171.54C122.9,-162.59 89.65,-148.74 65.23,-138.57"/>
<polygon fill="midnightblue" stroke="midnightblue" points="66.94,-135.07 56.37,-134.46 64.25,-141.53 66.94,-135.07"/>
</g>
<!-- Node4 -->
<g id="node4" class="node">
<title>Node4</title>
<g id="a_node4"><a xlink:title=" ">
<polygon fill="none" stroke="#bfbfbf" points="86.25,-114.5 86.25,-134.5 137.5,-134.5 137.5,-114.5 86.25,-114.5"/>
<text text-anchor="middle" x="111.88" y="-121" font-family="Helvetica,sans-Serif" font-size="10.00">afxwin.h</text>
</a>
</g>
</g>
<!-- Node2&#45;&gt;Node4 -->
<g id="edge3" class="edge">
<title>Node2&#45;&gt;Node4</title>
<path fill="none" stroke="midnightblue" d="M157.44,-171.91C149.56,-163.88 137.59,-151.69 127.9,-141.82"/>
<polygon fill="midnightblue" stroke="midnightblue" points="130.93,-139.9 121.43,-135.21 125.94,-144.8 130.93,-139.9"/>
</g>
<!-- Node5 -->
<g id="node5" class="node">
<title>Node5</title>
<g id="a_node5"><a xlink:title=" ">
<polygon fill="none" stroke="#bfbfbf" points="217.88,-0.5 217.88,-20.5 257.88,-20.5 257.88,-0.5 217.88,-0.5"/>
<text text-anchor="middle" x="237.88" y="-7" font-family="Helvetica,sans-Serif" font-size="10.00">string</text>
</a>
</g>
</g>
<!-- Node2&#45;&gt;Node5 -->
<g id="edge4" class="edge">
<title>Node2&#45;&gt;Node5</title>
<path fill="none" stroke="midnightblue" d="M167.8,-171.71C170.75,-158.8 176.9,-134.09 184.88,-114 197.03,-83.38 215.44,-49.8 227.05,-29.7"/>
<polygon fill="midnightblue" stroke="midnightblue" points="230.54,-31.67 232.58,-21.27 224.5,-28.13 230.54,-31.67"/>
</g>
<!-- Node6 -->
<g id="node6" class="node">
<title>Node6</title>
<g id="a_node6"><a xlink:title=" ">
<polygon fill="none" stroke="#bfbfbf" points="193.5,-114.5 193.5,-134.5 276.25,-134.5 276.25,-114.5 193.5,-114.5"/>
<text text-anchor="middle" x="234.88" y="-121" font-family="Helvetica,sans-Serif" font-size="10.00">unordered_map</text>
</a>
</g>
</g>
<!-- Node2&#45;&gt;Node6 -->
<g id="edge5" class="edge">
<title>Node2&#45;&gt;Node6</title>
<path fill="none" stroke="midnightblue" d="M176.96,-171.66C187.26,-163.45 202.83,-151.04 215.24,-141.15"/>
<polygon fill="midnightblue" stroke="midnightblue" points="216.95,-143.47 222.59,-134.5 212.59,-137.99 216.95,-143.47"/>
</g>
<!-- Node8 -->
<g id="node8" class="node">
<title>Node8</title>
<g id="a_node8"><a xlink:href="_exception_8h.html" target="_top" xlink:title=" ">
<polygon fill="none" stroke="black" points="294,-114.5 294,-134.5 361.75,-134.5 361.75,-114.5 294,-114.5"/>
<text text-anchor="middle" x="327.88" y="-121" font-family="Helvetica,sans-Serif" font-size="10.00">Exception.h</text>
</a>
</g>
</g>
<!-- Node7&#45;&gt;Node8 -->
<g id="edge7" class="edge">
<title>Node7&#45;&gt;Node8</title>
<path fill="none" stroke="midnightblue" d="M414.33,-171.66C398.13,-163.01 373.2,-149.7 354.27,-139.59"/>
<polygon fill="midnightblue" stroke="midnightblue" points="356.19,-136.12 345.72,-134.5 352.9,-142.3 356.19,-136.12"/>
</g>
<!-- Node13 -->
<g id="node13" class="node">
<title>Node13</title>
<g id="a_node13"><a xlink:title=" ">
<polygon fill="none" stroke="#bfbfbf" points="379.38,-114.5 379.38,-134.5 440.38,-134.5 440.38,-114.5 379.38,-114.5"/>
<text text-anchor="middle" x="409.88" y="-121" font-family="Helvetica,sans-Serif" font-size="10.00">windows.h</text>
</a>
</g>
</g>
<!-- Node7&#45;&gt;Node13 -->
<g id="edge14" class="edge">
<title>Node7&#45;&gt;Node13</title>
<path fill="none" stroke="midnightblue" d="M427.59,-171.91C424.77,-164.52 420.61,-153.62 417.03,-144.23"/>
<polygon fill="midnightblue" stroke="midnightblue" points="420.04,-143.31 413.2,-135.21 413.5,-145.81 420.04,-143.31"/>
</g>
<!-- Node14 -->
<g id="node14" class="node">
<title>Node14</title>
<g id="a_node14"><a xlink:title=" ">
<polygon fill="none" stroke="#bfbfbf" points="458.25,-114.5 458.25,-134.5 515.5,-134.5 515.5,-114.5 458.25,-114.5"/>
<text text-anchor="middle" x="486.88" y="-121" font-family="Helvetica,sans-Serif" font-size="10.00">shellapi.h</text>
</a>
</g>
</g>
<!-- Node7&#45;&gt;Node14 -->
<g id="edge15" class="edge">
<title>Node7&#45;&gt;Node14</title>
<path fill="none" stroke="midnightblue" d="M439.87,-171.66C447.99,-163.69 460.14,-151.76 470.05,-142.02"/>
<polygon fill="midnightblue" stroke="midnightblue" points="472.03,-145 476.71,-135.5 467.13,-140.01 472.03,-145"/>
</g>
<!-- Node8&#45;&gt;Node5 -->
<g id="edge12" class="edge">
<title>Node8&#45;&gt;Node5</title>
<path fill="none" stroke="midnightblue" d="M305.89,-114.55C290.06,-107.03 269.37,-94.8 256.88,-78 246.57,-64.15 241.85,-44.89 239.69,-30.66"/>
<polygon fill="midnightblue" stroke="midnightblue" points="243.09,-30.62 238.41,-21.12 236.14,-31.46 243.09,-30.62"/>
</g>
<!-- Node9 -->
<g id="node9" class="node">
<title>Node9</title>
<g id="a_node9"><a xlink:href="_string_conversion_8h.html" target="_top" xlink:title=" ">
<polygon fill="none" stroke="black" points="265.5,-57.5 265.5,-77.5 390.25,-77.5 390.25,-57.5 265.5,-57.5"/>
<text text-anchor="middle" x="327.88" y="-64" font-family="Helvetica,sans-Serif" font-size="10.00">Utility/StringConversion.h</text>
</a>
</g>
</g>
<!-- Node8&#45;&gt;Node9 -->
<g id="edge8" class="edge">
<title>Node8&#45;&gt;Node9</title>
<path fill="none" stroke="midnightblue" d="M327.88,-114.91C327.88,-107.76 327.88,-97.32 327.88,-88.15"/>
<polygon fill="midnightblue" stroke="midnightblue" points="331.38,-88.21 327.88,-78.21 324.38,-88.21 331.38,-88.21"/>
</g>
<!-- Node8&#45;&gt;Node12 -->
<g id="edge13" class="edge">
<title>Node8&#45;&gt;Node12</title>
<path fill="none" stroke="midnightblue" d="M354.1,-114.54C380.88,-105.39 422.66,-91.12 452.61,-80.89"/>
<polygon fill="midnightblue" stroke="midnightblue" points="453.33,-84 461.66,-77.46 451.07,-77.38 453.33,-84"/>
</g>
<!-- Node9&#45;&gt;Node5 -->
<g id="edge11" class="edge">
<title>Node9&#45;&gt;Node5</title>
<path fill="none" stroke="midnightblue" d="M313.41,-57.66C299.46,-49.13 278.08,-36.07 261.63,-26.01"/>
<polygon fill="midnightblue" stroke="midnightblue" points="263.96,-22.73 253.6,-20.5 260.31,-28.7 263.96,-22.73"/>
</g>
<!-- Node10 -->
<g id="node10" class="node">
<title>Node10</title>
<g id="a_node10"><a xlink:title=" ">
<polygon fill="none" stroke="#bfbfbf" points="289.38,-0.5 289.38,-20.5 338.38,-20.5 338.38,-0.5 289.38,-0.5"/>
<text text-anchor="middle" x="313.88" y="-7" font-family="Helvetica,sans-Serif" font-size="10.00">codecvt</text>
</a>
</g>
</g>
<!-- Node9&#45;&gt;Node10 -->
<g id="edge9" class="edge">
<title>Node9&#45;&gt;Node10</title>
<path fill="none" stroke="midnightblue" d="M325.69,-57.91C323.85,-50.68 321.15,-40.09 318.8,-30.85"/>
<polygon fill="midnightblue" stroke="midnightblue" points="321.95,-30.04 316.09,-21.21 315.17,-31.77 321.95,-30.04"/>
</g>
<!-- Node11 -->
<g id="node11" class="node">
<title>Node11</title>
<g id="a_node11"><a xlink:title=" ">
<polygon fill="none" stroke="#bfbfbf" points="356.12,-0.5 356.12,-20.5 397.62,-20.5 397.62,-0.5 356.12,-0.5"/>
<text text-anchor="middle" x="376.88" y="-7" font-family="Helvetica,sans-Serif" font-size="10.00">locale</text>
</a>
</g>
</g>
<!-- Node9&#45;&gt;Node11 -->
<g id="edge10" class="edge">
<title>Node9&#45;&gt;Node11</title>
<path fill="none" stroke="midnightblue" d="M335.53,-57.91C342.54,-50.04 353.11,-38.18 361.8,-28.42"/>
<polygon fill="midnightblue" stroke="midnightblue" points="364.07,-31.01 368.11,-21.21 358.85,-26.35 364.07,-31.01"/>
</g>
</g>
</svg>
