<?xml version="1.0" encoding="UTF-8" standalone="no"?>
<!DOCTYPE svg PUBLIC "-//W3C//DTD SVG 1.1//EN"
 "http://www.w3.org/Graphics/SVG/1.1/DTD/svg11.dtd">
<!-- Generated by graphviz version 8.1.0 (20230707.0739)
 -->
<!-- Title: src/Main.cpp Pages: 1 -->
<svg width="352pt" height="143pt"
 viewBox="0.00 0.00 352.00 143.00" xmlns="http://www.w3.org/2000/svg" xmlns:xlink="http://www.w3.org/1999/xlink">
<g id="graph0" class="graph" transform="scale(1 1) rotate(0) translate(4 139)">
<title>src/Main.cpp</title>
<!-- Node1 -->
<g id="node1" class="node">
<title>Node1</title>
<g id="a_node1"><a xlink:title=" ">
<polygon fill="#bfbfbf" stroke="black" points="77.25,-114.5 77.25,-134.5 149.5,-134.5 149.5,-114.5 77.25,-114.5"/>
<text text-anchor="middle" x="113.38" y="-121" font-family="Helvetica,sans-Serif" font-size="10.00">src/Main.cpp</text>
</a>
</g>
</g>
<!-- Node2 -->
<g id="node2" class="node">
<title>Node2</title>
<g id="a_node2"><a xlink:title=" ">
<polygon fill="none" stroke="#bfbfbf" points="2.62,-57.5 2.62,-77.5 56.12,-77.5 56.12,-57.5 2.62,-57.5"/>
<text text-anchor="middle" x="29.38" y="-64" font-family="Helvetica,sans-Serif" font-size="10.00">iostream</text>
</a>
</g>
</g>
<!-- Node1&#45;&gt;Node2 -->
<g id="edge1" class="edge">
<title>Node1&#45;&gt;Node2</title>
<path fill="none" stroke="midnightblue" d="M99.88,-114.66C86.97,-106.21 67.27,-93.31 51.97,-83.3"/>
<polygon fill="midnightblue" stroke="midnightblue" points="54.4,-80.05 44.12,-77.5 50.57,-85.9 54.4,-80.05"/>
</g>
<!-- Node3 -->
<g id="node3" class="node">
<title>Node3</title>
<g id="a_node3"><a xlink:href="_c_my_window_8h.html" target="_top" xlink:title=" ">
<polygon fill="none" stroke="black" points="73.88,-57.5 73.88,-77.5 152.88,-77.5 152.88,-57.5 73.88,-57.5"/>
<text text-anchor="middle" x="113.38" y="-64" font-family="Helvetica,sans-Serif" font-size="10.00">CMyWindow.h</text>
</a>
</g>
</g>
<!-- Node1&#45;&gt;Node3 -->
<g id="edge2" class="edge">
<title>Node1&#45;&gt;Node3</title>
<path fill="none" stroke="midnightblue" d="M113.38,-114.91C113.38,-107.76 113.38,-97.32 113.38,-88.15"/>
<polygon fill="midnightblue" stroke="midnightblue" points="116.88,-88.21 113.38,-78.21 109.88,-88.21 116.88,-88.21"/>
</g>
<!-- Node7 -->
<g id="node7" class="node">
<title>Node7</title>
<g id="a_node7"><a xlink:href="_notification_icon_manager_8h.html" target="_top" xlink:title=" ">
<polygon fill="none" stroke="black" points="174.5,-57.5 174.5,-77.5 302.25,-77.5 302.25,-57.5 174.5,-57.5"/>
<text text-anchor="middle" x="238.38" y="-64" font-family="Helvetica,sans-Serif" font-size="10.00">NotificationIconManager.h</text>
</a>
</g>
</g>
<!-- Node1&#45;&gt;Node7 -->
<g id="edge6" class="edge">
<title>Node1&#45;&gt;Node7</title>
<path fill="none" stroke="midnightblue" d="M133.74,-114.54C153.89,-105.67 185,-91.99 208.06,-81.84"/>
<polygon fill="midnightblue" stroke="midnightblue" points="209.28,-84.69 217.02,-77.46 206.46,-78.28 209.28,-84.69"/>
</g>
<!-- Node4 -->
<g id="node4" class="node">
<title>Node4</title>
<g id="a_node4"><a xlink:title=" ">
<polygon fill="none" stroke="#bfbfbf" points="0,-0.5 0,-20.5 64.75,-20.5 64.75,-0.5 0,-0.5"/>
<text text-anchor="middle" x="32.38" y="-7" font-family="Helvetica,sans-Serif" font-size="10.00">winsock2.h</text>
</a>
</g>
</g>
<!-- Node3&#45;&gt;Node4 -->
<g id="edge3" class="edge">
<title>Node3&#45;&gt;Node4</title>
<path fill="none" stroke="midnightblue" d="M100.36,-57.66C88.03,-49.29 69.28,-36.56 54.59,-26.58"/>
<polygon fill="midnightblue" stroke="midnightblue" points="56.87,-23.22 46.63,-20.5 52.93,-29.01 56.87,-23.22"/>
</g>
<!-- Node5 -->
<g id="node5" class="node">
<title>Node5</title>
<g id="a_node5"><a xlink:title=" ">
<polygon fill="none" stroke="#bfbfbf" points="82.75,-0.5 82.75,-20.5 134,-20.5 134,-0.5 82.75,-0.5"/>
<text text-anchor="middle" x="108.38" y="-7" font-family="Helvetica,sans-Serif" font-size="10.00">afxwin.h</text>
</a>
</g>
</g>
<!-- Node3&#45;&gt;Node5 -->
<g id="edge4" class="edge">
<title>Node3&#45;&gt;Node5</title>
<path fill="none" stroke="midnightblue" d="M112.59,-57.91C111.94,-50.76 111,-40.32 110.16,-31.15"/>
<polygon fill="midnightblue" stroke="midnightblue" points="113.56,-30.86 109.17,-21.21 106.59,-31.49 113.56,-30.86"/>
</g>
<!-- Node6 -->
<g id="node6" class="node">
<title>Node6</title>
<g id="a_node6"><a xlink:title=" ">
<polygon fill="none" stroke="#bfbfbf" points="152.5,-0.5 152.5,-20.5 190.25,-20.5 190.25,-0.5 152.5,-0.5"/>
<text text-anchor="middle" x="171.38" y="-7" font-family="Helvetica,sans-Serif" font-size="10.00">array</text>
</a>
</g>
</g>
<!-- Node3&#45;&gt;Node6 -->
<g id="edge5" class="edge">
<title>Node3&#45;&gt;Node6</title>
<path fill="none" stroke="midnightblue" d="M122.69,-57.66C131.1,-49.69 143.68,-37.76 153.95,-28.02"/>
<polygon fill="midnightblue" stroke="midnightblue" points="156.04,-30.92 160.89,-21.5 151.22,-25.84 156.04,-30.92"/>
</g>
<!-- Node8 -->
<g id="node8" class="node">
<title>Node8</title>
<g id="a_node8"><a xlink:title=" ">
<polygon fill="none" stroke="#bfbfbf" points="207.88,-0.5 207.88,-20.5 268.88,-20.5 268.88,-0.5 207.88,-0.5"/>
<text text-anchor="middle" x="238.38" y="-7" font-family="Helvetica,sans-Serif" font-size="10.00">windows.h</text>
</a>
</g>
</g>
<!-- Node7&#45;&gt;Node8 -->
<g id="edge7" class="edge">
<title>Node7&#45;&gt;Node8</title>
<path fill="none" stroke="midnightblue" d="M238.38,-57.91C238.38,-50.76 238.38,-40.32 238.38,-31.15"/>
<polygon fill="midnightblue" stroke="midnightblue" points="241.88,-31.21 238.38,-21.21 234.88,-31.21 241.88,-31.21"/>
</g>
<!-- Node9 -->
<g id="node9" class="node">
<title>Node9</title>
<g id="a_node9"><a xlink:title=" ">
<polygon fill="none" stroke="#bfbfbf" points="286.75,-0.5 286.75,-20.5 344,-20.5 344,-0.5 286.75,-0.5"/>
<text text-anchor="middle" x="315.38" y="-7" font-family="Helvetica,sans-Serif" font-size="10.00">shellapi.h</text>
</a>
</g>
</g>
<!-- Node7&#45;&gt;Node9 -->
<g id="edge8" class="edge">
<title>Node7&#45;&gt;Node9</title>
<path fill="none" stroke="midnightblue" d="M250.75,-57.66C262.35,-49.37 279.96,-36.8 293.86,-26.87"/>
<polygon fill="midnightblue" stroke="midnightblue" points="295.68,-29.16 301.78,-20.5 291.61,-23.46 295.68,-29.16"/>
</g>
</g>
</svg>
