<?xml version="1.0" encoding="UTF-8" standalone="no"?>
<!DOCTYPE svg PUBLIC "-//W3C//DTD SVG 1.1//EN"
 "http://www.w3.org/Graphics/SVG/1.1/DTD/svg11.dtd">
<!-- Generated by graphviz version 8.1.0 (20230707.0739)
 -->
<!-- Title: main Pages: 1 -->
<svg width="530pt" height="224pt"
 viewBox="0.00 0.00 530.25 224.00" xmlns="http://www.w3.org/2000/svg" xmlns:xlink="http://www.w3.org/1999/xlink">
<g id="graph0" class="graph" transform="scale(1 1) rotate(0) translate(4 220)">
<title>main</title>
<!-- Node1 -->
<g id="node1" class="node">
<title>Node1</title>
<g id="a_node1"><a xlink:title=" ">
<polygon fill="#bfbfbf" stroke="black" points="0,-97.5 0,-117.5 37,-117.5 37,-97.5 0,-97.5"/>
<text text-anchor="middle" x="18.5" y="-104" font-family="Helvetica,sans-Serif" font-size="10.00">main</text>
</a>
</g>
</g>
<!-- Node2 -->
<g id="node2" class="node">
<title>Node2</title>
<g id="a_node2"><a xlink:href="class_notification_icon_manager.html#a5f6578ce57844a74a0bda686f1fffbef" target="_top" xlink:title=" ">
<polygon fill="none" stroke="black" points="74.5,-136.5 74.5,-168.5 194,-168.5 194,-136.5 74.5,-136.5"/>
<text text-anchor="start" x="82.5" y="-155" font-family="Helvetica,sans-Serif" font-size="10.00">NotificationIconManager</text>
<text text-anchor="middle" x="134.25" y="-143" font-family="Helvetica,sans-Serif" font-size="10.00">::AddNotificationIcon</text>
</a>
</g>
</g>
<!-- Node1&#45;&gt;Node2 -->
<g id="edge1" class="edge">
<title>Node1&#45;&gt;Node2</title>
<path fill="none" stroke="midnightblue" d="M36.78,-114.33C49.13,-119.22 66.43,-126.07 82.97,-132.61"/>
<polygon fill="midnightblue" stroke="midnightblue" points="81.54,-136.2 92.13,-136.63 84.11,-129.69 81.54,-136.2"/>
</g>
<!-- Node3 -->
<g id="node3" class="node">
<title>Node3</title>
<g id="a_node3"><a xlink:href="_main_8cpp.html#a6a0b90e2ff0aef80af0cadf613018f70" target="_top" xlink:title=" ">
<polygon fill="none" stroke="black" points="89.5,-97.5 89.5,-117.5 179,-117.5 179,-97.5 89.5,-97.5"/>
<text text-anchor="middle" x="134.25" y="-104" font-family="Helvetica,sans-Serif" font-size="10.00">HandleException</text>
</a>
</g>
</g>
<!-- Node1&#45;&gt;Node3 -->
<g id="edge2" class="edge">
<title>Node1&#45;&gt;Node3</title>
<path fill="none" stroke="midnightblue" d="M36.78,-107.5C48.08,-107.5 63.52,-107.5 78.74,-107.5"/>
<polygon fill="midnightblue" stroke="midnightblue" points="78.72,-111 88.72,-107.5 78.72,-104 78.72,-111"/>
</g>
<!-- Node11 -->
<g id="node11" class="node">
<title>Node11</title>
<g id="a_node11"><a xlink:href="class_notification_icon_manager.html#a38640c691857ff771689c3f74dc0d4cb" target="_top" xlink:title=" ">
<polygon fill="none" stroke="black" points="73,-46.5 73,-78.5 195.5,-78.5 195.5,-46.5 73,-46.5"/>
<text text-anchor="start" x="81" y="-65" font-family="Helvetica,sans-Serif" font-size="10.00">NotificationIconManager</text>
<text text-anchor="middle" x="134.25" y="-53" font-family="Helvetica,sans-Serif" font-size="10.00">::RemoveNotificationIcon</text>
</a>
</g>
</g>
<!-- Node1&#45;&gt;Node11 -->
<g id="edge11" class="edge">
<title>Node1&#45;&gt;Node11</title>
<path fill="none" stroke="midnightblue" d="M36.78,-100.67C49.13,-95.78 66.43,-88.93 82.97,-82.39"/>
<polygon fill="midnightblue" stroke="midnightblue" points="84.11,-85.31 92.13,-78.37 81.54,-78.8 84.11,-85.31"/>
</g>
<!-- Node4 -->
<g id="node4" class="node">
<title>Node4</title>
<g id="a_node4"><a xlink:href="class_exception.html#aec051e0fde1147cd00c8e65255525d23" target="_top" xlink:title=" ">
<polygon fill="none" stroke="black" points="242.75,-195.5 242.75,-215.5 357,-215.5 357,-195.5 242.75,-195.5"/>
<text text-anchor="middle" x="299.88" y="-202" font-family="Helvetica,sans-Serif" font-size="10.00">Exception::GetColumn</text>
</a>
</g>
</g>
<!-- Node3&#45;&gt;Node4 -->
<g id="edge3" class="edge">
<title>Node3&#45;&gt;Node4</title>
<path fill="none" stroke="midnightblue" d="M178.02,-117.48C184.26,-120.1 190.32,-123.38 195.5,-127.5 219.54,-146.62 207.03,-167.94 231.5,-186.5 233.54,-188.05 235.71,-189.47 237.96,-190.78"/>
<polygon fill="midnightblue" stroke="midnightblue" points="236.09,-194.25 246.61,-195.52 239.18,-187.97 236.09,-194.25"/>
</g>
<!-- Node5 -->
<g id="node5" class="node">
<title>Node5</title>
<g id="a_node5"><a xlink:href="class_exception.html#ae3ed2d2a48ffb48eae944d6c3b87558e" target="_top" xlink:title=" ">
<polygon fill="none" stroke="black" points="251.38,-156.5 251.38,-176.5 348.38,-176.5 348.38,-156.5 251.38,-156.5"/>
<text text-anchor="middle" x="299.88" y="-163" font-family="Helvetica,sans-Serif" font-size="10.00">Exception::GetFile</text>
</a>
</g>
</g>
<!-- Node3&#45;&gt;Node5 -->
<g id="edge4" class="edge">
<title>Node3&#45;&gt;Node5</title>
<path fill="none" stroke="midnightblue" d="M168.82,-117.41C177.62,-120.34 187.02,-123.78 195.5,-127.5 212.26,-134.86 214.58,-140.52 231.5,-147.5 236.57,-149.59 241.94,-151.53 247.35,-153.31"/>
<polygon fill="midnightblue" stroke="midnightblue" points="246.15,-156.92 256.74,-156.54 248.23,-150.23 246.15,-156.92"/>
</g>
<!-- Node6 -->
<g id="node6" class="node">
<title>Node6</title>
<g id="a_node6"><a xlink:href="class_exception.html#a7e728ac9016ea07086fd3d90a936821d" target="_top" xlink:title=" ">
<polygon fill="none" stroke="black" points="231.5,-117.5 231.5,-137.5 368.25,-137.5 368.25,-117.5 231.5,-117.5"/>
<text text-anchor="middle" x="299.88" y="-124" font-family="Helvetica,sans-Serif" font-size="10.00">Exception::GetFullMessage</text>
</a>
</g>
</g>
<!-- Node3&#45;&gt;Node6 -->
<g id="edge5" class="edge">
<title>Node3&#45;&gt;Node6</title>
<path fill="none" stroke="midnightblue" d="M178.67,-112.81C191.77,-114.41 206.58,-116.22 221.2,-118.01"/>
<polygon fill="midnightblue" stroke="midnightblue" points="220.44,-121.56 230.79,-119.3 221.29,-114.61 220.44,-121.56"/>
</g>
<!-- Node8 -->
<g id="node8" class="node">
<title>Node8</title>
<g id="a_node8"><a xlink:href="class_exception.html#ac17b8d732b73373bb946215795775047" target="_top" xlink:title=" ">
<polygon fill="none" stroke="black" points="412.5,-78.5 412.5,-98.5 514,-98.5 514,-78.5 412.5,-78.5"/>
<text text-anchor="middle" x="463.25" y="-85" font-family="Helvetica,sans-Serif" font-size="10.00">Exception::GetNote</text>
</a>
</g>
</g>
<!-- Node3&#45;&gt;Node8 -->
<g id="edge9" class="edge">
<title>Node3&#45;&gt;Node8</title>
<path fill="none" stroke="midnightblue" d="M178.67,-104.98C235.99,-101.65 337.18,-95.77 401.91,-92.01"/>
<polygon fill="midnightblue" stroke="midnightblue" points="401.98,-95.45 411.76,-91.38 401.58,-88.46 401.98,-95.45"/>
</g>
<!-- Node9 -->
<g id="node9" class="node">
<title>Node9</title>
<g id="a_node9"><a xlink:href="class_exception.html#acb23ac14125e3c513f5404256d1b70bd" target="_top" xlink:title=" ">
<polygon fill="none" stroke="black" points="250.25,-39.5 250.25,-59.5 349.5,-59.5 349.5,-39.5 250.25,-39.5"/>
<text text-anchor="middle" x="299.88" y="-46" font-family="Helvetica,sans-Serif" font-size="10.00">Exception::GetLine</text>
</a>
</g>
</g>
<!-- Node3&#45;&gt;Node9 -->
<g id="edge8" class="edge">
<title>Node3&#45;&gt;Node9</title>
<path fill="none" stroke="midnightblue" d="M165.96,-97.51C175.46,-94.37 185.93,-90.85 195.5,-87.5 208.13,-83.08 237.87,-72.13 262.22,-63.11"/>
<polygon fill="midnightblue" stroke="midnightblue" points="263.1,-66.15 271.26,-59.39 260.67,-59.59 263.1,-66.15"/>
</g>
<!-- Node10 -->
<g id="node10" class="node">
<title>Node10</title>
<g id="a_node10"><a xlink:href="class_exception.html#acd380a1e7b3c31a64a7e818b49810be5" target="_top" xlink:title=" ">
<polygon fill="none" stroke="black" points="250.25,-0.5 250.25,-20.5 349.5,-20.5 349.5,-0.5 250.25,-0.5"/>
<text text-anchor="middle" x="299.88" y="-7" font-family="Helvetica,sans-Serif" font-size="10.00">Exception::GetTitle</text>
</a>
</g>
</g>
<!-- Node3&#45;&gt;Node10 -->
<g id="edge10" class="edge">
<title>Node3&#45;&gt;Node10</title>
<path fill="none" stroke="midnightblue" d="M177.68,-97.61C184.04,-94.98 190.22,-91.66 195.5,-87.5 219.32,-68.71 207.26,-47.74 231.5,-29.5 234.32,-27.38 237.36,-25.5 240.54,-23.83"/>
<polygon fill="midnightblue" stroke="midnightblue" points="241.72,-26.69 249.42,-19.41 238.86,-20.3 241.72,-26.69"/>
</g>
<!-- Node7 -->
<g id="node7" class="node">
<title>Node7</title>
<g id="a_node7"><a xlink:href="class_exception.html#a4d2a1c8a103847989a9d4fad773b8722" target="_top" xlink:title=" ">
<polygon fill="none" stroke="black" points="404.25,-117.5 404.25,-137.5 522.25,-137.5 522.25,-117.5 404.25,-117.5"/>
<text text-anchor="middle" x="463.25" y="-124" font-family="Helvetica,sans-Serif" font-size="10.00">Exception::GetLocation</text>
</a>
</g>
</g>
<!-- Node6&#45;&gt;Node7 -->
<g id="edge6" class="edge">
<title>Node6&#45;&gt;Node7</title>
<path fill="none" stroke="midnightblue" d="M367.91,-127.5C376.34,-127.5 384.97,-127.5 393.43,-127.5"/>
<polygon fill="midnightblue" stroke="midnightblue" points="393.41,-131 403.41,-127.5 393.41,-124 393.41,-131"/>
</g>
<!-- Node6&#45;&gt;Node8 -->
<g id="edge7" class="edge">
<title>Node6&#45;&gt;Node8</title>
<path fill="none" stroke="midnightblue" d="M342.01,-117.56C362.8,-112.53 388.24,-106.39 410.35,-101.04"/>
<polygon fill="midnightblue" stroke="midnightblue" points="411.01,-104.24 419.91,-98.49 409.36,-97.44 411.01,-104.24"/>
</g>
</g>
</svg>
