<?xml version="1.0" encoding="UTF-8" standalone="no"?>
<!DOCTYPE svg PUBLIC "-//W3C//DTD SVG 1.1//EN"
 "http://www.w3.org/Graphics/SVG/1.1/DTD/svg11.dtd">
<!-- Generated by graphviz version 8.1.0 (20230707.0739)
 -->
<!-- Title: src/Main.cpp Pages: 1 -->
<svg width="524pt" height="257pt"
 viewBox="0.00 0.00 523.50 257.00" xmlns="http://www.w3.org/2000/svg" xmlns:xlink="http://www.w3.org/1999/xlink">
<g id="graph0" class="graph" transform="scale(1 1) rotate(0) translate(4 253)">
<title>src/Main.cpp</title>
<!-- Node1 -->
<g id="node1" class="node">
<title>Node1</title>
<g id="a_node1"><a xlink:title=" ">
<polygon fill="#bfbfbf" stroke="black" points="332.75,-228.5 332.75,-248.5 405,-248.5 405,-228.5 332.75,-228.5"/>
<text text-anchor="middle" x="368.88" y="-235" font-family="Helvetica,sans-Serif" font-size="10.00">src/Main.cpp</text>
</a>
</g>
</g>
<!-- Node2 -->
<g id="node2" class="node">
<title>Node2</title>
<g id="a_node2"><a xlink:href="_c_my_window_8h.html" target="_top" xlink:title=" ">
<polygon fill="none" stroke="black" points="126.38,-171.5 126.38,-191.5 205.38,-191.5 205.38,-171.5 126.38,-171.5"/>
<text text-anchor="middle" x="165.88" y="-178" font-family="Helvetica,sans-Serif" font-size="10.00">CMyWindow.h</text>
</a>
</g>
</g>
<!-- Node1&#45;&gt;Node2 -->
<g id="edge1" class="edge">
<title>Node1&#45;&gt;Node2</title>
<path fill="none" stroke="midnightblue" d="M335.81,-228.54C301.3,-219.19 247.05,-204.49 209.15,-194.23"/>
<polygon fill="midnightblue" stroke="midnightblue" points="210.5,-190.69 199.93,-191.46 208.66,-197.45 210.5,-190.69"/>
</g>
<!-- Node7 -->
<g id="node7" class="node">
<title>Node7</title>
<g id="a_node7"><a xlink:href="_notification_icon_manager_8h.html" target="_top" xlink:title=" ">
<polygon fill="none" stroke="black" points="305,-171.5 305,-191.5 432.75,-191.5 432.75,-171.5 305,-171.5"/>
<text text-anchor="middle" x="368.88" y="-178" font-family="Helvetica,sans-Serif" font-size="10.00">NotificationIconManager.h</text>
</a>
</g>
</g>
<!-- Node1&#45;&gt;Node7 -->
<g id="edge6" class="edge">
<title>Node1&#45;&gt;Node7</title>
<path fill="none" stroke="midnightblue" d="M368.88,-228.91C368.88,-221.76 368.88,-211.32 368.88,-202.15"/>
<polygon fill="midnightblue" stroke="midnightblue" points="372.38,-202.21 368.88,-192.21 365.38,-202.21 372.38,-202.21"/>
</g>
<!-- Node15 -->
<g id="node15" class="node">
<title>Node15</title>
<g id="a_node15"><a xlink:title=" ">
<polygon fill="none" stroke="#bfbfbf" points="451.12,-171.5 451.12,-191.5 504.62,-191.5 504.62,-171.5 451.12,-171.5"/>
<text text-anchor="middle" x="477.88" y="-178" font-family="Helvetica,sans-Serif" font-size="10.00">iostream</text>
</a>
</g>
</g>
<!-- Node1&#45;&gt;Node15 -->
<g id="edge16" class="edge">
<title>Node1&#45;&gt;Node15</title>
<path fill="none" stroke="midnightblue" d="M386.39,-228.66C403.69,-219.94 430.4,-206.46 450.5,-196.31"/>
<polygon fill="midnightblue" stroke="midnightblue" points="451.69,-199.13 459.04,-191.5 448.54,-192.88 451.69,-199.13"/>
</g>
<!-- Node3 -->
<g id="node3" class="node">
<title>Node3</title>
<g id="a_node3"><a xlink:title=" ">
<polygon fill="none" stroke="#bfbfbf" points="0,-114.5 0,-134.5 67.75,-134.5 67.75,-114.5 0,-114.5"/>
<text text-anchor="middle" x="33.88" y="-121" font-family="Helvetica,sans-Serif" font-size="10.00">Winsock2.h</text>
</a>
</g>
</g>
<!-- Node2&#45;&gt;Node3 -->
<g id="edge2" class="edge">
<title>Node2&#45;&gt;Node3</title>
<path fill="none" stroke="midnightblue" d="M144.37,-171.54C122.9,-162.59 89.65,-148.74 65.23,-138.57"/>
<polygon fill="midnightblue" stroke="midnightblue" points="66.94,-135.07 56.37,-134.46 64.25,-141.53 66.94,-135.07"/>
</g>
<!-- Node4 -->
<g id="node4" class="node">
<title>Node4</title>
<g id="a_node4"><a xlink:title=" ">
<polygon fill="none" stroke="#bfbfbf" points="86.25,-114.5 86.25,-134.5 137.5,-134.5 137.5,-114.5 86.25,-114.5"/>
<text text-anchor="middle" x="111.88" y="-121" font-family="Helvetica,sans-Serif" font-size="10.00">afxwin.h</text>
</a>
</g>
</g>
<!-- Node2&#45;&gt;Node4 -->
<g id="edge3" class="edge">
<title>Node2&#45;&gt;Node4</title>
<path fill="none" stroke="midnightblue" d="M157.44,-171.91C149.56,-163.88 137.59,-151.69 127.9,-141.82"/>
<polygon fill="midnightblue" stroke="midnightblue" points="130.93,-139.9 121.43,-135.21 125.94,-144.8 130.93,-139.9"/>
</g>
<!-- Node5 -->
<g id="node5" class="node">
<title>Node5</title>
<g id="a_node5"><a xlink:title=" ">
<polygon fill="none" stroke="#bfbfbf" points="200.88,-0.5 200.88,-20.5 240.88,-20.5 240.88,-0.5 200.88,-0.5"/>
<text text-anchor="middle" x="220.88" y="-7" font-family="Helvetica,sans-Serif" font-size="10.00">string</text>
</a>
</g>
</g>
<!-- Node2&#45;&gt;Node5 -->
<g id="edge4" class="edge">
<title>Node2&#45;&gt;Node5</title>
<path fill="none" stroke="midnightblue" d="M168.17,-171.84C171.59,-159.11 178.32,-134.6 184.88,-114 194.19,-84.72 206.23,-51.19 213.75,-30.68"/>
<polygon fill="midnightblue" stroke="midnightblue" points="217.34,-32.08 217.52,-21.49 210.77,-29.66 217.34,-32.08"/>
</g>
<!-- Node6 -->
<g id="node6" class="node">
<title>Node6</title>
<g id="a_node6"><a xlink:title=" ">
<polygon fill="none" stroke="#bfbfbf" points="193.5,-114.5 193.5,-134.5 276.25,-134.5 276.25,-114.5 193.5,-114.5"/>
<text text-anchor="middle" x="234.88" y="-121" font-family="Helvetica,sans-Serif" font-size="10.00">unordered_map</text>
</a>
</g>
</g>
<!-- Node2&#45;&gt;Node6 -->
<g id="edge5" class="edge">
<title>Node2&#45;&gt;Node6</title>
<path fill="none" stroke="midnightblue" d="M176.96,-171.66C187.26,-163.45 202.83,-151.04 215.24,-141.15"/>
<polygon fill="midnightblue" stroke="midnightblue" points="216.95,-143.47 222.59,-134.5 212.59,-137.99 216.95,-143.47"/>
</g>
<!-- Node8 -->
<g id="node8" class="node">
<title>Node8</title>
<g id="a_node8"><a xlink:href="_exception_8h.html" target="_top" xlink:title=" ">
<polygon fill="none" stroke="black" points="294,-114.5 294,-134.5 361.75,-134.5 361.75,-114.5 294,-114.5"/>
<text text-anchor="middle" x="327.88" y="-121" font-family="Helvetica,sans-Serif" font-size="10.00">Exception.h</text>
</a>
</g>
</g>
<!-- Node7&#45;&gt;Node8 -->
<g id="edge7" class="edge">
<title>Node7&#45;&gt;Node8</title>
<path fill="none" stroke="midnightblue" d="M362.47,-171.91C356.73,-164.2 348.12,-152.66 340.93,-143.02"/>
<polygon fill="midnightblue" stroke="midnightblue" points="343.15,-141.14 334.37,-135.21 337.54,-145.32 343.15,-141.14"/>
</g>
<!-- Node13 -->
<g id="node13" class="node">
<title>Node13</title>
<g id="a_node13"><a xlink:title=" ">
<polygon fill="none" stroke="#bfbfbf" points="379.38,-114.5 379.38,-134.5 440.38,-134.5 440.38,-114.5 379.38,-114.5"/>
<text text-anchor="middle" x="409.88" y="-121" font-family="Helvetica,sans-Serif" font-size="10.00">windows.h</text>
</a>
</g>
</g>
<!-- Node7&#45;&gt;Node13 -->
<g id="edge14" class="edge">
<title>Node7&#45;&gt;Node13</title>
<path fill="none" stroke="midnightblue" d="M375.28,-171.91C381.02,-164.2 389.63,-152.66 396.82,-143.02"/>
<polygon fill="midnightblue" stroke="midnightblue" points="400.21,-145.32 403.38,-135.21 394.6,-141.14 400.21,-145.32"/>
</g>
<!-- Node14 -->
<g id="node14" class="node">
<title>Node14</title>
<g id="a_node14"><a xlink:title=" ">
<polygon fill="none" stroke="#bfbfbf" points="458.25,-114.5 458.25,-134.5 515.5,-134.5 515.5,-114.5 458.25,-114.5"/>
<text text-anchor="middle" x="486.88" y="-121" font-family="Helvetica,sans-Serif" font-size="10.00">shellapi.h</text>
</a>
</g>
</g>
<!-- Node7&#45;&gt;Node14 -->
<g id="edge15" class="edge">
<title>Node7&#45;&gt;Node14</title>
<path fill="none" stroke="midnightblue" d="M388.1,-171.54C407.04,-162.71 436.22,-149.11 457.96,-138.98"/>
<polygon fill="midnightblue" stroke="midnightblue" points="459.08,-141.85 466.66,-134.46 456.12,-135.51 459.08,-141.85"/>
</g>
<!-- Node8&#45;&gt;Node5 -->
<g id="edge12" class="edge">
<title>Node8&#45;&gt;Node5</title>
<path fill="none" stroke="midnightblue" d="M297.34,-114.66C278.25,-107.64 254.58,-95.97 239.88,-78 228.94,-64.64 224.3,-45.32 222.32,-30.94"/>
<polygon fill="midnightblue" stroke="midnightblue" points="225.73,-30.85 221.22,-21.26 218.77,-31.57 225.73,-30.85"/>
</g>
<!-- Node9 -->
<g id="node9" class="node">
<title>Node9</title>
<g id="a_node9"><a xlink:href="_string_conversion_8h.html" target="_top" xlink:title=" ">
<polygon fill="none" stroke="black" points="248.5,-57.5 248.5,-77.5 373.25,-77.5 373.25,-57.5 248.5,-57.5"/>
<text text-anchor="middle" x="310.88" y="-64" font-family="Helvetica,sans-Serif" font-size="10.00">Utility/StringConversion.h</text>
</a>
</g>
</g>
<!-- Node8&#45;&gt;Node9 -->
<g id="edge8" class="edge">
<title>Node8&#45;&gt;Node9</title>
<path fill="none" stroke="midnightblue" d="M325.22,-114.91C322.96,-107.6 319.64,-96.85 316.76,-87.54"/>
<polygon fill="midnightblue" stroke="midnightblue" points="319.87,-86.74 313.57,-78.21 313.18,-88.8 319.87,-86.74"/>
</g>
<!-- Node12 -->
<g id="node12" class="node">
<title>Node12</title>
<g id="a_node12"><a xlink:title=" ">
<polygon fill="none" stroke="#bfbfbf" points="391.75,-57.5 391.75,-77.5 476,-77.5 476,-57.5 391.75,-57.5"/>
<text text-anchor="middle" x="433.88" y="-64" font-family="Helvetica,sans-Serif" font-size="10.00">source_location</text>
</a>
</g>
</g>
<!-- Node8&#45;&gt;Node12 -->
<g id="edge13" class="edge">
<title>Node8&#45;&gt;Node12</title>
<path fill="none" stroke="midnightblue" d="M344.91,-114.66C361.65,-105.97 387.47,-92.58 406.98,-82.45"/>
<polygon fill="midnightblue" stroke="midnightblue" points="408.27,-85.21 415.53,-77.5 405.05,-79 408.27,-85.21"/>
</g>
<!-- Node9&#45;&gt;Node5 -->
<g id="edge11" class="edge">
<title>Node9&#45;&gt;Node5</title>
<path fill="none" stroke="midnightblue" d="M296.41,-57.66C282.46,-49.13 261.08,-36.07 244.63,-26.01"/>
<polygon fill="midnightblue" stroke="midnightblue" points="246.96,-22.73 236.6,-20.5 243.31,-28.7 246.96,-22.73"/>
</g>
<!-- Node10 -->
<g id="node10" class="node">
<title>Node10</title>
<g id="a_node10"><a xlink:title=" ">
<polygon fill="none" stroke="#bfbfbf" points="272.38,-0.5 272.38,-20.5 321.38,-20.5 321.38,-0.5 272.38,-0.5"/>
<text text-anchor="middle" x="296.88" y="-7" font-family="Helvetica,sans-Serif" font-size="10.00">codecvt</text>
</a>
</g>
</g>
<!-- Node9&#45;&gt;Node10 -->
<g id="edge9" class="edge">
<title>Node9&#45;&gt;Node10</title>
<path fill="none" stroke="midnightblue" d="M308.69,-57.91C306.85,-50.68 304.15,-40.09 301.8,-30.85"/>
<polygon fill="midnightblue" stroke="midnightblue" points="304.95,-30.04 299.09,-21.21 298.17,-31.77 304.95,-30.04"/>
</g>
<!-- Node11 -->
<g id="node11" class="node">
<title>Node11</title>
<g id="a_node11"><a xlink:title=" ">
<polygon fill="none" stroke="#bfbfbf" points="339.12,-0.5 339.12,-20.5 380.62,-20.5 380.62,-0.5 339.12,-0.5"/>
<text text-anchor="middle" x="359.88" y="-7" font-family="Helvetica,sans-Serif" font-size="10.00">locale</text>
</a>
</g>
</g>
<!-- Node9&#45;&gt;Node11 -->
<g id="edge10" class="edge">
<title>Node9&#45;&gt;Node11</title>
<path fill="none" stroke="midnightblue" d="M318.53,-57.91C325.54,-50.04 336.11,-38.18 344.8,-28.42"/>
<polygon fill="midnightblue" stroke="midnightblue" points="347.07,-31.01 351.11,-21.21 341.85,-26.35 347.07,-31.01"/>
</g>
</g>
</svg>
