<?xml version="1.0" encoding="UTF-8" standalone="no"?>
<!DOCTYPE svg PUBLIC "-//W3C//DTD SVG 1.1//EN"
 "http://www.w3.org/Graphics/SVG/1.1/DTD/svg11.dtd">
<!-- Generated by graphviz version 8.1.0 (20230707.0739)
 -->
<!-- Title: src/Main.cpp Pages: 1 -->
<svg width="482pt" height="200pt"
 viewBox="0.00 0.00 482.00 200.00" xmlns="http://www.w3.org/2000/svg" xmlns:xlink="http://www.w3.org/1999/xlink">
<g id="graph0" class="graph" transform="scale(1 1) rotate(0) translate(4 196)">
<title>src/Main.cpp</title>
<!-- Node1 -->
<g id="node1" class="node">
<title>Node1</title>
<g id="a_node1"><a xlink:title=" ">
<polygon fill="#bfbfbf" stroke="black" points="278.25,-171.5 278.25,-191.5 350.5,-191.5 350.5,-171.5 278.25,-171.5"/>
<text text-anchor="middle" x="314.38" y="-178" font-family="Helvetica,sans-Serif" font-size="10.00">src/Main.cpp</text>
</a>
</g>
</g>
<!-- Node2 -->
<g id="node2" class="node">
<title>Node2</title>
<g id="a_node2"><a xlink:href="_c_my_window_8h.html" target="_top" xlink:title=" ">
<polygon fill="none" stroke="black" points="125.88,-114.5 125.88,-134.5 204.88,-134.5 204.88,-114.5 125.88,-114.5"/>
<text text-anchor="middle" x="165.38" y="-121" font-family="Helvetica,sans-Serif" font-size="10.00">CMyWindow.h</text>
</a>
</g>
</g>
<!-- Node1&#45;&gt;Node2 -->
<g id="edge1" class="edge">
<title>Node1&#45;&gt;Node2</title>
<path fill="none" stroke="midnightblue" d="M290.1,-171.54C265.54,-162.47 227.32,-148.37 199.67,-138.16"/>
<polygon fill="midnightblue" stroke="midnightblue" points="201.23,-134.63 190.64,-134.46 198.8,-141.2 201.23,-134.63"/>
</g>
<!-- Node6 -->
<g id="node6" class="node">
<title>Node6</title>
<g id="a_node6"><a xlink:href="_notification_icon_manager_8h.html" target="_top" xlink:title=" ">
<polygon fill="none" stroke="black" points="250.5,-114.5 250.5,-134.5 378.25,-134.5 378.25,-114.5 250.5,-114.5"/>
<text text-anchor="middle" x="314.38" y="-121" font-family="Helvetica,sans-Serif" font-size="10.00">NotificationIconManager.h</text>
</a>
</g>
</g>
<!-- Node1&#45;&gt;Node6 -->
<g id="edge5" class="edge">
<title>Node1&#45;&gt;Node6</title>
<path fill="none" stroke="midnightblue" d="M314.38,-171.91C314.38,-164.76 314.38,-154.32 314.38,-145.15"/>
<polygon fill="midnightblue" stroke="midnightblue" points="317.88,-145.21 314.38,-135.21 310.88,-145.21 317.88,-145.21"/>
</g>
<!-- Node12 -->
<g id="node12" class="node">
<title>Node12</title>
<g id="a_node12"><a xlink:title=" ">
<polygon fill="none" stroke="#bfbfbf" points="396.62,-114.5 396.62,-134.5 450.12,-134.5 450.12,-114.5 396.62,-114.5"/>
<text text-anchor="middle" x="423.38" y="-121" font-family="Helvetica,sans-Serif" font-size="10.00">iostream</text>
</a>
</g>
</g>
<!-- Node1&#45;&gt;Node12 -->
<g id="edge11" class="edge">
<title>Node1&#45;&gt;Node12</title>
<path fill="none" stroke="midnightblue" d="M331.89,-171.66C349.19,-162.94 375.9,-149.46 396,-139.31"/>
<polygon fill="midnightblue" stroke="midnightblue" points="397.19,-142.13 404.54,-134.5 394.04,-135.88 397.19,-142.13"/>
</g>
<!-- Node3 -->
<g id="node3" class="node">
<title>Node3</title>
<g id="a_node3"><a xlink:title=" ">
<polygon fill="none" stroke="#bfbfbf" points="0,-57.5 0,-77.5 64.75,-77.5 64.75,-57.5 0,-57.5"/>
<text text-anchor="middle" x="32.38" y="-64" font-family="Helvetica,sans-Serif" font-size="10.00">winsock2.h</text>
</a>
</g>
</g>
<!-- Node2&#45;&gt;Node3 -->
<g id="edge2" class="edge">
<title>Node2&#45;&gt;Node3</title>
<path fill="none" stroke="midnightblue" d="M143.71,-114.54C122.07,-105.59 88.57,-91.74 63.97,-81.57"/>
<polygon fill="midnightblue" stroke="midnightblue" points="65.61,-78.04 55.03,-77.46 62.93,-84.51 65.61,-78.04"/>
</g>
<!-- Node4 -->
<g id="node4" class="node">
<title>Node4</title>
<g id="a_node4"><a xlink:title=" ">
<polygon fill="none" stroke="#bfbfbf" points="82.75,-57.5 82.75,-77.5 134,-77.5 134,-57.5 82.75,-57.5"/>
<text text-anchor="middle" x="108.38" y="-64" font-family="Helvetica,sans-Serif" font-size="10.00">afxwin.h</text>
</a>
</g>
</g>
<!-- Node2&#45;&gt;Node4 -->
<g id="edge3" class="edge">
<title>Node2&#45;&gt;Node4</title>
<path fill="none" stroke="midnightblue" d="M156.22,-114.66C147.96,-106.69 135.59,-94.76 125.5,-85.02"/>
<polygon fill="midnightblue" stroke="midnightblue" points="128.33,-82.92 118.7,-78.5 123.47,-87.96 128.33,-82.92"/>
</g>
<!-- Node5 -->
<g id="node5" class="node">
<title>Node5</title>
<g id="a_node5"><a xlink:title=" ">
<polygon fill="none" stroke="#bfbfbf" points="152,-57.5 152,-77.5 234.75,-77.5 234.75,-57.5 152,-57.5"/>
<text text-anchor="middle" x="193.38" y="-64" font-family="Helvetica,sans-Serif" font-size="10.00">unordered_map</text>
</a>
</g>
</g>
<!-- Node2&#45;&gt;Node5 -->
<g id="edge4" class="edge">
<title>Node2&#45;&gt;Node5</title>
<path fill="none" stroke="midnightblue" d="M169.75,-114.91C173.55,-107.44 179.18,-96.38 183.99,-86.93"/>
<polygon fill="midnightblue" stroke="midnightblue" points="187.52,-88.71 188.94,-78.21 181.28,-85.54 187.52,-88.71"/>
</g>
<!-- Node7 -->
<g id="node7" class="node">
<title>Node7</title>
<g id="a_node7"><a xlink:href="_exception_8h.html" target="_top" xlink:title=" ">
<polygon fill="none" stroke="black" points="252.5,-57.5 252.5,-77.5 320.25,-77.5 320.25,-57.5 252.5,-57.5"/>
<text text-anchor="middle" x="286.38" y="-64" font-family="Helvetica,sans-Serif" font-size="10.00">Exception.h</text>
</a>
</g>
</g>
<!-- Node6&#45;&gt;Node7 -->
<g id="edge6" class="edge">
<title>Node6&#45;&gt;Node7</title>
<path fill="none" stroke="midnightblue" d="M310,-114.91C306.2,-107.44 300.57,-96.38 295.76,-86.93"/>
<polygon fill="midnightblue" stroke="midnightblue" points="298.47,-85.54 290.81,-78.21 292.23,-88.71 298.47,-85.54"/>
</g>
<!-- Node10 -->
<g id="node10" class="node">
<title>Node10</title>
<g id="a_node10"><a xlink:title=" ">
<polygon fill="none" stroke="#bfbfbf" points="337.88,-57.5 337.88,-77.5 398.88,-77.5 398.88,-57.5 337.88,-57.5"/>
<text text-anchor="middle" x="368.38" y="-64" font-family="Helvetica,sans-Serif" font-size="10.00">windows.h</text>
</a>
</g>
</g>
<!-- Node6&#45;&gt;Node10 -->
<g id="edge9" class="edge">
<title>Node6&#45;&gt;Node10</title>
<path fill="none" stroke="midnightblue" d="M322.81,-114.91C330.69,-106.88 342.66,-94.69 352.35,-84.82"/>
<polygon fill="midnightblue" stroke="midnightblue" points="354.31,-87.8 358.82,-78.21 349.32,-82.9 354.31,-87.8"/>
</g>
<!-- Node11 -->
<g id="node11" class="node">
<title>Node11</title>
<g id="a_node11"><a xlink:title=" ">
<polygon fill="none" stroke="#bfbfbf" points="416.75,-57.5 416.75,-77.5 474,-77.5 474,-57.5 416.75,-57.5"/>
<text text-anchor="middle" x="445.38" y="-64" font-family="Helvetica,sans-Serif" font-size="10.00">shellapi.h</text>
</a>
</g>
</g>
<!-- Node6&#45;&gt;Node11 -->
<g id="edge10" class="edge">
<title>Node6&#45;&gt;Node11</title>
<path fill="none" stroke="midnightblue" d="M335.71,-114.54C356.93,-105.63 389.73,-91.86 413.93,-81.7"/>
<polygon fill="midnightblue" stroke="midnightblue" points="415.18,-84.55 423.05,-77.46 412.47,-78.1 415.18,-84.55"/>
</g>
<!-- Node8 -->
<g id="node8" class="node">
<title>Node8</title>
<g id="a_node8"><a xlink:title=" ">
<polygon fill="none" stroke="#bfbfbf" points="226.38,-0.5 226.38,-20.5 266.38,-20.5 266.38,-0.5 226.38,-0.5"/>
<text text-anchor="middle" x="246.38" y="-7" font-family="Helvetica,sans-Serif" font-size="10.00">string</text>
</a>
</g>
</g>
<!-- Node7&#45;&gt;Node8 -->
<g id="edge7" class="edge">
<title>Node7&#45;&gt;Node8</title>
<path fill="none" stroke="midnightblue" d="M280.12,-57.91C274.52,-50.2 266.13,-38.66 259.11,-29.02"/>
<polygon fill="midnightblue" stroke="midnightblue" points="261.43,-27.24 252.71,-21.21 255.76,-31.36 261.43,-27.24"/>
</g>
<!-- Node9 -->
<g id="node9" class="node">
<title>Node9</title>
<g id="a_node9"><a xlink:title=" ">
<polygon fill="none" stroke="#bfbfbf" points="284.25,-0.5 284.25,-20.5 368.5,-20.5 368.5,-0.5 284.25,-0.5"/>
<text text-anchor="middle" x="326.38" y="-7" font-family="Helvetica,sans-Serif" font-size="10.00">source_location</text>
</a>
</g>
</g>
<!-- Node7&#45;&gt;Node9 -->
<g id="edge8" class="edge">
<title>Node7&#45;&gt;Node9</title>
<path fill="none" stroke="midnightblue" d="M292.62,-57.91C298.23,-50.2 306.62,-38.66 313.64,-29.02"/>
<polygon fill="midnightblue" stroke="midnightblue" points="316.99,-31.36 320.04,-21.21 311.32,-27.24 316.99,-31.36"/>
</g>
</g>
</svg>
