<?xml version="1.0" encoding="UTF-8" standalone="no"?>
<!DOCTYPE svg PUBLIC "-//W3C//DTD SVG 1.1//EN"
 "http://www.w3.org/Graphics/SVG/1.1/DTD/svg11.dtd">
<!-- Generated by graphviz version 8.1.0 (20230707.0739)
 -->
<!-- Title: HandleException Pages: 1 -->
<svg width="424pt" height="224pt"
 viewBox="0.00 0.00 424.25 224.00" xmlns="http://www.w3.org/2000/svg" xmlns:xlink="http://www.w3.org/1999/xlink">
<g id="graph0" class="graph" transform="scale(1 1) rotate(0) translate(4 220)">
<title>HandleException</title>
<!-- Node1 -->
<g id="node1" class="node">
<title>Node1</title>
<g id="a_node1"><a xlink:title=" ">
<polygon fill="#bfbfbf" stroke="black" points="0,-97.5 0,-117.5 89.5,-117.5 89.5,-97.5 0,-97.5"/>
<text text-anchor="middle" x="44.75" y="-104" font-family="Helvetica,sans-Serif" font-size="10.00">HandleException</text>
</a>
</g>
</g>
<!-- Node2 -->
<g id="node2" class="node">
<title>Node2</title>
<g id="a_node2"><a xlink:href="class_exception.html#aec051e0fde1147cd00c8e65255525d23" target="_top" xlink:title=" ">
<polygon fill="none" stroke="black" points="136.75,-195.5 136.75,-215.5 251,-215.5 251,-195.5 136.75,-195.5"/>
<text text-anchor="middle" x="193.88" y="-202" font-family="Helvetica,sans-Serif" font-size="10.00">Exception::GetColumn</text>
</a>
</g>
</g>
<!-- Node1&#45;&gt;Node2 -->
<g id="edge1" class="edge">
<title>Node1&#45;&gt;Node2</title>
<path fill="none" stroke="midnightblue" d="M52.94,-117.36C65.67,-134.09 93.85,-168.05 125.5,-186.5 128.75,-188.39 132.2,-190.11 135.75,-191.66"/>
<polygon fill="midnightblue" stroke="midnightblue" points="134.36,-195.26 144.95,-195.6 136.88,-188.73 134.36,-195.26"/>
</g>
<!-- Node3 -->
<g id="node3" class="node">
<title>Node3</title>
<g id="a_node3"><a xlink:href="class_exception.html#ae3ed2d2a48ffb48eae944d6c3b87558e" target="_top" xlink:title=" ">
<polygon fill="none" stroke="black" points="145.38,-156.5 145.38,-176.5 242.38,-176.5 242.38,-156.5 145.38,-156.5"/>
<text text-anchor="middle" x="193.88" y="-163" font-family="Helvetica,sans-Serif" font-size="10.00">Exception::GetFile</text>
</a>
</g>
</g>
<!-- Node1&#45;&gt;Node3 -->
<g id="edge2" class="edge">
<title>Node1&#45;&gt;Node3</title>
<path fill="none" stroke="midnightblue" d="M63.05,-117.38C78.92,-126.15 103.26,-138.88 125.5,-147.5 130.95,-149.61 136.74,-151.61 142.53,-153.44"/>
<polygon fill="midnightblue" stroke="midnightblue" points="141.33,-157.04 151.92,-156.58 143.36,-150.34 141.33,-157.04"/>
</g>
<!-- Node4 -->
<g id="node4" class="node">
<title>Node4</title>
<g id="a_node4"><a xlink:href="class_exception.html#a24790b7d43274e6043122fa6546f27e2" target="_top" xlink:title=" ">
<polygon fill="none" stroke="black" points="125.5,-117.5 125.5,-137.5 262.25,-137.5 262.25,-117.5 125.5,-117.5"/>
<text text-anchor="middle" x="193.88" y="-124" font-family="Helvetica,sans-Serif" font-size="10.00">Exception::GetFullMessage</text>
</a>
</g>
</g>
<!-- Node1&#45;&gt;Node4 -->
<g id="edge3" class="edge">
<title>Node1&#45;&gt;Node4</title>
<path fill="none" stroke="midnightblue" d="M89.49,-113.45C97.56,-114.54 106.21,-115.72 114.94,-116.91"/>
<polygon fill="midnightblue" stroke="midnightblue" points="114.21,-120.47 124.59,-118.35 115.15,-113.54 114.21,-120.47"/>
</g>
<!-- Node6 -->
<g id="node6" class="node">
<title>Node6</title>
<g id="a_node6"><a xlink:href="class_exception.html#ac17b8d732b73373bb946215795775047" target="_top" xlink:title=" ">
<polygon fill="none" stroke="black" points="306.5,-78.5 306.5,-98.5 408,-98.5 408,-78.5 306.5,-78.5"/>
<text text-anchor="middle" x="357.25" y="-85" font-family="Helvetica,sans-Serif" font-size="10.00">Exception::GetNote</text>
</a>
</g>
</g>
<!-- Node1&#45;&gt;Node6 -->
<g id="edge7" class="edge">
<title>Node1&#45;&gt;Node6</title>
<path fill="none" stroke="midnightblue" d="M89.25,-104.84C143.07,-101.55 234.99,-95.92 295.68,-92.21"/>
<polygon fill="midnightblue" stroke="midnightblue" points="295.87,-95.64 305.63,-91.54 295.44,-88.65 295.87,-95.64"/>
</g>
<!-- Node7 -->
<g id="node7" class="node">
<title>Node7</title>
<g id="a_node7"><a xlink:href="class_exception.html#acb23ac14125e3c513f5404256d1b70bd" target="_top" xlink:title=" ">
<polygon fill="none" stroke="black" points="144.25,-39.5 144.25,-59.5 243.5,-59.5 243.5,-39.5 144.25,-39.5"/>
<text text-anchor="middle" x="193.88" y="-46" font-family="Helvetica,sans-Serif" font-size="10.00">Exception::GetLine</text>
</a>
</g>
</g>
<!-- Node1&#45;&gt;Node7 -->
<g id="edge6" class="edge">
<title>Node1&#45;&gt;Node7</title>
<path fill="none" stroke="midnightblue" d="M69.04,-97.6C84.89,-90.92 106.39,-82 125.5,-74.5 135.05,-70.75 145.42,-66.83 155.1,-63.24"/>
<polygon fill="midnightblue" stroke="midnightblue" points="156.08,-66.24 164.25,-59.49 153.66,-59.67 156.08,-66.24"/>
</g>
<!-- Node8 -->
<g id="node8" class="node">
<title>Node8</title>
<g id="a_node8"><a xlink:href="class_exception.html#acd380a1e7b3c31a64a7e818b49810be5" target="_top" xlink:title=" ">
<polygon fill="none" stroke="black" points="144.25,-0.5 144.25,-20.5 243.5,-20.5 243.5,-0.5 144.25,-0.5"/>
<text text-anchor="middle" x="193.88" y="-7" font-family="Helvetica,sans-Serif" font-size="10.00">Exception::GetTitle</text>
</a>
</g>
</g>
<!-- Node1&#45;&gt;Node8 -->
<g id="edge8" class="edge">
<title>Node1&#45;&gt;Node8</title>
<path fill="none" stroke="midnightblue" d="M53.18,-97.51C66.05,-80.9 94.15,-47.64 125.5,-29.5 128.75,-27.62 132.21,-25.91 135.76,-24.37"/>
<polygon fill="midnightblue" stroke="midnightblue" points="136.89,-27.3 144.97,-20.44 134.38,-20.76 136.89,-27.3"/>
</g>
<!-- Node5 -->
<g id="node5" class="node">
<title>Node5</title>
<g id="a_node5"><a xlink:href="class_exception.html#acb5c9464ffc8a86bd6ea9e02c3702327" target="_top" xlink:title=" ">
<polygon fill="none" stroke="black" points="298.25,-117.5 298.25,-137.5 416.25,-137.5 416.25,-117.5 298.25,-117.5"/>
<text text-anchor="middle" x="357.25" y="-124" font-family="Helvetica,sans-Serif" font-size="10.00">Exception::GetLocation</text>
</a>
</g>
</g>
<!-- Node4&#45;&gt;Node5 -->
<g id="edge4" class="edge">
<title>Node4&#45;&gt;Node5</title>
<path fill="none" stroke="midnightblue" d="M261.91,-127.5C270.34,-127.5 278.97,-127.5 287.43,-127.5"/>
<polygon fill="midnightblue" stroke="midnightblue" points="287.41,-131 297.41,-127.5 287.41,-124 287.41,-131"/>
</g>
<!-- Node4&#45;&gt;Node6 -->
<g id="edge5" class="edge">
<title>Node4&#45;&gt;Node6</title>
<path fill="none" stroke="midnightblue" d="M236.01,-117.56C256.8,-112.53 282.24,-106.39 304.35,-101.04"/>
<polygon fill="midnightblue" stroke="midnightblue" points="305.01,-104.24 313.91,-98.49 303.36,-97.44 305.01,-104.24"/>
</g>
</g>
</svg>
