<?xml version="1.0" encoding="UTF-8" standalone="no"?>
<!DOCTYPE svg PUBLIC "-//W3C//DTD SVG 1.1//EN"
 "http://www.w3.org/Graphics/SVG/1.1/DTD/svg11.dtd">
<!-- Generated by graphviz version 8.1.0 (20230707.0739)
 -->
<!-- Title: src/NotificationIconManager.cpp Pages: 1 -->
<svg width="412pt" height="143pt"
 viewBox="0.00 0.00 412.38 143.00" xmlns="http://www.w3.org/2000/svg" xmlns:xlink="http://www.w3.org/1999/xlink">
<g id="graph0" class="graph" transform="scale(1 1) rotate(0) translate(4 139)">
<title>src/NotificationIconManager.cpp</title>
<!-- Node1 -->
<g id="node1" class="node">
<title>Node1</title>
<g id="a_node1"><a xlink:title=" ">
<polygon fill="#bfbfbf" stroke="black" points="56.38,-114.5 56.38,-134.5 211.12,-134.5 211.12,-114.5 56.38,-114.5"/>
<text text-anchor="middle" x="133.75" y="-121" font-family="Helvetica,sans-Serif" font-size="10.00">src/NotificationIconManager.cpp</text>
</a>
</g>
</g>
<!-- Node2 -->
<g id="node2" class="node">
<title>Node2</title>
<g id="a_node2"><a xlink:title=" ">
<polygon fill="none" stroke="#bfbfbf" points="0,-57.5 0,-77.5 53.5,-77.5 53.5,-57.5 0,-57.5"/>
<text text-anchor="middle" x="26.75" y="-64" font-family="Helvetica,sans-Serif" font-size="10.00">strsafe.h</text>
</a>
</g>
</g>
<!-- Node1&#45;&gt;Node2 -->
<g id="edge1" class="edge">
<title>Node1&#45;&gt;Node2</title>
<path fill="none" stroke="midnightblue" d="M116.56,-114.66C99.66,-105.97 73.6,-92.58 53.9,-82.45"/>
<polygon fill="midnightblue" stroke="midnightblue" points="55.75,-78.96 45.25,-77.5 52.55,-85.18 55.75,-78.96"/>
</g>
<!-- Node3 -->
<g id="node3" class="node">
<title>Node3</title>
<g id="a_node3"><a xlink:title=" ">
<polygon fill="none" stroke="#bfbfbf" points="71.5,-57.5 71.5,-77.5 116,-77.5 116,-57.5 71.5,-57.5"/>
<text text-anchor="middle" x="93.75" y="-64" font-family="Helvetica,sans-Serif" font-size="10.00">gsl/gsl</text>
</a>
</g>
</g>
<!-- Node1&#45;&gt;Node3 -->
<g id="edge2" class="edge">
<title>Node1&#45;&gt;Node3</title>
<path fill="none" stroke="midnightblue" d="M127.5,-114.91C121.9,-107.2 113.5,-95.66 106.49,-86.02"/>
<polygon fill="midnightblue" stroke="midnightblue" points="108.8,-84.24 100.09,-78.21 103.14,-88.36 108.8,-84.24"/>
</g>
<!-- Node4 -->
<g id="node4" class="node">
<title>Node4</title>
<g id="a_node4"><a xlink:href="_c_my_window_8h.html" target="_top" xlink:title=" ">
<polygon fill="none" stroke="black" points="134.25,-57.5 134.25,-77.5 213.25,-77.5 213.25,-57.5 134.25,-57.5"/>
<text text-anchor="middle" x="173.75" y="-64" font-family="Helvetica,sans-Serif" font-size="10.00">CMyWindow.h</text>
</a>
</g>
</g>
<!-- Node1&#45;&gt;Node4 -->
<g id="edge3" class="edge">
<title>Node1&#45;&gt;Node4</title>
<path fill="none" stroke="midnightblue" d="M140,-114.91C145.6,-107.2 154,-95.66 161.01,-86.02"/>
<polygon fill="midnightblue" stroke="midnightblue" points="164.36,-88.36 167.41,-78.21 158.7,-84.24 164.36,-88.36"/>
</g>
<!-- Node8 -->
<g id="node8" class="node">
<title>Node8</title>
<g id="a_node8"><a xlink:href="_notification_icon_manager_8h.html" target="_top" xlink:title=" ">
<polygon fill="none" stroke="black" points="234.88,-57.5 234.88,-77.5 362.62,-77.5 362.62,-57.5 234.88,-57.5"/>
<text text-anchor="middle" x="298.75" y="-64" font-family="Helvetica,sans-Serif" font-size="10.00">NotificationIconManager.h</text>
</a>
</g>
</g>
<!-- Node1&#45;&gt;Node8 -->
<g id="edge7" class="edge">
<title>Node1&#45;&gt;Node8</title>
<path fill="none" stroke="midnightblue" d="M160.63,-114.54C188.07,-105.39 230.89,-91.12 261.58,-80.89"/>
<polygon fill="midnightblue" stroke="midnightblue" points="262.5,-83.94 270.88,-77.46 260.29,-77.3 262.5,-83.94"/>
</g>
<!-- Node5 -->
<g id="node5" class="node">
<title>Node5</title>
<g id="a_node5"><a xlink:title=" ">
<polygon fill="none" stroke="#bfbfbf" points="60.38,-0.5 60.38,-20.5 125.12,-20.5 125.12,-0.5 60.38,-0.5"/>
<text text-anchor="middle" x="92.75" y="-7" font-family="Helvetica,sans-Serif" font-size="10.00">winsock2.h</text>
</a>
</g>
</g>
<!-- Node4&#45;&gt;Node5 -->
<g id="edge4" class="edge">
<title>Node4&#45;&gt;Node5</title>
<path fill="none" stroke="midnightblue" d="M160.74,-57.66C148.41,-49.29 129.65,-36.56 114.96,-26.58"/>
<polygon fill="midnightblue" stroke="midnightblue" points="117.24,-23.22 107,-20.5 113.31,-29.01 117.24,-23.22"/>
</g>
<!-- Node6 -->
<g id="node6" class="node">
<title>Node6</title>
<g id="a_node6"><a xlink:title=" ">
<polygon fill="none" stroke="#bfbfbf" points="143.12,-0.5 143.12,-20.5 194.38,-20.5 194.38,-0.5 143.12,-0.5"/>
<text text-anchor="middle" x="168.75" y="-7" font-family="Helvetica,sans-Serif" font-size="10.00">afxwin.h</text>
</a>
</g>
</g>
<!-- Node4&#45;&gt;Node6 -->
<g id="edge5" class="edge">
<title>Node4&#45;&gt;Node6</title>
<path fill="none" stroke="midnightblue" d="M172.97,-57.91C172.32,-50.76 171.37,-40.32 170.54,-31.15"/>
<polygon fill="midnightblue" stroke="midnightblue" points="173.93,-30.86 169.54,-21.21 166.96,-31.49 173.93,-30.86"/>
</g>
<!-- Node7 -->
<g id="node7" class="node">
<title>Node7</title>
<g id="a_node7"><a xlink:title=" ">
<polygon fill="none" stroke="#bfbfbf" points="212.88,-0.5 212.88,-20.5 250.62,-20.5 250.62,-0.5 212.88,-0.5"/>
<text text-anchor="middle" x="231.75" y="-7" font-family="Helvetica,sans-Serif" font-size="10.00">array</text>
</a>
</g>
</g>
<!-- Node4&#45;&gt;Node7 -->
<g id="edge6" class="edge">
<title>Node4&#45;&gt;Node7</title>
<path fill="none" stroke="midnightblue" d="M183.07,-57.66C191.47,-49.69 204.06,-37.76 214.32,-28.02"/>
<polygon fill="midnightblue" stroke="midnightblue" points="216.41,-30.92 221.26,-21.5 211.6,-25.84 216.41,-30.92"/>
</g>
<!-- Node9 -->
<g id="node9" class="node">
<title>Node9</title>
<g id="a_node9"><a xlink:title=" ">
<polygon fill="none" stroke="#bfbfbf" points="268.25,-0.5 268.25,-20.5 329.25,-20.5 329.25,-0.5 268.25,-0.5"/>
<text text-anchor="middle" x="298.75" y="-7" font-family="Helvetica,sans-Serif" font-size="10.00">windows.h</text>
</a>
</g>
</g>
<!-- Node8&#45;&gt;Node9 -->
<g id="edge8" class="edge">
<title>Node8&#45;&gt;Node9</title>
<path fill="none" stroke="midnightblue" d="M298.75,-57.91C298.75,-50.76 298.75,-40.32 298.75,-31.15"/>
<polygon fill="midnightblue" stroke="midnightblue" points="302.25,-31.21 298.75,-21.21 295.25,-31.21 302.25,-31.21"/>
</g>
<!-- Node10 -->
<g id="node10" class="node">
<title>Node10</title>
<g id="a_node10"><a xlink:title=" ">
<polygon fill="none" stroke="#bfbfbf" points="347.12,-0.5 347.12,-20.5 404.38,-20.5 404.38,-0.5 347.12,-0.5"/>
<text text-anchor="middle" x="375.75" y="-7" font-family="Helvetica,sans-Serif" font-size="10.00">shellapi.h</text>
</a>
</g>
</g>
<!-- Node8&#45;&gt;Node10 -->
<g id="edge9" class="edge">
<title>Node8&#45;&gt;Node10</title>
<path fill="none" stroke="midnightblue" d="M311.12,-57.66C322.73,-49.37 340.33,-36.8 354.24,-26.87"/>
<polygon fill="midnightblue" stroke="midnightblue" points="356.05,-29.16 362.15,-20.5 351.98,-23.46 356.05,-29.16"/>
</g>
</g>
</svg>
