<?xml version="1.0" encoding="UTF-8" standalone="no"?>
<!DOCTYPE svg PUBLIC "-//W3C//DTD SVG 1.1//EN"
 "http://www.w3.org/Graphics/SVG/1.1/DTD/svg11.dtd">
<!-- Generated by graphviz version 8.1.0 (20230707.0739)
 -->
<!-- Title: include/NotificationIconManager.h Pages: 1 -->
<svg width="144pt" height="98pt"
 viewBox="0.00 0.00 144.12 98.00" xmlns="http://www.w3.org/2000/svg" xmlns:xlink="http://www.w3.org/1999/xlink">
<g id="graph0" class="graph" transform="scale(1 1) rotate(0) translate(4 94)">
<title>include/NotificationIconManager.h</title>
<!-- Node1 -->
<g id="node1" class="node">
<title>Node1</title>
<g id="a_node1"><a xlink:title=" ">
<polygon fill="#bfbfbf" stroke="black" points="10.62,-57.5 10.62,-89.5 126.38,-89.5 126.38,-57.5 10.62,-57.5"/>
<text text-anchor="start" x="18.62" y="-76" font-family="Helvetica,sans-Serif" font-size="10.00">include/NotificationIcon</text>
<text text-anchor="middle" x="68.5" y="-64" font-family="Helvetica,sans-Serif" font-size="10.00">Manager.h</text>
</a>
</g>
</g>
<!-- Node2 -->
<g id="node2" class="node">
<title>Node2</title>
<g id="a_node2"><a xlink:title=" ">
<polygon fill="none" stroke="#bfbfbf" points="0,-0.5 0,-20.5 61,-20.5 61,-0.5 0,-0.5"/>
<text text-anchor="middle" x="30.5" y="-7" font-family="Helvetica,sans-Serif" font-size="10.00">windows.h</text>
</a>
</g>
</g>
<!-- Node1&#45;&gt;Node2 -->
<g id="edge1" class="edge">
<title>Node1&#45;&gt;Node2</title>
<path fill="none" stroke="midnightblue" d="M59.3,-57.73C54,-49.23 47.3,-38.47 41.7,-29.48"/>
<polygon fill="midnightblue" stroke="midnightblue" points="44.23,-27.92 35.97,-21.28 38.29,-31.62 44.23,-27.92"/>
</g>
<!-- Node3 -->
<g id="node3" class="node">
<title>Node3</title>
<g id="a_node3"><a xlink:title=" ">
<polygon fill="none" stroke="#bfbfbf" points="78.88,-0.5 78.88,-20.5 136.12,-20.5 136.12,-0.5 78.88,-0.5"/>
<text text-anchor="middle" x="107.5" y="-7" font-family="Helvetica,sans-Serif" font-size="10.00">shellapi.h</text>
</a>
</g>
</g>
<!-- Node1&#45;&gt;Node3 -->
<g id="edge2" class="edge">
<title>Node1&#45;&gt;Node3</title>
<path fill="none" stroke="midnightblue" d="M77.94,-57.73C83.38,-49.23 90.25,-38.47 96,-29.48"/>
<polygon fill="midnightblue" stroke="midnightblue" points="99.45,-31.6 101.88,-21.28 93.55,-27.82 99.45,-31.6"/>
</g>
</g>
</svg>
