<?xml version="1.0" encoding="UTF-8" standalone="no"?>
<!DOCTYPE svg PUBLIC "-//W3C//DTD SVG 1.1//EN"
 "http://www.w3.org/Graphics/SVG/1.1/DTD/svg11.dtd">
<!-- Generated by graphviz version 8.1.0 (20230707.0739)
 -->
<!-- Title: src/NotificationIconManager.cpp Pages: 1 -->
<svg width="504pt" height="200pt"
 viewBox="0.00 0.00 504.38 200.00" xmlns="http://www.w3.org/2000/svg" xmlns:xlink="http://www.w3.org/1999/xlink">
<g id="graph0" class="graph" transform="scale(1 1) rotate(0) translate(4 196)">
<title>src/NotificationIconManager.cpp</title>
<!-- Node1 -->
<g id="node1" class="node">
<title>Node1</title>
<g id="a_node1"><a xlink:title=" ">
<polygon fill="#bfbfbf" stroke="black" points="56.38,-171.5 56.38,-191.5 211.12,-191.5 211.12,-171.5 56.38,-171.5"/>
<text text-anchor="middle" x="133.75" y="-178" font-family="Helvetica,sans-Serif" font-size="10.00">src/NotificationIconManager.cpp</text>
</a>
</g>
</g>
<!-- Node2 -->
<g id="node2" class="node">
<title>Node2</title>
<g id="a_node2"><a xlink:title=" ">
<polygon fill="none" stroke="#bfbfbf" points="0,-114.5 0,-134.5 53.5,-134.5 53.5,-114.5 0,-114.5"/>
<text text-anchor="middle" x="26.75" y="-121" font-family="Helvetica,sans-Serif" font-size="10.00">strsafe.h</text>
</a>
</g>
</g>
<!-- Node1&#45;&gt;Node2 -->
<g id="edge1" class="edge">
<title>Node1&#45;&gt;Node2</title>
<path fill="none" stroke="midnightblue" d="M116.56,-171.66C99.66,-162.97 73.6,-149.58 53.9,-139.45"/>
<polygon fill="midnightblue" stroke="midnightblue" points="55.75,-135.96 45.25,-134.5 52.55,-142.18 55.75,-135.96"/>
</g>
<!-- Node3 -->
<g id="node3" class="node">
<title>Node3</title>
<g id="a_node3"><a xlink:title=" ">
<polygon fill="none" stroke="#bfbfbf" points="71.5,-114.5 71.5,-134.5 116,-134.5 116,-114.5 71.5,-114.5"/>
<text text-anchor="middle" x="93.75" y="-121" font-family="Helvetica,sans-Serif" font-size="10.00">gsl/gsl</text>
</a>
</g>
</g>
<!-- Node1&#45;&gt;Node3 -->
<g id="edge2" class="edge">
<title>Node1&#45;&gt;Node3</title>
<path fill="none" stroke="midnightblue" d="M127.5,-171.91C121.9,-164.2 113.5,-152.66 106.49,-143.02"/>
<polygon fill="midnightblue" stroke="midnightblue" points="108.8,-141.24 100.09,-135.21 103.14,-145.36 108.8,-141.24"/>
</g>
<!-- Node4 -->
<g id="node4" class="node">
<title>Node4</title>
<g id="a_node4"><a xlink:href="_c_my_window_8h.html" target="_top" xlink:title=" ">
<polygon fill="none" stroke="black" points="134.25,-114.5 134.25,-134.5 213.25,-134.5 213.25,-114.5 134.25,-114.5"/>
<text text-anchor="middle" x="173.75" y="-121" font-family="Helvetica,sans-Serif" font-size="10.00">CMyWindow.h</text>
</a>
</g>
</g>
<!-- Node1&#45;&gt;Node4 -->
<g id="edge3" class="edge">
<title>Node1&#45;&gt;Node4</title>
<path fill="none" stroke="midnightblue" d="M140,-171.91C145.6,-164.2 154,-152.66 161.01,-143.02"/>
<polygon fill="midnightblue" stroke="midnightblue" points="164.36,-145.36 167.41,-135.21 158.7,-141.24 164.36,-145.36"/>
</g>
<!-- Node8 -->
<g id="node8" class="node">
<title>Node8</title>
<g id="a_node8"><a xlink:href="_notification_icon_manager_8h.html" target="_top" xlink:title=" ">
<polygon fill="none" stroke="black" points="285.88,-114.5 285.88,-134.5 413.62,-134.5 413.62,-114.5 285.88,-114.5"/>
<text text-anchor="middle" x="349.75" y="-121" font-family="Helvetica,sans-Serif" font-size="10.00">NotificationIconManager.h</text>
</a>
</g>
</g>
<!-- Node1&#45;&gt;Node8 -->
<g id="edge7" class="edge">
<title>Node1&#45;&gt;Node8</title>
<path fill="none" stroke="midnightblue" d="M168.93,-171.54C205.73,-162.17 263.63,-147.43 303.96,-137.16"/>
<polygon fill="midnightblue" stroke="midnightblue" points="304.75,-140.31 313.58,-134.46 303.03,-133.53 304.75,-140.31"/>
</g>
<!-- Node5 -->
<g id="node5" class="node">
<title>Node5</title>
<g id="a_node5"><a xlink:title=" ">
<polygon fill="none" stroke="#bfbfbf" points="22.38,-57.5 22.38,-77.5 87.12,-77.5 87.12,-57.5 22.38,-57.5"/>
<text text-anchor="middle" x="54.75" y="-64" font-family="Helvetica,sans-Serif" font-size="10.00">winsock2.h</text>
</a>
</g>
</g>
<!-- Node4&#45;&gt;Node5 -->
<g id="edge4" class="edge">
<title>Node4&#45;&gt;Node5</title>
<path fill="none" stroke="midnightblue" d="M154.37,-114.54C135.26,-105.71 105.83,-92.11 83.91,-81.98"/>
<polygon fill="midnightblue" stroke="midnightblue" points="85.67,-78.47 75.13,-77.46 82.73,-84.83 85.67,-78.47"/>
</g>
<!-- Node6 -->
<g id="node6" class="node">
<title>Node6</title>
<g id="a_node6"><a xlink:title=" ">
<polygon fill="none" stroke="#bfbfbf" points="105.12,-57.5 105.12,-77.5 156.38,-77.5 156.38,-57.5 105.12,-57.5"/>
<text text-anchor="middle" x="130.75" y="-64" font-family="Helvetica,sans-Serif" font-size="10.00">afxwin.h</text>
</a>
</g>
</g>
<!-- Node4&#45;&gt;Node6 -->
<g id="edge5" class="edge">
<title>Node4&#45;&gt;Node6</title>
<path fill="none" stroke="midnightblue" d="M167.03,-114.91C160.95,-107.12 151.8,-95.42 144.21,-85.71"/>
<polygon fill="midnightblue" stroke="midnightblue" points="146.48,-83.94 137.56,-78.21 140.97,-88.25 146.48,-83.94"/>
</g>
<!-- Node7 -->
<g id="node7" class="node">
<title>Node7</title>
<g id="a_node7"><a xlink:title=" ">
<polygon fill="none" stroke="#bfbfbf" points="174.38,-57.5 174.38,-77.5 257.12,-77.5 257.12,-57.5 174.38,-57.5"/>
<text text-anchor="middle" x="215.75" y="-64" font-family="Helvetica,sans-Serif" font-size="10.00">unordered_map</text>
</a>
</g>
</g>
<!-- Node4&#45;&gt;Node7 -->
<g id="edge6" class="edge">
<title>Node4&#45;&gt;Node7</title>
<path fill="none" stroke="midnightblue" d="M180.31,-114.91C186.26,-107.12 195.19,-95.42 202.6,-85.71"/>
<polygon fill="midnightblue" stroke="midnightblue" points="205.81,-88.29 209.09,-78.21 200.24,-84.04 205.81,-88.29"/>
</g>
<!-- Node9 -->
<g id="node9" class="node">
<title>Node9</title>
<g id="a_node9"><a xlink:href="_exception_8h.html" target="_top" xlink:title=" ">
<polygon fill="none" stroke="black" points="274.88,-57.5 274.88,-77.5 342.62,-77.5 342.62,-57.5 274.88,-57.5"/>
<text text-anchor="middle" x="308.75" y="-64" font-family="Helvetica,sans-Serif" font-size="10.00">Exception.h</text>
</a>
</g>
</g>
<!-- Node8&#45;&gt;Node9 -->
<g id="edge8" class="edge">
<title>Node8&#45;&gt;Node9</title>
<path fill="none" stroke="midnightblue" d="M343.34,-114.91C337.6,-107.2 329,-95.66 321.81,-86.02"/>
<polygon fill="midnightblue" stroke="midnightblue" points="324.03,-84.14 315.25,-78.21 318.42,-88.32 324.03,-84.14"/>
</g>
<!-- Node12 -->
<g id="node12" class="node">
<title>Node12</title>
<g id="a_node12"><a xlink:title=" ">
<polygon fill="none" stroke="#bfbfbf" points="360.25,-57.5 360.25,-77.5 421.25,-77.5 421.25,-57.5 360.25,-57.5"/>
<text text-anchor="middle" x="390.75" y="-64" font-family="Helvetica,sans-Serif" font-size="10.00">windows.h</text>
</a>
</g>
</g>
<!-- Node8&#45;&gt;Node12 -->
<g id="edge11" class="edge">
<title>Node8&#45;&gt;Node12</title>
<path fill="none" stroke="midnightblue" d="M356.16,-114.91C361.9,-107.2 370.5,-95.66 377.69,-86.02"/>
<polygon fill="midnightblue" stroke="midnightblue" points="381.08,-88.32 384.25,-78.21 375.47,-84.14 381.08,-88.32"/>
</g>
<!-- Node13 -->
<g id="node13" class="node">
<title>Node13</title>
<g id="a_node13"><a xlink:title=" ">
<polygon fill="none" stroke="#bfbfbf" points="439.12,-57.5 439.12,-77.5 496.38,-77.5 496.38,-57.5 439.12,-57.5"/>
<text text-anchor="middle" x="467.75" y="-64" font-family="Helvetica,sans-Serif" font-size="10.00">shellapi.h</text>
</a>
</g>
</g>
<!-- Node8&#45;&gt;Node13 -->
<g id="edge12" class="edge">
<title>Node8&#45;&gt;Node13</title>
<path fill="none" stroke="midnightblue" d="M368.97,-114.54C387.91,-105.71 417.1,-92.11 438.84,-81.98"/>
<polygon fill="midnightblue" stroke="midnightblue" points="439.95,-84.85 447.54,-77.46 436.99,-78.51 439.95,-84.85"/>
</g>
<!-- Node10 -->
<g id="node10" class="node">
<title>Node10</title>
<g id="a_node10"><a xlink:title=" ">
<polygon fill="none" stroke="#bfbfbf" points="248.75,-0.5 248.75,-20.5 288.75,-20.5 288.75,-0.5 248.75,-0.5"/>
<text text-anchor="middle" x="268.75" y="-7" font-family="Helvetica,sans-Serif" font-size="10.00">string</text>
</a>
</g>
</g>
<!-- Node9&#45;&gt;Node10 -->
<g id="edge9" class="edge">
<title>Node9&#45;&gt;Node10</title>
<path fill="none" stroke="midnightblue" d="M302.5,-57.91C296.9,-50.2 288.5,-38.66 281.49,-29.02"/>
<polygon fill="midnightblue" stroke="midnightblue" points="283.8,-27.24 275.09,-21.21 278.14,-31.36 283.8,-27.24"/>
</g>
<!-- Node11 -->
<g id="node11" class="node">
<title>Node11</title>
<g id="a_node11"><a xlink:title=" ">
<polygon fill="none" stroke="#bfbfbf" points="306.62,-0.5 306.62,-20.5 390.88,-20.5 390.88,-0.5 306.62,-0.5"/>
<text text-anchor="middle" x="348.75" y="-7" font-family="Helvetica,sans-Serif" font-size="10.00">source_location</text>
</a>
</g>
</g>
<!-- Node9&#45;&gt;Node11 -->
<g id="edge10" class="edge">
<title>Node9&#45;&gt;Node11</title>
<path fill="none" stroke="midnightblue" d="M315,-57.91C320.6,-50.2 329,-38.66 336.01,-29.02"/>
<polygon fill="midnightblue" stroke="midnightblue" points="339.36,-31.36 342.41,-21.21 333.7,-27.24 339.36,-31.36"/>
</g>
</g>
</svg>
