<?xml version="1.0" encoding="UTF-8" standalone="no"?>
<!DOCTYPE svg PUBLIC "-//W3C//DTD SVG 1.1//EN"
 "http://www.w3.org/Graphics/SVG/1.1/DTD/svg11.dtd">
<!-- Generated by graphviz version 8.1.0 (20230707.0739)
 -->
<!-- Title: include/NotificationIconManager.h Pages: 1 -->
<svg width="365pt" height="212pt"
 viewBox="0.00 0.00 365.12 212.00" xmlns="http://www.w3.org/2000/svg" xmlns:xlink="http://www.w3.org/1999/xlink">
<g id="graph0" class="graph" transform="scale(1 1) rotate(0) translate(4 208)">
<title>include/NotificationIconManager.h</title>
<!-- Node1 -->
<g id="node1" class="node">
<title>Node1</title>
<g id="a_node1"><a xlink:title=" ">
<polygon fill="#bfbfbf" stroke="black" points="193.62,-171.5 193.62,-203.5 309.38,-203.5 309.38,-171.5 193.62,-171.5"/>
<text text-anchor="start" x="201.62" y="-190" font-family="Helvetica,sans-Serif" font-size="10.00">include/NotificationIcon</text>
<text text-anchor="middle" x="251.5" y="-178" font-family="Helvetica,sans-Serif" font-size="10.00">Manager.h</text>
</a>
</g>
</g>
<!-- Node2 -->
<g id="node2" class="node">
<title>Node2</title>
<g id="a_node2"><a xlink:href="_exception_8h.html" target="_top" xlink:title=" ">
<polygon fill="none" stroke="black" points="135.62,-114.5 135.62,-134.5 203.38,-134.5 203.38,-114.5 135.62,-114.5"/>
<text text-anchor="middle" x="169.5" y="-121" font-family="Helvetica,sans-Serif" font-size="10.00">Exception.h</text>
</a>
</g>
</g>
<!-- Node1&#45;&gt;Node2 -->
<g id="edge1" class="edge">
<title>Node1&#45;&gt;Node2</title>
<path fill="none" stroke="midnightblue" d="M231.65,-171.73C218.99,-162.31 202.62,-150.14 189.86,-140.64"/>
<polygon fill="midnightblue" stroke="midnightblue" points="192.42,-137.44 182.31,-134.28 188.24,-143.06 192.42,-137.44"/>
</g>
<!-- Node8 -->
<g id="node8" class="node">
<title>Node8</title>
<g id="a_node8"><a xlink:title=" ">
<polygon fill="none" stroke="#bfbfbf" points="221,-114.5 221,-134.5 282,-134.5 282,-114.5 221,-114.5"/>
<text text-anchor="middle" x="251.5" y="-121" font-family="Helvetica,sans-Serif" font-size="10.00">windows.h</text>
</a>
</g>
</g>
<!-- Node1&#45;&gt;Node8 -->
<g id="edge8" class="edge">
<title>Node1&#45;&gt;Node8</title>
<path fill="none" stroke="midnightblue" d="M251.5,-171.73C251.5,-163.78 251.5,-153.85 251.5,-145.24"/>
<polygon fill="midnightblue" stroke="midnightblue" points="255,-145.28 251.5,-135.28 248,-145.28 255,-145.28"/>
</g>
<!-- Node9 -->
<g id="node9" class="node">
<title>Node9</title>
<g id="a_node9"><a xlink:title=" ">
<polygon fill="none" stroke="#bfbfbf" points="299.88,-114.5 299.88,-134.5 357.12,-134.5 357.12,-114.5 299.88,-114.5"/>
<text text-anchor="middle" x="328.5" y="-121" font-family="Helvetica,sans-Serif" font-size="10.00">shellapi.h</text>
</a>
</g>
</g>
<!-- Node1&#45;&gt;Node9 -->
<g id="edge9" class="edge">
<title>Node1&#45;&gt;Node9</title>
<path fill="none" stroke="midnightblue" d="M270.14,-171.73C281.91,-162.41 297.1,-150.37 309.03,-140.92"/>
<polygon fill="midnightblue" stroke="midnightblue" points="310.75,-143.24 316.41,-134.28 306.4,-137.75 310.75,-143.24"/>
</g>
<!-- Node3 -->
<g id="node3" class="node">
<title>Node3</title>
<g id="a_node3"><a xlink:href="_string_conversion_8h.html" target="_top" xlink:title=" ">
<polygon fill="none" stroke="black" points="17.12,-57.5 17.12,-77.5 141.88,-77.5 141.88,-57.5 17.12,-57.5"/>
<text text-anchor="middle" x="79.5" y="-64" font-family="Helvetica,sans-Serif" font-size="10.00">Utility/StringConversion.h</text>
</a>
</g>
</g>
<!-- Node2&#45;&gt;Node3 -->
<g id="edge2" class="edge">
<title>Node2&#45;&gt;Node3</title>
<path fill="none" stroke="midnightblue" d="M155.04,-114.66C141.08,-106.13 119.71,-93.07 103.25,-83.01"/>
<polygon fill="midnightblue" stroke="midnightblue" points="105.58,-79.73 95.22,-77.5 101.93,-85.7 105.58,-79.73"/>
</g>
<!-- Node6 -->
<g id="node6" class="node">
<title>Node6</title>
<g id="a_node6"><a xlink:title=" ">
<polygon fill="none" stroke="#bfbfbf" points="141.5,-0.5 141.5,-20.5 181.5,-20.5 181.5,-0.5 141.5,-0.5"/>
<text text-anchor="middle" x="161.5" y="-7" font-family="Helvetica,sans-Serif" font-size="10.00">string</text>
</a>
</g>
</g>
<!-- Node2&#45;&gt;Node6 -->
<g id="edge6" class="edge">
<title>Node2&#45;&gt;Node6</title>
<path fill="none" stroke="midnightblue" d="M168.87,-114.71C167.59,-96.8 164.66,-55.69 162.9,-31.11"/>
<polygon fill="midnightblue" stroke="midnightblue" points="166.33,-30.97 162.12,-21.25 159.35,-31.47 166.33,-30.97"/>
</g>
<!-- Node7 -->
<g id="node7" class="node">
<title>Node7</title>
<g id="a_node7"><a xlink:title=" ">
<polygon fill="none" stroke="#bfbfbf" points="197.38,-57.5 197.38,-77.5 281.62,-77.5 281.62,-57.5 197.38,-57.5"/>
<text text-anchor="middle" x="239.5" y="-64" font-family="Helvetica,sans-Serif" font-size="10.00">source_location</text>
</a>
</g>
</g>
<!-- Node2&#45;&gt;Node7 -->
<g id="edge7" class="edge">
<title>Node2&#45;&gt;Node7</title>
<path fill="none" stroke="midnightblue" d="M180.75,-114.66C191.2,-106.45 206.99,-94.04 219.58,-84.15"/>
<polygon fill="midnightblue" stroke="midnightblue" points="221.35,-86.43 227.05,-77.5 217.02,-80.92 221.35,-86.43"/>
</g>
<!-- Node4 -->
<g id="node4" class="node">
<title>Node4</title>
<g id="a_node4"><a xlink:title=" ">
<polygon fill="none" stroke="#bfbfbf" points="0,-0.5 0,-20.5 49,-20.5 49,-0.5 0,-0.5"/>
<text text-anchor="middle" x="24.5" y="-7" font-family="Helvetica,sans-Serif" font-size="10.00">codecvt</text>
</a>
</g>
</g>
<!-- Node3&#45;&gt;Node4 -->
<g id="edge3" class="edge">
<title>Node3&#45;&gt;Node4</title>
<path fill="none" stroke="midnightblue" d="M70.91,-57.91C62.88,-49.88 50.69,-37.69 40.82,-27.82"/>
<polygon fill="midnightblue" stroke="midnightblue" points="43.76,-25.81 34.21,-21.21 38.81,-30.76 43.76,-25.81"/>
</g>
<!-- Node5 -->
<g id="node5" class="node">
<title>Node5</title>
<g id="a_node5"><a xlink:title=" ">
<polygon fill="none" stroke="#bfbfbf" points="66.75,-0.5 66.75,-20.5 108.25,-20.5 108.25,-0.5 66.75,-0.5"/>
<text text-anchor="middle" x="87.5" y="-7" font-family="Helvetica,sans-Serif" font-size="10.00">locale</text>
</a>
</g>
</g>
<!-- Node3&#45;&gt;Node5 -->
<g id="edge4" class="edge">
<title>Node3&#45;&gt;Node5</title>
<path fill="none" stroke="midnightblue" d="M80.75,-57.91C81.8,-50.68 83.34,-40.09 84.69,-30.85"/>
<polygon fill="midnightblue" stroke="midnightblue" points="88.26,-31.61 86.23,-21.21 81.33,-30.61 88.26,-31.61"/>
</g>
<!-- Node3&#45;&gt;Node6 -->
<g id="edge5" class="edge">
<title>Node3&#45;&gt;Node6</title>
<path fill="none" stroke="midnightblue" d="M92.67,-57.66C105.15,-49.29 124.14,-36.56 139.02,-26.58"/>
<polygon fill="midnightblue" stroke="midnightblue" points="140.73,-28.97 147.09,-20.5 136.83,-23.16 140.73,-28.97"/>
</g>
</g>
</svg>
