<?xml version="1.0" encoding="UTF-8" standalone="no"?>
<!DOCTYPE svg PUBLIC "-//W3C//DTD SVG 1.1//EN"
 "http://www.w3.org/Graphics/SVG/1.1/DTD/svg11.dtd">
<!-- Generated by graphviz version 8.1.0 (20230707.0739)
 -->
<!-- Title: include/NotificationIconManager.h Pages: 1 -->
<svg width="256pt" height="155pt"
 viewBox="0.00 0.00 255.62 155.00" xmlns="http://www.w3.org/2000/svg" xmlns:xlink="http://www.w3.org/1999/xlink">
<g id="graph0" class="graph" transform="scale(1 1) rotate(0) translate(4 151)">
<title>include/NotificationIconManager.h</title>
<!-- Node1 -->
<g id="node1" class="node">
<title>Node1</title>
<g id="a_node1"><a xlink:title=" ">
<polygon fill="#bfbfbf" stroke="black" points="84.12,-114.5 84.12,-146.5 199.88,-146.5 199.88,-114.5 84.12,-114.5"/>
<text text-anchor="start" x="92.12" y="-133" font-family="Helvetica,sans-Serif" font-size="10.00">include/NotificationIcon</text>
<text text-anchor="middle" x="142" y="-121" font-family="Helvetica,sans-Serif" font-size="10.00">Manager.h</text>
</a>
</g>
</g>
<!-- Node2 -->
<g id="node2" class="node">
<title>Node2</title>
<g id="a_node2"><a xlink:href="_exception_8h.html" target="_top" xlink:title=" ">
<polygon fill="none" stroke="black" points="26.12,-57.5 26.12,-77.5 93.88,-77.5 93.88,-57.5 26.12,-57.5"/>
<text text-anchor="middle" x="60" y="-64" font-family="Helvetica,sans-Serif" font-size="10.00">Exception.h</text>
</a>
</g>
</g>
<!-- Node1&#45;&gt;Node2 -->
<g id="edge1" class="edge">
<title>Node1&#45;&gt;Node2</title>
<path fill="none" stroke="midnightblue" d="M122.15,-114.73C109.49,-105.31 93.12,-93.14 80.36,-83.64"/>
<polygon fill="midnightblue" stroke="midnightblue" points="82.92,-80.44 72.81,-77.28 78.74,-86.06 82.92,-80.44"/>
</g>
<!-- Node5 -->
<g id="node5" class="node">
<title>Node5</title>
<g id="a_node5"><a xlink:title=" ">
<polygon fill="none" stroke="#bfbfbf" points="111.5,-57.5 111.5,-77.5 172.5,-77.5 172.5,-57.5 111.5,-57.5"/>
<text text-anchor="middle" x="142" y="-64" font-family="Helvetica,sans-Serif" font-size="10.00">windows.h</text>
</a>
</g>
</g>
<!-- Node1&#45;&gt;Node5 -->
<g id="edge4" class="edge">
<title>Node1&#45;&gt;Node5</title>
<path fill="none" stroke="midnightblue" d="M142,-114.73C142,-106.78 142,-96.85 142,-88.24"/>
<polygon fill="midnightblue" stroke="midnightblue" points="145.5,-88.28 142,-78.28 138.5,-88.28 145.5,-88.28"/>
</g>
<!-- Node6 -->
<g id="node6" class="node">
<title>Node6</title>
<g id="a_node6"><a xlink:title=" ">
<polygon fill="none" stroke="#bfbfbf" points="190.38,-57.5 190.38,-77.5 247.62,-77.5 247.62,-57.5 190.38,-57.5"/>
<text text-anchor="middle" x="219" y="-64" font-family="Helvetica,sans-Serif" font-size="10.00">shellapi.h</text>
</a>
</g>
</g>
<!-- Node1&#45;&gt;Node6 -->
<g id="edge5" class="edge">
<title>Node1&#45;&gt;Node6</title>
<path fill="none" stroke="midnightblue" d="M160.64,-114.73C172.41,-105.41 187.6,-93.37 199.53,-83.92"/>
<polygon fill="midnightblue" stroke="midnightblue" points="201.25,-86.24 206.91,-77.28 196.9,-80.75 201.25,-86.24"/>
</g>
<!-- Node3 -->
<g id="node3" class="node">
<title>Node3</title>
<g id="a_node3"><a xlink:title=" ">
<polygon fill="none" stroke="#bfbfbf" points="0,-0.5 0,-20.5 40,-20.5 40,-0.5 0,-0.5"/>
<text text-anchor="middle" x="20" y="-7" font-family="Helvetica,sans-Serif" font-size="10.00">string</text>
</a>
</g>
</g>
<!-- Node2&#45;&gt;Node3 -->
<g id="edge2" class="edge">
<title>Node2&#45;&gt;Node3</title>
<path fill="none" stroke="midnightblue" d="M53.75,-57.91C48.15,-50.2 39.75,-38.66 32.74,-29.02"/>
<polygon fill="midnightblue" stroke="midnightblue" points="35.05,-27.24 26.34,-21.21 29.39,-31.36 35.05,-27.24"/>
</g>
<!-- Node4 -->
<g id="node4" class="node">
<title>Node4</title>
<g id="a_node4"><a xlink:title=" ">
<polygon fill="none" stroke="#bfbfbf" points="57.88,-0.5 57.88,-20.5 142.12,-20.5 142.12,-0.5 57.88,-0.5"/>
<text text-anchor="middle" x="100" y="-7" font-family="Helvetica,sans-Serif" font-size="10.00">source_location</text>
</a>
</g>
</g>
<!-- Node2&#45;&gt;Node4 -->
<g id="edge3" class="edge">
<title>Node2&#45;&gt;Node4</title>
<path fill="none" stroke="midnightblue" d="M66.25,-57.91C71.85,-50.2 80.25,-38.66 87.26,-29.02"/>
<polygon fill="midnightblue" stroke="midnightblue" points="90.61,-31.36 93.66,-21.21 84.95,-27.24 90.61,-31.36"/>
</g>
</g>
</svg>
