<?xml version="1.0" encoding="UTF-8" standalone="no"?>
<!DOCTYPE svg PUBLIC "-//W3C//DTD SVG 1.1//EN"
 "http://www.w3.org/Graphics/SVG/1.1/DTD/svg11.dtd">
<!-- Generated by graphviz version 8.1.0 (20230707.0739)
 -->
<!-- Title: include/Utility/StringConversion.h Pages: 1 -->
<svg width="658pt" height="212pt"
 viewBox="0.00 0.00 657.50 212.00" xmlns="http://www.w3.org/2000/svg" xmlns:xlink="http://www.w3.org/1999/xlink">
<g id="graph0" class="graph" transform="scale(1 1) rotate(0) translate(4 208)">
<title>include/Utility/StringConversion.h</title>
<!-- Node1 -->
<g id="node1" class="node">
<title>Node1</title>
<g id="a_node1"><a xlink:title=" ">
<polygon fill="#bfbfbf" stroke="black" points="269.88,-183.5 269.88,-203.5 428.38,-203.5 428.38,-183.5 269.88,-183.5"/>
<text text-anchor="middle" x="349.12" y="-190" font-family="Helvetica,sans-Serif" font-size="10.00">include/Utility/StringConversion.h</text>
</a>
</g>
</g>
<!-- Node2 -->
<g id="node2" class="node">
<title>Node2</title>
<g id="a_node2"><a xlink:href="_exception_8h.html" target="_top" xlink:title=" ">
<polygon fill="none" stroke="black" points="167.38,-126.5 167.38,-146.5 268.88,-146.5 268.88,-126.5 167.38,-126.5"/>
<text text-anchor="middle" x="218.12" y="-133" font-family="Helvetica,sans-Serif" font-size="10.00">include/Exception.h</text>
</a>
</g>
</g>
<!-- Node1&#45;&gt;Node2 -->
<g id="edge1" class="edge">
<title>Node1&#45;&gt;Node2</title>
<path fill="none" stroke="midnightblue" d="M317.67,-179.29C293.47,-169.13 260.67,-155.36 239.45,-146.46"/>
<polygon fill="midnightblue" stroke="midnightblue" points="316.21,-182.9 326.79,-183.54 318.92,-176.44 316.21,-182.9"/>
</g>
<!-- Node7 -->
<g id="node7" class="node">
<title>Node7</title>
<g id="a_node7"><a xlink:href="src_2_c_my_window_8cpp.html" target="_top" xlink:title=" ">
<polygon fill="none" stroke="black" points="244.12,-63.5 244.12,-83.5 350.12,-83.5 350.12,-63.5 244.12,-63.5"/>
<text text-anchor="middle" x="297.12" y="-70" font-family="Helvetica,sans-Serif" font-size="10.00">src/CMyWindow.cpp</text>
</a>
</g>
</g>
<!-- Node1&#45;&gt;Node7 -->
<g id="edge7" class="edge">
<title>Node1&#45;&gt;Node7</title>
<path fill="none" stroke="midnightblue" d="M334.25,-175.22C327.89,-167.1 320.86,-157.02 316.12,-147 305.89,-125.36 300.55,-97.37 298.36,-83.34"/>
<polygon fill="midnightblue" stroke="midnightblue" points="332.17,-177.21 341.22,-182.73 337.59,-172.78 332.17,-177.21"/>
</g>
<!-- Node8 -->
<g id="node8" class="node">
<title>Node8</title>
<g id="a_node8"><a xlink:href="src_2_utility_2_string_conversion_8cpp.html" target="_top" xlink:title=" ">
<polygon fill="none" stroke="black" points="325.25,-126.5 325.25,-146.5 477,-146.5 477,-126.5 325.25,-126.5"/>
<text text-anchor="middle" x="401.12" y="-133" font-family="Helvetica,sans-Serif" font-size="10.00">src/Utility/StringConversion.cpp</text>
</a>
</g>
</g>
<!-- Node1&#45;&gt;Node8 -->
<g id="edge8" class="edge">
<title>Node1&#45;&gt;Node8</title>
<path fill="none" stroke="midnightblue" d="M364.69,-176.03C373.96,-166.24 385.33,-154.2 392.89,-146.21"/>
<polygon fill="midnightblue" stroke="midnightblue" points="362.58,-173.24 358.25,-182.91 367.66,-178.04 362.58,-173.24"/>
</g>
<!-- Node9 -->
<g id="node9" class="node">
<title>Node9</title>
<g id="a_node9"><a xlink:href="test_2_utility_2_string_conversion_8cpp.html" target="_top" xlink:title=" ">
<polygon fill="none" stroke="black" points="494.75,-126.5 494.75,-146.5 649.5,-146.5 649.5,-126.5 494.75,-126.5"/>
<text text-anchor="middle" x="572.12" y="-133" font-family="Helvetica,sans-Serif" font-size="10.00">test/Utility/StringConversion.cpp</text>
</a>
</g>
</g>
<!-- Node1&#45;&gt;Node9 -->
<g id="edge9" class="edge">
<title>Node1&#45;&gt;Node9</title>
<path fill="none" stroke="midnightblue" d="M395.89,-180.97C437.55,-170.69 497.67,-155.86 535.82,-146.46"/>
<polygon fill="midnightblue" stroke="midnightblue" points="395.32,-177.75 386.45,-183.54 397,-184.54 395.32,-177.75"/>
</g>
<!-- Node3 -->
<g id="node3" class="node">
<title>Node3</title>
<g id="a_node3"><a xlink:href="_notification_icon_manager_8h.html" target="_top" xlink:title=" ">
<polygon fill="none" stroke="black" points="110.25,-57.5 110.25,-89.5 226,-89.5 226,-57.5 110.25,-57.5"/>
<text text-anchor="start" x="118.25" y="-76" font-family="Helvetica,sans-Serif" font-size="10.00">include/NotificationIcon</text>
<text text-anchor="middle" x="168.12" y="-64" font-family="Helvetica,sans-Serif" font-size="10.00">Manager.h</text>
</a>
</g>
</g>
<!-- Node2&#45;&gt;Node3 -->
<g id="edge2" class="edge">
<title>Node2&#45;&gt;Node3</title>
<path fill="none" stroke="midnightblue" d="M204.15,-118.45C196.65,-109.3 187.5,-98.14 180.3,-89.35"/>
<polygon fill="midnightblue" stroke="midnightblue" points="201.92,-120.25 210.96,-125.76 207.33,-115.81 201.92,-120.25"/>
</g>
<!-- Node2&#45;&gt;Node7 -->
<g id="edge6" class="edge">
<title>Node2&#45;&gt;Node7</title>
<path fill="none" stroke="midnightblue" d="M238.02,-120.14C253.04,-108.54 273.11,-93.05 285.57,-83.42"/>
<polygon fill="midnightblue" stroke="midnightblue" points="236.22,-117.88 230.44,-126.76 240.5,-123.42 236.22,-117.88"/>
</g>
<!-- Node4 -->
<g id="node4" class="node">
<title>Node4</title>
<g id="a_node4"><a xlink:href="_main_8cpp.html" target="_top" xlink:title=" ">
<polygon fill="none" stroke="black" points="0,-0.5 0,-20.5 72.25,-20.5 72.25,-0.5 0,-0.5"/>
<text text-anchor="middle" x="36.12" y="-7" font-family="Helvetica,sans-Serif" font-size="10.00">src/Main.cpp</text>
</a>
</g>
</g>
<!-- Node3&#45;&gt;Node4 -->
<g id="edge3" class="edge">
<title>Node3&#45;&gt;Node4</title>
<path fill="none" stroke="midnightblue" d="M126.01,-53.04C102.32,-42.09 73.87,-28.94 55.42,-20.42"/>
<polygon fill="midnightblue" stroke="midnightblue" points="124.29,-56.56 134.83,-57.58 127.22,-50.21 124.29,-56.56"/>
</g>
<!-- Node5 -->
<g id="node5" class="node">
<title>Node5</title>
<g id="a_node5"><a xlink:href="src_2_notification_icon_manager_8cpp.html" target="_top" xlink:title=" ">
<polygon fill="none" stroke="black" points="90.75,-0.5 90.75,-20.5 245.5,-20.5 245.5,-0.5 90.75,-0.5"/>
<text text-anchor="middle" x="168.12" y="-7" font-family="Helvetica,sans-Serif" font-size="10.00">src/NotificationIconManager.cpp</text>
</a>
</g>
</g>
<!-- Node3&#45;&gt;Node5 -->
<g id="edge4" class="edge">
<title>Node3&#45;&gt;Node5</title>
<path fill="none" stroke="midnightblue" d="M168.12,-46.77C168.12,-37.31 168.12,-27.24 168.12,-20.28"/>
<polygon fill="midnightblue" stroke="midnightblue" points="164.63,-46.73 168.12,-56.73 171.63,-46.73 164.63,-46.73"/>
</g>
<!-- Node6 -->
<g id="node6" class="node">
<title>Node6</title>
<g id="a_node6"><a xlink:href="test_2_notification_icon_manager_8cpp.html" target="_top" xlink:title=" ">
<polygon fill="none" stroke="black" points="263.25,-0.5 263.25,-20.5 421,-20.5 421,-0.5 263.25,-0.5"/>
<text text-anchor="middle" x="342.12" y="-7" font-family="Helvetica,sans-Serif" font-size="10.00">test/NotificationIconManager.cpp</text>
</a>
</g>
</g>
<!-- Node3&#45;&gt;Node6 -->
<g id="edge5" class="edge">
<title>Node3&#45;&gt;Node6</title>
<path fill="none" stroke="midnightblue" d="M220.73,-54.06C252.52,-42.91 291.61,-29.21 316.69,-20.42"/>
<polygon fill="midnightblue" stroke="midnightblue" points="219.97,-50.97 211.69,-57.58 222.29,-57.57 219.97,-50.97"/>
</g>
</g>
</svg>
