<?xml version="1.0" encoding="UTF-8" standalone="no"?>
<!DOCTYPE svg PUBLIC "-//W3C//DTD SVG 1.1//EN"
 "http://www.w3.org/Graphics/SVG/1.1/DTD/svg11.dtd">
<!-- Generated by graphviz version 8.1.0 (20230707.0739)
 -->
<!-- Title: include/Utility/StringConversion.h Pages: 1 -->
<svg width="419pt" height="212pt"
 viewBox="0.00 0.00 419.00 212.00" xmlns="http://www.w3.org/2000/svg" xmlns:xlink="http://www.w3.org/1999/xlink">
<g id="graph0" class="graph" transform="scale(1 1) rotate(0) translate(4 208)">
<title>include/Utility/StringConversion.h</title>
<!-- Node1 -->
<g id="node1" class="node">
<title>Node1</title>
<g id="a_node1"><a xlink:title=" ">
<polygon fill="#bfbfbf" stroke="black" points="151.88,-183.5 151.88,-203.5 310.38,-203.5 310.38,-183.5 151.88,-183.5"/>
<text text-anchor="middle" x="231.12" y="-190" font-family="Helvetica,sans-Serif" font-size="10.00">include/Utility/StringConversion.h</text>
</a>
</g>
</g>
<!-- Node2 -->
<g id="node2" class="node">
<title>Node2</title>
<g id="a_node2"><a xlink:href="_exception_8h.html" target="_top" xlink:title=" ">
<polygon fill="none" stroke="black" points="101.38,-126.5 101.38,-146.5 202.88,-146.5 202.88,-126.5 101.38,-126.5"/>
<text text-anchor="middle" x="152.12" y="-133" font-family="Helvetica,sans-Serif" font-size="10.00">include/Exception.h</text>
</a>
</g>
</g>
<!-- Node1&#45;&gt;Node2 -->
<g id="edge1" class="edge">
<title>Node1&#45;&gt;Node2</title>
<path fill="none" stroke="midnightblue" d="M209.74,-177.61C195.46,-167.67 177.15,-154.92 165.05,-146.5"/>
<polygon fill="midnightblue" stroke="midnightblue" points="207.23,-180.82 217.43,-183.66 211.23,-175.08 207.23,-180.82"/>
</g>
<!-- Node6 -->
<g id="node6" class="node">
<title>Node6</title>
<g id="a_node6"><a xlink:href="src_2_c_my_window_8cpp.html" target="_top" xlink:title=" ">
<polygon fill="none" stroke="black" points="178.12,-63.5 178.12,-83.5 284.12,-83.5 284.12,-63.5 178.12,-63.5"/>
<text text-anchor="middle" x="231.12" y="-70" font-family="Helvetica,sans-Serif" font-size="10.00">src/CMyWindow.cpp</text>
</a>
</g>
</g>
<!-- Node1&#45;&gt;Node6 -->
<g id="edge6" class="edge">
<title>Node1&#45;&gt;Node6</title>
<path fill="none" stroke="midnightblue" d="M231.12,-172.91C231.12,-147.01 231.12,-102.44 231.12,-83.47"/>
<polygon fill="midnightblue" stroke="midnightblue" points="227.63,-172.63 231.12,-182.63 234.63,-172.63 227.63,-172.63"/>
</g>
<!-- Node7 -->
<g id="node7" class="node">
<title>Node7</title>
<g id="a_node7"><a xlink:href="_string_conversion_8cpp.html" target="_top" xlink:title=" ">
<polygon fill="none" stroke="black" points="259.25,-126.5 259.25,-146.5 411,-146.5 411,-126.5 259.25,-126.5"/>
<text text-anchor="middle" x="335.12" y="-133" font-family="Helvetica,sans-Serif" font-size="10.00">src/Utility/StringConversion.cpp</text>
</a>
</g>
</g>
<!-- Node1&#45;&gt;Node7 -->
<g id="edge7" class="edge">
<title>Node1&#45;&gt;Node7</title>
<path fill="none" stroke="midnightblue" d="M257.42,-178.59C276.46,-168.52 301.65,-155.2 318.11,-146.5"/>
<polygon fill="midnightblue" stroke="midnightblue" points="256.04,-175.89 248.83,-183.66 259.31,-182.08 256.04,-175.89"/>
</g>
<!-- Node3 -->
<g id="node3" class="node">
<title>Node3</title>
<g id="a_node3"><a xlink:href="_notification_icon_manager_8h.html" target="_top" xlink:title=" ">
<polygon fill="none" stroke="black" points="44.25,-57.5 44.25,-89.5 160,-89.5 160,-57.5 44.25,-57.5"/>
<text text-anchor="start" x="52.25" y="-76" font-family="Helvetica,sans-Serif" font-size="10.00">include/NotificationIcon</text>
<text text-anchor="middle" x="102.12" y="-64" font-family="Helvetica,sans-Serif" font-size="10.00">Manager.h</text>
</a>
</g>
</g>
<!-- Node2&#45;&gt;Node3 -->
<g id="edge2" class="edge">
<title>Node2&#45;&gt;Node3</title>
<path fill="none" stroke="midnightblue" d="M138.15,-118.45C130.65,-109.3 121.5,-98.14 114.3,-89.35"/>
<polygon fill="midnightblue" stroke="midnightblue" points="135.92,-120.25 144.96,-125.76 141.33,-115.81 135.92,-120.25"/>
</g>
<!-- Node2&#45;&gt;Node6 -->
<g id="edge5" class="edge">
<title>Node2&#45;&gt;Node6</title>
<path fill="none" stroke="midnightblue" d="M172.02,-120.14C187.04,-108.54 207.11,-93.05 219.57,-83.42"/>
<polygon fill="midnightblue" stroke="midnightblue" points="170.22,-117.88 164.44,-126.76 174.5,-123.42 170.22,-117.88"/>
</g>
<!-- Node4 -->
<g id="node4" class="node">
<title>Node4</title>
<g id="a_node4"><a xlink:href="_main_8cpp.html" target="_top" xlink:title=" ">
<polygon fill="none" stroke="black" points="0,-0.5 0,-20.5 72.25,-20.5 72.25,-0.5 0,-0.5"/>
<text text-anchor="middle" x="36.12" y="-7" font-family="Helvetica,sans-Serif" font-size="10.00">src/Main.cpp</text>
</a>
</g>
</g>
<!-- Node3&#45;&gt;Node4 -->
<g id="edge3" class="edge">
<title>Node3&#45;&gt;Node4</title>
<path fill="none" stroke="midnightblue" d="M78.28,-50.46C66.99,-40.03 54.14,-28.15 45.63,-20.28"/>
<polygon fill="midnightblue" stroke="midnightblue" points="75.43,-52.52 85.15,-56.73 80.18,-47.38 75.43,-52.52"/>
</g>
<!-- Node5 -->
<g id="node5" class="node">
<title>Node5</title>
<g id="a_node5"><a xlink:href="_notification_icon_manager_8cpp.html" target="_top" xlink:title=" ">
<polygon fill="none" stroke="black" points="90.75,-0.5 90.75,-20.5 245.5,-20.5 245.5,-0.5 90.75,-0.5"/>
<text text-anchor="middle" x="168.12" y="-7" font-family="Helvetica,sans-Serif" font-size="10.00">src/NotificationIconManager.cpp</text>
</a>
</g>
</g>
<!-- Node3&#45;&gt;Node5 -->
<g id="edge4" class="edge">
<title>Node3&#45;&gt;Node5</title>
<path fill="none" stroke="midnightblue" d="M125.97,-50.46C137.26,-40.03 150.11,-28.15 158.62,-20.28"/>
<polygon fill="midnightblue" stroke="midnightblue" points="124.07,-47.38 119.1,-56.73 128.82,-52.52 124.07,-47.38"/>
</g>
</g>
</svg>
