<?xml version="1.0" encoding="UTF-8" standalone="no"?>
<!DOCTYPE svg PUBLIC "-//W3C//DTD SVG 1.1//EN"
 "http://www.w3.org/Graphics/SVG/1.1/DTD/svg11.dtd">
<!-- Generated by graphviz version 8.1.0 (20230707.0739)
 -->
<!-- Title: include/Utility/StringConversion.h Pages: 1 -->
<svg width="175pt" height="86pt"
 viewBox="0.00 0.00 174.75 86.00" xmlns="http://www.w3.org/2000/svg" xmlns:xlink="http://www.w3.org/1999/xlink">
<g id="graph0" class="graph" transform="scale(1 1) rotate(0) translate(4 82)">
<title>include/Utility/StringConversion.h</title>
<!-- Node1 -->
<g id="node1" class="node">
<title>Node1</title>
<g id="a_node1"><a xlink:title=" ">
<polygon fill="#bfbfbf" stroke="black" points="8.25,-57.5 8.25,-77.5 166.75,-77.5 166.75,-57.5 8.25,-57.5"/>
<text text-anchor="middle" x="87.5" y="-64" font-family="Helvetica,sans-Serif" font-size="10.00">include/Utility/StringConversion.h</text>
</a>
</g>
</g>
<!-- Node2 -->
<g id="node2" class="node">
<title>Node2</title>
<g id="a_node2"><a xlink:title=" ">
<polygon fill="none" stroke="#bfbfbf" points="0,-0.5 0,-20.5 49,-20.5 49,-0.5 0,-0.5"/>
<text text-anchor="middle" x="24.5" y="-7" font-family="Helvetica,sans-Serif" font-size="10.00">codecvt</text>
</a>
</g>
</g>
<!-- Node1&#45;&gt;Node2 -->
<g id="edge1" class="edge">
<title>Node1&#45;&gt;Node2</title>
<path fill="none" stroke="midnightblue" d="M77.38,-57.66C68.06,-49.53 54.03,-37.28 42.76,-27.44"/>
<polygon fill="midnightblue" stroke="midnightblue" points="45.64,-24.44 35.81,-20.5 41.04,-29.71 45.64,-24.44"/>
</g>
<!-- Node3 -->
<g id="node3" class="node">
<title>Node3</title>
<g id="a_node3"><a xlink:title=" ">
<polygon fill="none" stroke="#bfbfbf" points="66.75,-0.5 66.75,-20.5 108.25,-20.5 108.25,-0.5 66.75,-0.5"/>
<text text-anchor="middle" x="87.5" y="-7" font-family="Helvetica,sans-Serif" font-size="10.00">locale</text>
</a>
</g>
</g>
<!-- Node1&#45;&gt;Node3 -->
<g id="edge2" class="edge">
<title>Node1&#45;&gt;Node3</title>
<path fill="none" stroke="midnightblue" d="M87.5,-57.91C87.5,-50.76 87.5,-40.32 87.5,-31.15"/>
<polygon fill="midnightblue" stroke="midnightblue" points="91,-31.21 87.5,-21.21 84,-31.21 91,-31.21"/>
</g>
<!-- Node4 -->
<g id="node4" class="node">
<title>Node4</title>
<g id="a_node4"><a xlink:title=" ">
<polygon fill="none" stroke="#bfbfbf" points="126.5,-0.5 126.5,-20.5 166.5,-20.5 166.5,-0.5 126.5,-0.5"/>
<text text-anchor="middle" x="146.5" y="-7" font-family="Helvetica,sans-Serif" font-size="10.00">string</text>
</a>
</g>
</g>
<!-- Node1&#45;&gt;Node4 -->
<g id="edge3" class="edge">
<title>Node1&#45;&gt;Node4</title>
<path fill="none" stroke="midnightblue" d="M96.98,-57.66C105.62,-49.61 118.59,-37.52 129.09,-27.73"/>
<polygon fill="midnightblue" stroke="midnightblue" points="130.92,-30.88 135.85,-21.5 126.15,-25.76 130.92,-30.88"/>
</g>
</g>
</svg>
