<?xml version="1.0" encoding="UTF-8" standalone="no"?>
<!DOCTYPE svg PUBLIC "-//W3C//DTD SVG 1.1//EN"
 "http://www.w3.org/Graphics/SVG/1.1/DTD/svg11.dtd">
<!-- Generated by graphviz version 8.1.0 (20230707.0739)
 -->
<!-- Title: Exception::GetFullMessage Pages: 1 -->
<svg width="299pt" height="68pt"
 viewBox="0.00 0.00 298.75 68.00" xmlns="http://www.w3.org/2000/svg" xmlns:xlink="http://www.w3.org/1999/xlink">
<g id="graph0" class="graph" transform="scale(1 1) rotate(0) translate(4 64)">
<title>Exception::GetFullMessage</title>
<!-- Node1 -->
<g id="node1" class="node">
<title>Node1</title>
<g id="a_node1"><a xlink:title=" ">
<polygon fill="#bfbfbf" stroke="black" points="0,-19.5 0,-39.5 136.75,-39.5 136.75,-19.5 0,-19.5"/>
<text text-anchor="middle" x="68.38" y="-26" font-family="Helvetica,sans-Serif" font-size="10.00">Exception::GetFullMessage</text>
</a>
</g>
</g>
<!-- Node2 -->
<g id="node2" class="node">
<title>Node2</title>
<g id="a_node2"><a xlink:href="class_exception.html#acb5c9464ffc8a86bd6ea9e02c3702327" target="_top" xlink:title=" ">
<polygon fill="none" stroke="black" points="172.75,-39.5 172.75,-59.5 290.75,-59.5 290.75,-39.5 172.75,-39.5"/>
<text text-anchor="middle" x="231.75" y="-46" font-family="Helvetica,sans-Serif" font-size="10.00">Exception::GetLocation</text>
</a>
</g>
</g>
<!-- Node1&#45;&gt;Node2 -->
<g id="edge1" class="edge">
<title>Node1&#45;&gt;Node2</title>
<path fill="none" stroke="midnightblue" d="M136.41,-37.81C144.93,-38.86 153.67,-39.95 162.22,-41.01"/>
<polygon fill="midnightblue" stroke="midnightblue" points="161.56,-44.58 171.91,-42.33 162.42,-37.63 161.56,-44.58"/>
</g>
<!-- Node3 -->
<g id="node3" class="node">
<title>Node3</title>
<g id="a_node3"><a xlink:href="class_exception.html#ac17b8d732b73373bb946215795775047" target="_top" xlink:title=" ">
<polygon fill="none" stroke="black" points="181,-0.5 181,-20.5 282.5,-20.5 282.5,-0.5 181,-0.5"/>
<text text-anchor="middle" x="231.75" y="-7" font-family="Helvetica,sans-Serif" font-size="10.00">Exception::GetNote</text>
</a>
</g>
</g>
<!-- Node1&#45;&gt;Node3 -->
<g id="edge2" class="edge">
<title>Node1&#45;&gt;Node3</title>
<path fill="none" stroke="midnightblue" d="M136.41,-21.61C147.71,-20.28 159.38,-18.9 170.5,-17.59"/>
<polygon fill="midnightblue" stroke="midnightblue" points="170.87,-20.96 180.39,-16.31 170.05,-14 170.87,-20.96"/>
</g>
</g>
</svg>
