<?xml version="1.0" encoding="UTF-8" standalone="no"?>
<!DOCTYPE svg PUBLIC "-//W3C//DTD SVG 1.1//EN"
 "http://www.w3.org/Graphics/SVG/1.1/DTD/svg11.dtd">
<!-- Generated by graphviz version 8.1.0 (20230707.0739)
 -->
<!-- Title: clang&#45;tidy&#45;cache.ClangTidyLocalCache.get_cache_data Pages: 1 -->
<svg width="316pt" height="92pt"
 viewBox="0.00 0.00 316.00 92.00" xmlns="http://www.w3.org/2000/svg" xmlns:xlink="http://www.w3.org/1999/xlink">
<g id="graph0" class="graph" transform="scale(1 1) rotate(0) translate(4 88)">
<title>clang&#45;tidy&#45;cache.ClangTidyLocalCache.get_cache_data</title>
<!-- Node1 -->
<g id="node1" class="node">
<title>Node1</title>
<g id="a_node1"><a xlink:title=" ">
<polygon fill="#bfbfbf" stroke="black" points="0,-25.5 0,-57.5 139,-57.5 139,-25.5 0,-25.5"/>
<text text-anchor="start" x="8" y="-44" font-family="Helvetica,sans-Serif" font-size="10.00">clang&#45;tidy&#45;cache.ClangTidy</text>
<text text-anchor="middle" x="69.5" y="-32" font-family="Helvetica,sans-Serif" font-size="10.00">LocalCache.get_cache_data</text>
</a>
</g>
</g>
<!-- Node2 -->
<g id="node2" class="node">
<title>Node2</title>
<g id="a_node2"><a xlink:href="classclang-tidy-cache_1_1_clang_tidy_local_cache.html#aac7fa44ca39c4e61f7167f9be8304019" target="_top" xlink:title=" ">
<polygon fill="none" stroke="black" points="175,-51.5 175,-83.5 308,-83.5 308,-51.5 175,-51.5"/>
<text text-anchor="start" x="183" y="-70" font-family="Helvetica,sans-Serif" font-size="10.00">clang&#45;tidy&#45;cache.ClangTidy</text>
<text text-anchor="middle" x="241.5" y="-58" font-family="Helvetica,sans-Serif" font-size="10.00">LocalCache._make_path</text>
</a>
</g>
</g>
<!-- Node1&#45;&gt;Node2 -->
<g id="edge1" class="edge">
<title>Node1&#45;&gt;Node2</title>
<path fill="none" stroke="midnightblue" d="M138.67,-51.93C147.11,-53.22 155.78,-54.54 164.34,-55.85"/>
<polygon fill="midnightblue" stroke="midnightblue" points="163.67,-59.44 174.08,-57.49 164.73,-52.52 163.67,-59.44"/>
</g>
<!-- Node3 -->
<g id="node3" class="node">
<title>Node3</title>
<g id="a_node3"><a xlink:href="classclang-tidy-cache_1_1_clang_tidy_s3_cache.html#a7d5679d61d0a09787382dd1b2541b0b7" target="_top" xlink:title=" ">
<polygon fill="none" stroke="black" points="175,-0.5 175,-32.5 308,-32.5 308,-0.5 175,-0.5"/>
<text text-anchor="start" x="183" y="-19" font-family="Helvetica,sans-Serif" font-size="10.00">clang&#45;tidy&#45;cache.ClangTidy</text>
<text text-anchor="middle" x="241.5" y="-7" font-family="Helvetica,sans-Serif" font-size="10.00">S3Cache._make_path</text>
</a>
</g>
</g>
<!-- Node1&#45;&gt;Node3 -->
<g id="edge2" class="edge">
<title>Node1&#45;&gt;Node3</title>
<path fill="none" stroke="midnightblue" d="M138.67,-31.48C147.11,-30.23 155.78,-28.96 164.34,-27.7"/>
<polygon fill="midnightblue" stroke="midnightblue" points="164.7,-31.04 174.08,-26.12 163.68,-24.11 164.7,-31.04"/>
</g>
</g>
</svg>
