<?xml version="1.0" encoding="UTF-8" standalone="no"?>
<!DOCTYPE svg PUBLIC "-//W3C//DTD SVG 1.1//EN"
 "http://www.w3.org/Graphics/SVG/1.1/DTD/svg11.dtd">
<!-- Generated by graphviz version 8.1.0 (20230707.0739)
 -->
<!-- Title: Exception::GetNote Pages: 1 -->
<svg width="481pt" height="49pt"
 viewBox="0.00 0.00 480.75 49.00" xmlns="http://www.w3.org/2000/svg" xmlns:xlink="http://www.w3.org/1999/xlink">
<g id="graph0" class="graph" transform="scale(1 1) rotate(0) translate(4 45)">
<title>Exception::GetNote</title>
<!-- Node1 -->
<g id="node1" class="node">
<title>Node1</title>
<g id="a_node1"><a xlink:title=" ">
<polygon fill="#bfbfbf" stroke="black" points="371.25,-0.5 371.25,-20.5 472.75,-20.5 472.75,-0.5 371.25,-0.5"/>
<text text-anchor="middle" x="422" y="-7" font-family="Helvetica,sans-Serif" font-size="10.00">Exception::GetNote</text>
</a>
</g>
</g>
<!-- Node2 -->
<g id="node2" class="node">
<title>Node2</title>
<g id="a_node2"><a xlink:href="class_exception.html#a7e728ac9016ea07086fd3d90a936821d" target="_top" xlink:title=" ">
<polygon fill="none" stroke="black" points="198.5,-20.5 198.5,-40.5 335.25,-40.5 335.25,-20.5 198.5,-20.5"/>
<text text-anchor="middle" x="266.88" y="-27" font-family="Helvetica,sans-Serif" font-size="10.00">Exception::GetFullMessage</text>
</a>
</g>
</g>
<!-- Node1&#45;&gt;Node2 -->
<g id="edge1" class="edge">
<title>Node1&#45;&gt;Node2</title>
<path fill="none" stroke="midnightblue" d="M360.52,-18.4C352.2,-19.49 343.6,-20.61 335.16,-21.71"/>
<polygon fill="midnightblue" stroke="midnightblue" points="360.82,-21.76 370.28,-16.99 359.92,-14.82 360.82,-21.76"/>
</g>
<!-- Node3 -->
<g id="node3" class="node">
<title>Node3</title>
<g id="a_node3"><a xlink:href="_main_8cpp.html#a6a0b90e2ff0aef80af0cadf613018f70" target="_top" xlink:title=" ">
<polygon fill="none" stroke="black" points="73,-0.5 73,-20.5 162.5,-20.5 162.5,-0.5 73,-0.5"/>
<text text-anchor="middle" x="117.75" y="-7" font-family="Helvetica,sans-Serif" font-size="10.00">HandleException</text>
</a>
</g>
</g>
<!-- Node1&#45;&gt;Node3 -->
<g id="edge4" class="edge">
<title>Node1&#45;&gt;Node3</title>
<path fill="none" stroke="midnightblue" d="M360.48,-10.5C301.91,-10.5 214.55,-10.5 162.46,-10.5"/>
<polygon fill="midnightblue" stroke="midnightblue" points="360.43,-14 370.43,-10.5 360.43,-7 360.43,-14"/>
</g>
<!-- Node2&#45;&gt;Node3 -->
<g id="edge2" class="edge">
<title>Node2&#45;&gt;Node3</title>
<path fill="none" stroke="midnightblue" d="M187.96,-19.91C179.11,-18.71 170.34,-17.51 162.17,-16.4"/>
<polygon fill="midnightblue" stroke="midnightblue" points="187.39,-23.5 197.77,-21.38 188.33,-16.56 187.39,-23.5"/>
</g>
<!-- Node4 -->
<g id="node4" class="node">
<title>Node4</title>
<g id="a_node4"><a xlink:href="_main_8cpp.html#ae66f6b31b5ad750f1fe042a706a4e3d4" target="_top" xlink:title=" ">
<polygon fill="none" stroke="black" points="0,-0.5 0,-20.5 37,-20.5 37,-0.5 0,-0.5"/>
<text text-anchor="middle" x="18.5" y="-7" font-family="Helvetica,sans-Serif" font-size="10.00">main</text>
</a>
</g>
</g>
<!-- Node3&#45;&gt;Node4 -->
<g id="edge3" class="edge">
<title>Node3&#45;&gt;Node4</title>
<path fill="none" stroke="midnightblue" d="M62.29,-10.5C53,-10.5 43.99,-10.5 36.66,-10.5"/>
<polygon fill="midnightblue" stroke="midnightblue" points="62.24,-14 72.24,-10.5 62.24,-7 62.24,-14"/>
</g>
</g>
</svg>
