<?xml version="1.0" encoding="UTF-8" standalone="no"?>
<!DOCTYPE svg PUBLIC "-//W3C//DTD SVG 1.1//EN"
 "http://www.w3.org/Graphics/SVG/1.1/DTD/svg11.dtd">
<!-- Generated by graphviz version 8.1.0 (20230707.0739)
 -->
<!-- Title: clang&#45;tidy&#45;cache.ClangTidyLocalCache.store_in_cache Pages: 1 -->
<svg width="313pt" height="143pt"
 viewBox="0.00 0.00 313.00 143.00" xmlns="http://www.w3.org/2000/svg" xmlns:xlink="http://www.w3.org/1999/xlink">
<g id="graph0" class="graph" transform="scale(1 1) rotate(0) translate(4 139)">
<title>clang&#45;tidy&#45;cache.ClangTidyLocalCache.store_in_cache</title>
<!-- Node1 -->
<g id="node1" class="node">
<title>Node1</title>
<g id="a_node1"><a xlink:title=" ">
<polygon fill="#bfbfbf" stroke="black" points="0,-51.5 0,-83.5 136,-83.5 136,-51.5 0,-51.5"/>
<text text-anchor="start" x="8" y="-70" font-family="Helvetica,sans-Serif" font-size="10.00">clang&#45;tidy&#45;cache.ClangTidy</text>
<text text-anchor="middle" x="68" y="-58" font-family="Helvetica,sans-Serif" font-size="10.00">LocalCache.store_in_cache</text>
</a>
</g>
</g>
<!-- Node2 -->
<g id="node2" class="node">
<title>Node2</title>
<g id="a_node2"><a xlink:href="classclang-tidy-cache_1_1_clang_tidy_local_cache.html#aac7fa44ca39c4e61f7167f9be8304019" target="_top" xlink:title=" ">
<polygon fill="none" stroke="black" points="172,-102.5 172,-134.5 305,-134.5 305,-102.5 172,-102.5"/>
<text text-anchor="start" x="180" y="-121" font-family="Helvetica,sans-Serif" font-size="10.00">clang&#45;tidy&#45;cache.ClangTidy</text>
<text text-anchor="middle" x="238.5" y="-109" font-family="Helvetica,sans-Serif" font-size="10.00">LocalCache._make_path</text>
</a>
</g>
</g>
<!-- Node1&#45;&gt;Node2 -->
<g id="edge1" class="edge">
<title>Node1&#45;&gt;Node2</title>
<path fill="none" stroke="midnightblue" d="M121.85,-83.5C138.63,-88.58 157.35,-94.24 174.76,-99.51"/>
<polygon fill="midnightblue" stroke="midnightblue" points="173.25,-103.01 183.84,-102.56 175.28,-96.31 173.25,-103.01"/>
</g>
<!-- Node3 -->
<g id="node3" class="node">
<title>Node3</title>
<g id="a_node3"><a xlink:href="classclang-tidy-cache_1_1_clang_tidy_s3_cache.html#a7d5679d61d0a09787382dd1b2541b0b7" target="_top" xlink:title=" ">
<polygon fill="none" stroke="black" points="172,-51.5 172,-83.5 305,-83.5 305,-51.5 172,-51.5"/>
<text text-anchor="start" x="180" y="-70" font-family="Helvetica,sans-Serif" font-size="10.00">clang&#45;tidy&#45;cache.ClangTidy</text>
<text text-anchor="middle" x="238.5" y="-58" font-family="Helvetica,sans-Serif" font-size="10.00">S3Cache._make_path</text>
</a>
</g>
</g>
<!-- Node1&#45;&gt;Node3 -->
<g id="edge2" class="edge">
<title>Node1&#45;&gt;Node3</title>
<path fill="none" stroke="midnightblue" d="M135.6,-67.5C144.07,-67.5 152.79,-67.5 161.4,-67.5"/>
<polygon fill="midnightblue" stroke="midnightblue" points="161.21,-71 171.21,-67.5 161.21,-64 161.21,-71"/>
</g>
<!-- Node4 -->
<g id="node4" class="node">
<title>Node4</title>
<g id="a_node4"><a xlink:href="classclang-tidy-cache_1_1_clang_tidy_local_cache.html#a2f54b13da9f3359de1b79b2e7d1e4102" target="_top" xlink:title=" ">
<polygon fill="none" stroke="black" points="172,-0.5 172,-32.5 305,-32.5 305,-0.5 172,-0.5"/>
<text text-anchor="start" x="180" y="-19" font-family="Helvetica,sans-Serif" font-size="10.00">clang&#45;tidy&#45;cache.ClangTidy</text>
<text text-anchor="middle" x="238.5" y="-7" font-family="Helvetica,sans-Serif" font-size="10.00">LocalCache._mkdir_p</text>
</a>
</g>
</g>
<!-- Node1&#45;&gt;Node4 -->
<g id="edge3" class="edge">
<title>Node1&#45;&gt;Node4</title>
<path fill="none" stroke="midnightblue" d="M121.85,-51.5C138.63,-46.42 157.35,-40.76 174.76,-35.49"/>
<polygon fill="midnightblue" stroke="midnightblue" points="175.28,-38.69 183.84,-32.44 173.25,-31.99 175.28,-38.69"/>
</g>
</g>
</svg>
