<?xml version="1.0" encoding="UTF-8" standalone="no"?>
<!DOCTYPE svg PUBLIC "-//W3C//DTD SVG 1.1//EN"
 "http://www.w3.org/Graphics/SVG/1.1/DTD/svg11.dtd">
<!-- Generated by graphviz version 8.1.0 (20230707.0739)
 -->
<!-- Title: NotificationIconManager::AddNotificationIcon Pages: 1 -->
<svg width="215pt" height="68pt"
 viewBox="0.00 0.00 214.75 68.00" xmlns="http://www.w3.org/2000/svg" xmlns:xlink="http://www.w3.org/1999/xlink">
<g id="graph0" class="graph" transform="scale(1 1) rotate(0) translate(4 64)">
<title>NotificationIconManager::AddNotificationIcon</title>
<!-- Node1 -->
<g id="node1" class="node">
<title>Node1</title>
<g id="a_node1"><a xlink:title=" ">
<polygon fill="#bfbfbf" stroke="black" points="87.25,-13.5 87.25,-45.5 206.75,-45.5 206.75,-13.5 87.25,-13.5"/>
<text text-anchor="start" x="95.25" y="-32" font-family="Helvetica,sans-Serif" font-size="10.00">NotificationIconManager</text>
<text text-anchor="middle" x="147" y="-20" font-family="Helvetica,sans-Serif" font-size="10.00">::AddNotificationIcon</text>
</a>
</g>
</g>
<!-- Node2 -->
<g id="node2" class="node">
<title>Node2</title>
<g id="a_node2"><a xlink:href="_main_8cpp.html#ae66f6b31b5ad750f1fe042a706a4e3d4" target="_top" xlink:title=" ">
<polygon fill="none" stroke="black" points="7.12,-39.5 7.12,-59.5 44.12,-59.5 44.12,-39.5 7.12,-39.5"/>
<text text-anchor="middle" x="25.62" y="-46" font-family="Helvetica,sans-Serif" font-size="10.00">main</text>
</a>
</g>
</g>
<!-- Node1&#45;&gt;Node2 -->
<g id="edge1" class="edge">
<title>Node1&#45;&gt;Node2</title>
<path fill="none" stroke="midnightblue" d="M76.66,-41.12C64.58,-43.14 53.04,-45.07 44.09,-46.57"/>
<polygon fill="midnightblue" stroke="midnightblue" points="77.08,-44.43 86.36,-39.32 75.92,-37.52 77.08,-44.43"/>
</g>
<!-- Node3 -->
<g id="node3" class="node">
<title>Node3</title>
<g id="a_node3"><a xlink:href="test_2_notification_icon_manager_8cpp.html#a6ffc8bba1b786d4779779d48b88eebb2" target="_top" xlink:title=" ">
<polygon fill="none" stroke="black" points="0,-0.5 0,-20.5 51.25,-20.5 51.25,-0.5 0,-0.5"/>
<text text-anchor="middle" x="25.62" y="-7" font-family="Helvetica,sans-Serif" font-size="10.00">TEST_F</text>
</a>
</g>
</g>
<!-- Node1&#45;&gt;Node3 -->
<g id="edge2" class="edge">
<title>Node1&#45;&gt;Node3</title>
<path fill="none" stroke="midnightblue" d="M76.55,-18.45C67.42,-16.99 58.61,-15.59 50.99,-14.38"/>
<polygon fill="midnightblue" stroke="midnightblue" points="75.94,-22.05 86.36,-20.17 77.04,-15.14 75.94,-22.05"/>
</g>
</g>
</svg>
