<?xml version="1.0" encoding="UTF-8" standalone="no"?>
<!DOCTYPE svg PUBLIC "-//W3C//DTD SVG 1.1//EN"
 "http://www.w3.org/Graphics/SVG/1.1/DTD/svg11.dtd">
<!-- Generated by graphviz version 8.1.0 (20230707.0739)
 -->
<!-- Title: Exception::GetTitle Pages: 1 -->
<svg width="306pt" height="29pt"
 viewBox="0.00 0.00 305.75 29.00" xmlns="http://www.w3.org/2000/svg" xmlns:xlink="http://www.w3.org/1999/xlink">
<g id="graph0" class="graph" transform="scale(1 1) rotate(0) translate(4 25)">
<title>Exception::GetTitle</title>
<!-- Node1 -->
<g id="node1" class="node">
<title>Node1</title>
<g id="a_node1"><a xlink:title=" ">
<polygon fill="#bfbfbf" stroke="black" points="198.5,-0.5 198.5,-20.5 297.75,-20.5 297.75,-0.5 198.5,-0.5"/>
<text text-anchor="middle" x="248.12" y="-7" font-family="Helvetica,sans-Serif" font-size="10.00">Exception::GetTitle</text>
</a>
</g>
</g>
<!-- Node2 -->
<g id="node2" class="node">
<title>Node2</title>
<g id="a_node2"><a xlink:href="_main_8cpp.html#a6a0b90e2ff0aef80af0cadf613018f70" target="_top" xlink:title=" ">
<polygon fill="none" stroke="black" points="73,-0.5 73,-20.5 162.5,-20.5 162.5,-0.5 73,-0.5"/>
<text text-anchor="middle" x="117.75" y="-7" font-family="Helvetica,sans-Serif" font-size="10.00">HandleException</text>
</a>
</g>
</g>
<!-- Node1&#45;&gt;Node2 -->
<g id="edge1" class="edge">
<title>Node1&#45;&gt;Node2</title>
<path fill="none" stroke="midnightblue" d="M187.81,-10.5C179.21,-10.5 170.5,-10.5 162.29,-10.5"/>
<polygon fill="midnightblue" stroke="midnightblue" points="187.59,-14 197.59,-10.5 187.59,-7 187.59,-14"/>
</g>
<!-- Node3 -->
<g id="node3" class="node">
<title>Node3</title>
<g id="a_node3"><a xlink:href="_main_8cpp.html#ae66f6b31b5ad750f1fe042a706a4e3d4" target="_top" xlink:title=" ">
<polygon fill="none" stroke="black" points="0,-0.5 0,-20.5 37,-20.5 37,-0.5 0,-0.5"/>
<text text-anchor="middle" x="18.5" y="-7" font-family="Helvetica,sans-Serif" font-size="10.00">main</text>
</a>
</g>
</g>
<!-- Node2&#45;&gt;Node3 -->
<g id="edge2" class="edge">
<title>Node2&#45;&gt;Node3</title>
<path fill="none" stroke="midnightblue" d="M62.29,-10.5C53,-10.5 43.99,-10.5 36.66,-10.5"/>
<polygon fill="midnightblue" stroke="midnightblue" points="62.24,-14 72.24,-10.5 62.24,-7 62.24,-14"/>
</g>
</g>
</svg>
