<?xml version="1.0" encoding="UTF-8" standalone="no"?>
<!DOCTYPE svg PUBLIC "-//W3C//DTD SVG 1.1//EN"
 "http://www.w3.org/Graphics/SVG/1.1/DTD/svg11.dtd">
<!-- Generated by graphviz version 8.1.0 (20230707.0739)
 -->
<!-- Title: NotificationIconManager::RemoveNotificationIcon Pages: 1 -->
<svg width="298pt" height="80pt"
 viewBox="0.00 0.00 298.00 80.00" xmlns="http://www.w3.org/2000/svg" xmlns:xlink="http://www.w3.org/1999/xlink">
<g id="graph0" class="graph" transform="scale(1 1) rotate(0) translate(4 76)">
<title>NotificationIconManager::RemoveNotificationIcon</title>
<!-- Node1 -->
<g id="node1" class="node">
<title>Node1</title>
<g id="a_node1"><a xlink:title=" ">
<polygon fill="#bfbfbf" stroke="black" points="167.5,-22.5 167.5,-54.5 290,-54.5 290,-22.5 167.5,-22.5"/>
<text text-anchor="start" x="175.5" y="-41" font-family="Helvetica,sans-Serif" font-size="10.00">NotificationIconManager</text>
<text text-anchor="middle" x="228.75" y="-29" font-family="Helvetica,sans-Serif" font-size="10.00">::RemoveNotificationIcon</text>
</a>
</g>
</g>
<!-- Node2 -->
<g id="node2" class="node">
<title>Node2</title>
<g id="a_node2"><a xlink:href="_main_8cpp.html#ae66f6b31b5ad750f1fe042a706a4e3d4" target="_top" xlink:title=" ">
<polygon fill="none" stroke="black" points="47.25,-51.5 47.25,-71.5 84.25,-71.5 84.25,-51.5 47.25,-51.5"/>
<text text-anchor="middle" x="65.75" y="-58" font-family="Helvetica,sans-Serif" font-size="10.00">main</text>
</a>
</g>
</g>
<!-- Node1&#45;&gt;Node2 -->
<g id="edge1" class="edge">
<title>Node1&#45;&gt;Node2</title>
<path fill="none" stroke="midnightblue" d="M157.16,-48.58C130.18,-52.44 101.7,-56.51 84.07,-59.03"/>
<polygon fill="midnightblue" stroke="midnightblue" points="157.4,-51.94 166.8,-47.06 156.41,-45.01 157.4,-51.94"/>
</g>
<!-- Node3 -->
<g id="node3" class="node">
<title>Node3</title>
<g id="a_node3"><a xlink:href="class_notification_icon_manager.html#ace7dabad40a287938ff557442129418f" target="_top" xlink:title=" ">
<polygon fill="none" stroke="black" points="0,-0.5 0,-32.5 131.5,-32.5 131.5,-0.5 0,-0.5"/>
<text text-anchor="start" x="8" y="-19" font-family="Helvetica,sans-Serif" font-size="10.00">NotificationIconManager</text>
<text text-anchor="middle" x="65.75" y="-7" font-family="Helvetica,sans-Serif" font-size="10.00">::~NotificationIconManager</text>
</a>
</g>
</g>
<!-- Node1&#45;&gt;Node3 -->
<g id="edge2" class="edge">
<title>Node1&#45;&gt;Node3</title>
<path fill="none" stroke="midnightblue" d="M157.07,-28.84C148.51,-27.67 139.8,-26.48 131.34,-25.33"/>
<polygon fill="midnightblue" stroke="midnightblue" points="156.42,-32.42 166.8,-30.31 157.37,-25.49 156.42,-32.42"/>
</g>
</g>
</svg>
