<?xml version="1.0" encoding="UTF-8" standalone="no"?>
<!DOCTYPE svg PUBLIC "-//W3C//DTD SVG 1.1//EN"
 "http://www.w3.org/Graphics/SVG/1.1/DTD/svg11.dtd">
<!-- Generated by graphviz version 8.1.0 (20230707.0739)
 -->
<!-- Title: NotificationIconManager::RemoveNotificationIcon Pages: 1 -->
<svg width="298pt" height="119pt"
 viewBox="0.00 0.00 298.00 119.00" xmlns="http://www.w3.org/2000/svg" xmlns:xlink="http://www.w3.org/1999/xlink">
<g id="graph0" class="graph" transform="scale(1 1) rotate(0) translate(4 115)">
<title>NotificationIconManager::RemoveNotificationIcon</title>
<!-- Node1 -->
<g id="node1" class="node">
<title>Node1</title>
<g id="a_node1"><a xlink:title=" ">
<polygon fill="#bfbfbf" stroke="black" points="167.5,-45.5 167.5,-77.5 290,-77.5 290,-45.5 167.5,-45.5"/>
<text text-anchor="start" x="175.5" y="-64" font-family="Helvetica,sans-Serif" font-size="10.00">NotificationIconManager</text>
<text text-anchor="middle" x="228.75" y="-52" font-family="Helvetica,sans-Serif" font-size="10.00">::RemoveNotificationIcon</text>
</a>
</g>
</g>
<!-- Node2 -->
<g id="node2" class="node">
<title>Node2</title>
<g id="a_node2"><a xlink:href="_main_8cpp.html#ae66f6b31b5ad750f1fe042a706a4e3d4" target="_top" xlink:title=" ">
<polygon fill="none" stroke="black" points="47.25,-90.5 47.25,-110.5 84.25,-110.5 84.25,-90.5 47.25,-90.5"/>
<text text-anchor="middle" x="65.75" y="-97" font-family="Helvetica,sans-Serif" font-size="10.00">main</text>
</a>
</g>
</g>
<!-- Node1&#45;&gt;Node2 -->
<g id="edge1" class="edge">
<title>Node1&#45;&gt;Node2</title>
<path fill="none" stroke="midnightblue" d="M157.16,-78.6C130.18,-85.13 101.7,-92.03 84.07,-96.3"/>
<polygon fill="midnightblue" stroke="midnightblue" points="157.9,-81.78 166.8,-76.02 156.26,-74.97 157.9,-81.78"/>
</g>
<!-- Node3 -->
<g id="node3" class="node">
<title>Node3</title>
<g id="a_node3"><a xlink:href="test_2_notification_icon_manager_8cpp.html#a6ffc8bba1b786d4779779d48b88eebb2" target="_top" xlink:title=" ">
<polygon fill="none" stroke="black" points="40.12,-51.5 40.12,-71.5 91.38,-71.5 91.38,-51.5 40.12,-51.5"/>
<text text-anchor="middle" x="65.75" y="-58" font-family="Helvetica,sans-Serif" font-size="10.00">TEST_F</text>
</a>
</g>
</g>
<!-- Node1&#45;&gt;Node3 -->
<g id="edge2" class="edge">
<title>Node1&#45;&gt;Node3</title>
<path fill="none" stroke="midnightblue" d="M157.04,-61.5C133.39,-61.5 108.6,-61.5 90.99,-61.5"/>
<polygon fill="midnightblue" stroke="midnightblue" points="156.8,-65 166.8,-61.5 156.8,-58 156.8,-65"/>
</g>
<!-- Node4 -->
<g id="node4" class="node">
<title>Node4</title>
<g id="a_node4"><a xlink:href="class_notification_icon_manager.html#ace7dabad40a287938ff557442129418f" target="_top" xlink:title=" ">
<polygon fill="none" stroke="black" points="0,-0.5 0,-32.5 131.5,-32.5 131.5,-0.5 0,-0.5"/>
<text text-anchor="start" x="8" y="-19" font-family="Helvetica,sans-Serif" font-size="10.00">NotificationIconManager</text>
<text text-anchor="middle" x="65.75" y="-7" font-family="Helvetica,sans-Serif" font-size="10.00">::~NotificationIconManager</text>
</a>
</g>
</g>
<!-- Node1&#45;&gt;Node4 -->
<g id="edge3" class="edge">
<title>Node1&#45;&gt;Node4</title>
<path fill="none" stroke="midnightblue" d="M160.06,-42.58C147.98,-39.21 135.52,-35.72 123.78,-32.44"/>
<polygon fill="midnightblue" stroke="midnightblue" points="158.96,-46.19 169.53,-45.51 160.85,-39.45 158.96,-46.19"/>
</g>
</g>
</svg>
