<?xml version="1.0" encoding="UTF-8" standalone="no"?>
<!DOCTYPE svg PUBLIC "-//W3C//DTD SVG 1.1//EN"
 "http://www.w3.org/Graphics/SVG/1.1/DTD/svg11.dtd">
<!-- Generated by graphviz version 8.1.0 (20230707.0739)
 -->
<!-- Title: clang&#45;tidy&#45;cache.ClangTidyCacheOpts.__init__ Pages: 1 -->
<svg width="327pt" height="104pt"
 viewBox="0.00 0.00 326.50 104.00" xmlns="http://www.w3.org/2000/svg" xmlns:xlink="http://www.w3.org/1999/xlink">
<g id="graph0" class="graph" transform="scale(1 1) rotate(0) translate(4 100)">
<title>clang&#45;tidy&#45;cache.ClangTidyCacheOpts.__init__</title>
<!-- Node1 -->
<g id="node1" class="node">
<title>Node1</title>
<g id="a_node1"><a xlink:title=" ">
<polygon fill="#bfbfbf" stroke="black" points="0,-34.5 0,-66.5 133,-66.5 133,-34.5 0,-34.5"/>
<text text-anchor="start" x="8" y="-53" font-family="Helvetica,sans-Serif" font-size="10.00">clang&#45;tidy&#45;cache.ClangTidy</text>
<text text-anchor="middle" x="66.5" y="-41" font-family="Helvetica,sans-Serif" font-size="10.00">CacheOpts.__init__</text>
</a>
</g>
</g>
<!-- Node2 -->
<g id="node2" class="node">
<title>Node2</title>
<g id="a_node2"><a xlink:href="classclang-tidy-cache_1_1_clang_tidy_cache_opts.html#a11baed27d8acb3038af3b0fa4b3812f3" target="_top" xlink:title=" ">
<polygon fill="none" stroke="black" points="169,-63.5 169,-95.5 318.5,-95.5 318.5,-63.5 169,-63.5"/>
<text text-anchor="start" x="177" y="-82" font-family="Helvetica,sans-Serif" font-size="10.00">clang&#45;tidy&#45;cache.ClangTidy</text>
<text text-anchor="middle" x="243.75" y="-70" font-family="Helvetica,sans-Serif" font-size="10.00">CacheOpts._compiler_args_for</text>
</a>
</g>
</g>
<!-- Node1&#45;&gt;Node2 -->
<g id="edge1" class="edge">
<title>Node1&#45;&gt;Node2</title>
<path fill="none" stroke="midnightblue" d="M132.76,-61.3C141.1,-62.68 149.74,-64.11 158.34,-65.53"/>
<polygon fill="midnightblue" stroke="midnightblue" points="157.74,-69.15 168.18,-67.33 158.89,-62.24 157.74,-69.15"/>
</g>
<!-- Node3 -->
<g id="node3" class="node">
<title>Node3</title>
<g id="a_node3"><a xlink:href="classclang-tidy-cache_1_1_clang_tidy_cache_opts.html#a79f617949ffb47697f7b019091e58a49" target="_top" xlink:title=" ">
<polygon fill="none" stroke="black" points="177.25,-0.5 177.25,-44.5 310.25,-44.5 310.25,-0.5 177.25,-0.5"/>
<text text-anchor="start" x="185.25" y="-31" font-family="Helvetica,sans-Serif" font-size="10.00">clang&#45;tidy&#45;cache.ClangTidy</text>
<text text-anchor="start" x="185.25" y="-19" font-family="Helvetica,sans-Serif" font-size="10.00">CacheOpts._load_compile</text>
<text text-anchor="middle" x="243.75" y="-7" font-family="Helvetica,sans-Serif" font-size="10.00">_command_db</text>
</a>
</g>
</g>
<!-- Node1&#45;&gt;Node3 -->
<g id="edge2" class="edge">
<title>Node1&#45;&gt;Node3</title>
<path fill="none" stroke="midnightblue" d="M132.76,-40.07C143.82,-38.31 155.39,-36.46 166.7,-34.65"/>
<polygon fill="midnightblue" stroke="midnightblue" points="167.12,-37.97 176.44,-32.93 166.01,-31.06 167.12,-37.97"/>
</g>
</g>
</svg>
