<?xml version="1.0" encoding="UTF-8" standalone="no"?>
<!DOCTYPE svg PUBLIC "-//W3C//DTD SVG 1.1//EN"
 "http://www.w3.org/Graphics/SVG/1.1/DTD/svg11.dtd">
<!-- Generated by graphviz version 8.1.0 (20230707.0739)
 -->
<!-- Title: build/configured_files/include/config.h Pages: 1 -->
<svg width="134pt" height="98pt"
 viewBox="0.00 0.00 134.25 98.00" xmlns="http://www.w3.org/2000/svg" xmlns:xlink="http://www.w3.org/1999/xlink">
<g id="graph0" class="graph" transform="scale(1 1) rotate(0) translate(4 94)">
<title>build/configured_files/include/config.h</title>
<!-- Node1 -->
<g id="node1" class="node">
<title>Node1</title>
<g id="a_node1"><a xlink:title=" ">
<polygon fill="#bfbfbf" stroke="black" points="5.62,-57.5 5.62,-89.5 111.62,-89.5 111.62,-57.5 5.62,-57.5"/>
<text text-anchor="start" x="13.62" y="-76" font-family="Helvetica,sans-Serif" font-size="10.00">build/configured_files</text>
<text text-anchor="middle" x="58.62" y="-64" font-family="Helvetica,sans-Serif" font-size="10.00">/include/config.h</text>
</a>
</g>
</g>
<!-- Node2 -->
<g id="node2" class="node">
<title>Node2</title>
<g id="a_node2"><a xlink:title=" ">
<polygon fill="none" stroke="#bfbfbf" points="0,-0.5 0,-20.5 45.25,-20.5 45.25,-0.5 0,-0.5"/>
<text text-anchor="middle" x="22.62" y="-7" font-family="Helvetica,sans-Serif" font-size="10.00">cstdint</text>
</a>
</g>
</g>
<!-- Node1&#45;&gt;Node2 -->
<g id="edge1" class="edge">
<title>Node1&#45;&gt;Node2</title>
<path fill="none" stroke="midnightblue" d="M49.91,-57.73C44.89,-49.23 38.54,-38.47 33.24,-29.48"/>
<polygon fill="midnightblue" stroke="midnightblue" points="35.91,-28.12 27.81,-21.28 29.88,-31.68 35.91,-28.12"/>
</g>
<!-- Node3 -->
<g id="node3" class="node">
<title>Node3</title>
<g id="a_node3"><a xlink:title=" ">
<polygon fill="none" stroke="#bfbfbf" points="63,-0.5 63,-20.5 126.25,-20.5 126.25,-0.5 63,-0.5"/>
<text text-anchor="middle" x="94.62" y="-7" font-family="Helvetica,sans-Serif" font-size="10.00">string_view</text>
</a>
</g>
</g>
<!-- Node1&#45;&gt;Node3 -->
<g id="edge2" class="edge">
<title>Node1&#45;&gt;Node3</title>
<path fill="none" stroke="midnightblue" d="M67.34,-57.73C72.36,-49.23 78.71,-38.47 84.01,-29.48"/>
<polygon fill="midnightblue" stroke="midnightblue" points="87.37,-31.68 89.44,-21.28 81.34,-28.12 87.37,-31.68"/>
</g>
</g>
</svg>
