<?xml version="1.0" encoding="UTF-8" standalone="no"?>
<!DOCTYPE svg PUBLIC "-//W3C//DTD SVG 1.1//EN"
 "http://www.w3.org/Graphics/SVG/1.1/DTD/svg11.dtd">
<!-- Generated by graphviz version 8.1.0 (20230707.0739)
 -->
<!-- Title: clang&#45;tidy&#45;cache.hash_inputs Pages: 1 -->
<svg width="275pt" height="92pt"
 viewBox="0.00 0.00 274.75 92.00" xmlns="http://www.w3.org/2000/svg" xmlns:xlink="http://www.w3.org/1999/xlink">
<g id="graph0" class="graph" transform="scale(1 1) rotate(0) translate(4 88)">
<title>clang&#45;tidy&#45;cache.hash_inputs</title>
<!-- Node1 -->
<g id="node1" class="node">
<title>Node1</title>
<g id="a_node1"><a xlink:title=" ">
<polygon fill="#bfbfbf" stroke="black" points="0,-25.5 0,-57.5 111.25,-57.5 111.25,-25.5 0,-25.5"/>
<text text-anchor="start" x="8" y="-44" font-family="Helvetica,sans-Serif" font-size="10.00">clang&#45;tidy&#45;cache.hash</text>
<text text-anchor="middle" x="55.62" y="-32" font-family="Helvetica,sans-Serif" font-size="10.00">_inputs</text>
</a>
</g>
</g>
<!-- Node2 -->
<g id="node2" class="node">
<title>Node2</title>
<g id="a_node2"><a xlink:href="namespaceclang-tidy-cache.html#a2268d655c464a7275ef7d34da3ca3a6b" target="_top" xlink:title=" ">
<polygon fill="none" stroke="black" points="154.38,-51.5 154.38,-83.5 259.62,-83.5 259.62,-51.5 154.38,-51.5"/>
<text text-anchor="start" x="162.38" y="-70" font-family="Helvetica,sans-Serif" font-size="10.00">clang&#45;tidy&#45;cache.find</text>
<text text-anchor="middle" x="207" y="-58" font-family="Helvetica,sans-Serif" font-size="10.00">_ct_config</text>
</a>
</g>
</g>
<!-- Node1&#45;&gt;Node2 -->
<g id="edge1" class="edge">
<title>Node1&#45;&gt;Node2</title>
<path fill="none" stroke="midnightblue" d="M110.98,-50.96C121.61,-52.81 132.84,-54.77 143.71,-56.66"/>
<polygon fill="midnightblue" stroke="midnightblue" points="142.98,-60.26 153.43,-58.52 144.18,-53.36 142.98,-60.26"/>
</g>
<!-- Node3 -->
<g id="node3" class="node">
<title>Node3</title>
<g id="a_node3"><a xlink:href="namespaceclang-tidy-cache.html#a3f5f2005467ee5002361998ecd6d3e9b" target="_top" xlink:title=" ">
<polygon fill="none" stroke="black" points="147.25,-0.5 147.25,-32.5 266.75,-32.5 266.75,-0.5 147.25,-0.5"/>
<text text-anchor="start" x="155.25" y="-19" font-family="Helvetica,sans-Serif" font-size="10.00">clang&#45;tidy&#45;cache.source</text>
<text text-anchor="middle" x="207" y="-7" font-family="Helvetica,sans-Serif" font-size="10.00">_file_changed</text>
</a>
</g>
</g>
<!-- Node1&#45;&gt;Node3 -->
<g id="edge2" class="edge">
<title>Node1&#45;&gt;Node3</title>
<path fill="none" stroke="midnightblue" d="M110.98,-32.4C119.3,-31.01 128,-29.55 136.6,-28.12"/>
<polygon fill="midnightblue" stroke="midnightblue" points="137.12,-31.41 146.41,-26.31 135.97,-24.51 137.12,-31.41"/>
</g>
</g>
</svg>
