<?xml version="1.0" encoding="UTF-8" standalone="no"?>
<!DOCTYPE svg PUBLIC "-//W3C//DTD SVG 1.1//EN"
 "http://www.w3.org/Graphics/SVG/1.1/DTD/svg11.dtd">
<!-- Generated by graphviz version 8.1.0 (20230707.0739)
 -->
<!-- Title: clang&#45;tidy&#45;cache.find_ct_config Pages: 1 -->
<svg width="548pt" height="41pt"
 viewBox="0.00 0.00 547.50 41.00" xmlns="http://www.w3.org/2000/svg" xmlns:xlink="http://www.w3.org/1999/xlink">
<g id="graph0" class="graph" transform="scale(1 1) rotate(0) translate(4 37)">
<title>clang&#45;tidy&#45;cache.find_ct_config</title>
<!-- Node1 -->
<g id="node1" class="node">
<title>Node1</title>
<g id="a_node1"><a xlink:title=" ">
<polygon fill="#bfbfbf" stroke="black" points="434.25,-0.5 434.25,-32.5 539.5,-32.5 539.5,-0.5 434.25,-0.5"/>
<text text-anchor="start" x="442.25" y="-19" font-family="Helvetica,sans-Serif" font-size="10.00">clang&#45;tidy&#45;cache.find</text>
<text text-anchor="middle" x="486.88" y="-7" font-family="Helvetica,sans-Serif" font-size="10.00">_ct_config</text>
</a>
</g>
</g>
<!-- Node2 -->
<g id="node2" class="node">
<title>Node2</title>
<g id="a_node2"><a xlink:href="namespaceclang-tidy-cache.html#a540f1c62d93828382ab1ae6805dff4e0" target="_top" xlink:title=" ">
<polygon fill="none" stroke="black" points="287,-0.5 287,-32.5 398.25,-32.5 398.25,-0.5 287,-0.5"/>
<text text-anchor="start" x="295" y="-19" font-family="Helvetica,sans-Serif" font-size="10.00">clang&#45;tidy&#45;cache.hash</text>
<text text-anchor="middle" x="342.62" y="-7" font-family="Helvetica,sans-Serif" font-size="10.00">_inputs</text>
</a>
</g>
</g>
<!-- Node1&#45;&gt;Node2 -->
<g id="edge1" class="edge">
<title>Node1&#45;&gt;Node2</title>
<path fill="none" stroke="midnightblue" d="M423.71,-16.5C415.08,-16.5 406.26,-16.5 397.78,-16.5"/>
<polygon fill="midnightblue" stroke="midnightblue" points="423.52,-20 433.52,-16.5 423.52,-13 423.52,-20"/>
</g>
<!-- Node3 -->
<g id="node3" class="node">
<title>Node3</title>
<g id="a_node3"><a xlink:href="namespaceclang-tidy-cache.html#af31992d7c253bfc80a3a292a71b7f8e4" target="_top" xlink:title=" ">
<polygon fill="none" stroke="black" points="147.25,-0.5 147.25,-32.5 251,-32.5 251,-0.5 147.25,-0.5"/>
<text text-anchor="start" x="155.25" y="-19" font-family="Helvetica,sans-Serif" font-size="10.00">clang&#45;tidy&#45;cache.run</text>
<text text-anchor="middle" x="199.12" y="-7" font-family="Helvetica,sans-Serif" font-size="10.00">_clang_tidy_cached</text>
</a>
</g>
</g>
<!-- Node2&#45;&gt;Node3 -->
<g id="edge2" class="edge">
<title>Node2&#45;&gt;Node3</title>
<path fill="none" stroke="midnightblue" d="M276.49,-16.5C267.87,-16.5 259.13,-16.5 250.8,-16.5"/>
<polygon fill="midnightblue" stroke="midnightblue" points="276.32,-20 286.32,-16.5 276.32,-13 276.32,-20"/>
</g>
<!-- Node4 -->
<g id="node4" class="node">
<title>Node4</title>
<g id="a_node4"><a xlink:href="namespaceclang-tidy-cache.html#ae5a9360827a85a9471eba9bd0e140848" target="_top" xlink:title=" ">
<polygon fill="none" stroke="black" points="0,-6.5 0,-26.5 111.25,-26.5 111.25,-6.5 0,-6.5"/>
<text text-anchor="middle" x="55.62" y="-13" font-family="Helvetica,sans-Serif" font-size="10.00">clang&#45;tidy&#45;cache.main</text>
</a>
</g>
</g>
<!-- Node3&#45;&gt;Node4 -->
<g id="edge3" class="edge">
<title>Node3&#45;&gt;Node4</title>
<path fill="none" stroke="midnightblue" d="M136.67,-16.5C128.05,-16.5 119.25,-16.5 110.78,-16.5"/>
<polygon fill="midnightblue" stroke="midnightblue" points="136.44,-20 146.44,-16.5 136.44,-13 136.44,-20"/>
</g>
</g>
</svg>
