<?xml version="1.0" encoding="UTF-8" standalone="no"?>
<!DOCTYPE svg PUBLIC "-//W3C//DTD SVG 1.1//EN"
 "http://www.w3.org/Graphics/SVG/1.1/DTD/svg11.dtd">
<!-- Generated by graphviz version 8.1.0 (20230707.0739)
 -->
<!-- Title: clang&#45;tidy&#45;cache.main Pages: 1 -->
<svg width="567pt" height="117pt"
 viewBox="0.00 0.00 567.00 117.00" xmlns="http://www.w3.org/2000/svg" xmlns:xlink="http://www.w3.org/1999/xlink">
<g id="graph0" class="graph" transform="scale(1 1) rotate(0) translate(4 113)">
<title>clang&#45;tidy&#45;cache.main</title>
<!-- Node1 -->
<g id="node1" class="node">
<title>Node1</title>
<g id="a_node1"><a xlink:title=" ">
<polygon fill="#bfbfbf" stroke="black" points="0,-56.5 0,-76.5 111.25,-76.5 111.25,-56.5 0,-56.5"/>
<text text-anchor="middle" x="55.62" y="-63" font-family="Helvetica,sans-Serif" font-size="10.00">clang&#45;tidy&#45;cache.main</text>
</a>
</g>
</g>
<!-- Node2 -->
<g id="node2" class="node">
<title>Node2</title>
<g id="a_node2"><a xlink:href="namespaceclang-tidy-cache.html#a9b3db07143732e04693695ee124de392" target="_top" xlink:title=" ">
<polygon fill="none" stroke="black" points="147.25,-76.5 147.25,-108.5 256.25,-108.5 256.25,-76.5 147.25,-76.5"/>
<text text-anchor="start" x="155.25" y="-95" font-family="Helvetica,sans-Serif" font-size="10.00">clang&#45;tidy&#45;cache.print</text>
<text text-anchor="middle" x="201.75" y="-83" font-family="Helvetica,sans-Serif" font-size="10.00">_stats</text>
</a>
</g>
</g>
<!-- Node1&#45;&gt;Node2 -->
<g id="edge1" class="edge">
<title>Node1&#45;&gt;Node2</title>
<path fill="none" stroke="midnightblue" d="M111.11,-76.33C119.52,-77.85 128.27,-79.42 136.86,-80.97"/>
<polygon fill="midnightblue" stroke="midnightblue" points="136.15,-84.58 146.62,-82.91 137.4,-77.7 136.15,-84.58"/>
</g>
<!-- Node3 -->
<g id="node3" class="node">
<title>Node3</title>
<g id="a_node3"><a xlink:href="namespaceclang-tidy-cache.html#af31992d7c253bfc80a3a292a71b7f8e4" target="_top" xlink:title=" ">
<polygon fill="none" stroke="black" points="149.88,-25.5 149.88,-57.5 253.62,-57.5 253.62,-25.5 149.88,-25.5"/>
<text text-anchor="start" x="157.88" y="-44" font-family="Helvetica,sans-Serif" font-size="10.00">clang&#45;tidy&#45;cache.run</text>
<text text-anchor="middle" x="201.75" y="-32" font-family="Helvetica,sans-Serif" font-size="10.00">_clang_tidy_cached</text>
</a>
</g>
</g>
<!-- Node1&#45;&gt;Node3 -->
<g id="edge2" class="edge">
<title>Node1&#45;&gt;Node3</title>
<path fill="none" stroke="midnightblue" d="M111.11,-57.05C120.28,-55.46 129.85,-53.8 139.18,-52.18"/>
<polygon fill="midnightblue" stroke="midnightblue" points="139.73,-55.46 148.99,-50.31 138.54,-48.57 139.73,-55.46"/>
</g>
<!-- Node4 -->
<g id="node4" class="node">
<title>Node4</title>
<g id="a_node4"><a xlink:href="namespaceclang-tidy-cache.html#a540f1c62d93828382ab1ae6805dff4e0" target="_top" xlink:title=" ">
<polygon fill="none" stroke="black" points="292.25,-25.5 292.25,-57.5 403.5,-57.5 403.5,-25.5 292.25,-25.5"/>
<text text-anchor="start" x="300.25" y="-44" font-family="Helvetica,sans-Serif" font-size="10.00">clang&#45;tidy&#45;cache.hash</text>
<text text-anchor="middle" x="347.88" y="-32" font-family="Helvetica,sans-Serif" font-size="10.00">_inputs</text>
</a>
</g>
</g>
<!-- Node3&#45;&gt;Node4 -->
<g id="edge3" class="edge">
<title>Node3&#45;&gt;Node4</title>
<path fill="none" stroke="midnightblue" d="M253.56,-41.5C262.65,-41.5 272.23,-41.5 281.66,-41.5"/>
<polygon fill="midnightblue" stroke="midnightblue" points="281.61,-45 291.61,-41.5 281.61,-38 281.61,-45"/>
</g>
<!-- Node5 -->
<g id="node5" class="node">
<title>Node5</title>
<g id="a_node5"><a xlink:href="namespaceclang-tidy-cache.html#a2268d655c464a7275ef7d34da3ca3a6b" target="_top" xlink:title=" ">
<polygon fill="none" stroke="black" points="446.62,-51.5 446.62,-83.5 551.88,-83.5 551.88,-51.5 446.62,-51.5"/>
<text text-anchor="start" x="454.62" y="-70" font-family="Helvetica,sans-Serif" font-size="10.00">clang&#45;tidy&#45;cache.find</text>
<text text-anchor="middle" x="499.25" y="-58" font-family="Helvetica,sans-Serif" font-size="10.00">_ct_config</text>
</a>
</g>
</g>
<!-- Node4&#45;&gt;Node5 -->
<g id="edge4" class="edge">
<title>Node4&#45;&gt;Node5</title>
<path fill="none" stroke="midnightblue" d="M403.23,-50.96C413.86,-52.81 425.09,-54.77 435.96,-56.66"/>
<polygon fill="midnightblue" stroke="midnightblue" points="435.23,-60.26 445.68,-58.52 436.43,-53.36 435.23,-60.26"/>
</g>
<!-- Node6 -->
<g id="node6" class="node">
<title>Node6</title>
<g id="a_node6"><a xlink:href="namespaceclang-tidy-cache.html#a3f5f2005467ee5002361998ecd6d3e9b" target="_top" xlink:title=" ">
<polygon fill="none" stroke="black" points="439.5,-0.5 439.5,-32.5 559,-32.5 559,-0.5 439.5,-0.5"/>
<text text-anchor="start" x="447.5" y="-19" font-family="Helvetica,sans-Serif" font-size="10.00">clang&#45;tidy&#45;cache.source</text>
<text text-anchor="middle" x="499.25" y="-7" font-family="Helvetica,sans-Serif" font-size="10.00">_file_changed</text>
</a>
</g>
</g>
<!-- Node4&#45;&gt;Node6 -->
<g id="edge5" class="edge">
<title>Node4&#45;&gt;Node6</title>
<path fill="none" stroke="midnightblue" d="M403.23,-32.4C411.55,-31.01 420.25,-29.55 428.85,-28.12"/>
<polygon fill="midnightblue" stroke="midnightblue" points="429.37,-31.41 438.66,-26.31 428.22,-24.51 429.37,-31.41"/>
</g>
</g>
</svg>
