<?xml version="1.0" encoding="UTF-8" standalone="no"?>
<!DOCTYPE svg PUBLIC "-//W3C//DTD SVG 1.1//EN"
 "http://www.w3.org/Graphics/SVG/1.1/DTD/svg11.dtd">
<!-- Generated by graphviz version 8.1.0 (20230707.0739)
 -->
<!-- Title: clang&#45;tidy&#45;cache.run_clang_tidy_cached Pages: 1 -->
<svg width="415pt" height="92pt"
 viewBox="0.00 0.00 414.50 92.00" xmlns="http://www.w3.org/2000/svg" xmlns:xlink="http://www.w3.org/1999/xlink">
<g id="graph0" class="graph" transform="scale(1 1) rotate(0) translate(4 88)">
<title>clang&#45;tidy&#45;cache.run_clang_tidy_cached</title>
<!-- Node1 -->
<g id="node1" class="node">
<title>Node1</title>
<g id="a_node1"><a xlink:title=" ">
<polygon fill="#bfbfbf" stroke="black" points="0,-25.5 0,-57.5 103.75,-57.5 103.75,-25.5 0,-25.5"/>
<text text-anchor="start" x="8" y="-44" font-family="Helvetica,sans-Serif" font-size="10.00">clang&#45;tidy&#45;cache.run</text>
<text text-anchor="middle" x="51.88" y="-32" font-family="Helvetica,sans-Serif" font-size="10.00">_clang_tidy_cached</text>
</a>
</g>
</g>
<!-- Node2 -->
<g id="node2" class="node">
<title>Node2</title>
<g id="a_node2"><a xlink:href="namespaceclang-tidy-cache.html#a540f1c62d93828382ab1ae6805dff4e0" target="_top" xlink:title=" ">
<polygon fill="none" stroke="black" points="139.75,-25.5 139.75,-57.5 251,-57.5 251,-25.5 139.75,-25.5"/>
<text text-anchor="start" x="147.75" y="-44" font-family="Helvetica,sans-Serif" font-size="10.00">clang&#45;tidy&#45;cache.hash</text>
<text text-anchor="middle" x="195.38" y="-32" font-family="Helvetica,sans-Serif" font-size="10.00">_inputs</text>
</a>
</g>
</g>
<!-- Node1&#45;&gt;Node2 -->
<g id="edge1" class="edge">
<title>Node1&#45;&gt;Node2</title>
<path fill="none" stroke="midnightblue" d="M103.56,-41.5C111.92,-41.5 120.7,-41.5 129.35,-41.5"/>
<polygon fill="midnightblue" stroke="midnightblue" points="129.22,-45 139.22,-41.5 129.22,-38 129.22,-45"/>
</g>
<!-- Node3 -->
<g id="node3" class="node">
<title>Node3</title>
<g id="a_node3"><a xlink:href="namespaceclang-tidy-cache.html#a2268d655c464a7275ef7d34da3ca3a6b" target="_top" xlink:title=" ">
<polygon fill="none" stroke="black" points="294.12,-51.5 294.12,-83.5 399.38,-83.5 399.38,-51.5 294.12,-51.5"/>
<text text-anchor="start" x="302.12" y="-70" font-family="Helvetica,sans-Serif" font-size="10.00">clang&#45;tidy&#45;cache.find</text>
<text text-anchor="middle" x="346.75" y="-58" font-family="Helvetica,sans-Serif" font-size="10.00">_ct_config</text>
</a>
</g>
</g>
<!-- Node2&#45;&gt;Node3 -->
<g id="edge2" class="edge">
<title>Node2&#45;&gt;Node3</title>
<path fill="none" stroke="midnightblue" d="M250.73,-50.96C261.36,-52.81 272.59,-54.77 283.46,-56.66"/>
<polygon fill="midnightblue" stroke="midnightblue" points="282.73,-60.26 293.18,-58.52 283.93,-53.36 282.73,-60.26"/>
</g>
<!-- Node4 -->
<g id="node4" class="node">
<title>Node4</title>
<g id="a_node4"><a xlink:href="namespaceclang-tidy-cache.html#a3f5f2005467ee5002361998ecd6d3e9b" target="_top" xlink:title=" ">
<polygon fill="none" stroke="black" points="287,-0.5 287,-32.5 406.5,-32.5 406.5,-0.5 287,-0.5"/>
<text text-anchor="start" x="295" y="-19" font-family="Helvetica,sans-Serif" font-size="10.00">clang&#45;tidy&#45;cache.source</text>
<text text-anchor="middle" x="346.75" y="-7" font-family="Helvetica,sans-Serif" font-size="10.00">_file_changed</text>
</a>
</g>
</g>
<!-- Node2&#45;&gt;Node4 -->
<g id="edge3" class="edge">
<title>Node2&#45;&gt;Node4</title>
<path fill="none" stroke="midnightblue" d="M250.73,-32.4C259.05,-31.01 267.75,-29.55 276.35,-28.12"/>
<polygon fill="midnightblue" stroke="midnightblue" points="276.87,-31.41 286.16,-26.31 275.72,-24.51 276.87,-31.41"/>
</g>
</g>
</svg>
