<?xml version="1.0" encoding="UTF-8" standalone="no"?>
<!DOCTYPE svg PUBLIC "-//W3C//DTD SVG 1.1//EN"
 "http://www.w3.org/Graphics/SVG/1.1/DTD/svg11.dtd">
<!-- Generated by graphviz version 8.1.0 (20230707.0739)
 -->
<!-- Title: include/resource.h Pages: 1 -->
<svg width="242pt" height="86pt"
 viewBox="0.00 0.00 241.50 86.00" xmlns="http://www.w3.org/2000/svg" xmlns:xlink="http://www.w3.org/1999/xlink">
<g id="graph0" class="graph" transform="scale(1 1) rotate(0) translate(4 82)">
<title>include/resource.h</title>
<!-- Node1 -->
<g id="node1" class="node">
<title>Node1</title>
<g id="a_node1"><a xlink:title=" ">
<polygon fill="#bfbfbf" stroke="black" points="68.25,-57.5 68.25,-77.5 163.75,-77.5 163.75,-57.5 68.25,-57.5"/>
<text text-anchor="middle" x="116" y="-64" font-family="Helvetica,sans-Serif" font-size="10.00">include/resource.h</text>
</a>
</g>
</g>
<!-- Node2 -->
<g id="node2" class="node">
<title>Node2</title>
<g id="a_node2"><a xlink:href="src_2_c_my_window_8cpp.html" target="_top" xlink:title=" ">
<polygon fill="none" stroke="black" points="0,-0.5 0,-20.5 106,-20.5 106,-0.5 0,-0.5"/>
<text text-anchor="middle" x="53" y="-7" font-family="Helvetica,sans-Serif" font-size="10.00">src/CMyWindow.cpp</text>
</a>
</g>
</g>
<!-- Node1&#45;&gt;Node2 -->
<g id="edge1" class="edge">
<title>Node1&#45;&gt;Node2</title>
<path fill="none" stroke="midnightblue" d="M97.63,-50.46C86.45,-40.7 72.59,-28.6 63.31,-20.5"/>
<polygon fill="midnightblue" stroke="midnightblue" points="95.04,-53.72 104.88,-57.66 99.65,-48.45 95.04,-53.72"/>
</g>
<!-- Node3 -->
<g id="node3" class="node">
<title>Node3</title>
<g id="a_node3"><a xlink:href="test_2_c_my_window_8cpp.html" target="_top" xlink:title=" ">
<polygon fill="none" stroke="black" points="124.5,-0.5 124.5,-20.5 233.5,-20.5 233.5,-0.5 124.5,-0.5"/>
<text text-anchor="middle" x="179" y="-7" font-family="Helvetica,sans-Serif" font-size="10.00">test/CMyWindow.cpp</text>
</a>
</g>
</g>
<!-- Node1&#45;&gt;Node3 -->
<g id="edge2" class="edge">
<title>Node1&#45;&gt;Node3</title>
<path fill="none" stroke="midnightblue" d="M134.37,-50.46C145.55,-40.7 159.41,-28.6 168.69,-20.5"/>
<polygon fill="midnightblue" stroke="midnightblue" points="132.35,-48.45 127.12,-57.66 136.96,-53.72 132.35,-48.45"/>
</g>
</g>
</svg>
