<?xml version="1.0" encoding="UTF-8" standalone="no"?>
<!DOCTYPE svg PUBLIC "-//W3C//DTD SVG 1.1//EN"
 "http://www.w3.org/Graphics/SVG/1.1/DTD/svg11.dtd">
<!-- Generated by graphviz version 8.1.0 (20230707.0739)
 -->
<!-- Title: src/NotificationIconManager.cpp Pages: 1 -->
<svg width="531pt" height="257pt"
 viewBox="0.00 0.00 531.38 257.00" xmlns="http://www.w3.org/2000/svg" xmlns:xlink="http://www.w3.org/1999/xlink">
<g id="graph0" class="graph" transform="scale(1 1) rotate(0) translate(4 253)">
<title>src/NotificationIconManager.cpp</title>
<!-- Node1 -->
<g id="node1" class="node">
<title>Node1</title>
<g id="a_node1"><a xlink:title=" ">
<polygon fill="#bfbfbf" stroke="black" points="56.38,-228.5 56.38,-248.5 211.12,-248.5 211.12,-228.5 56.38,-228.5"/>
<text text-anchor="middle" x="133.75" y="-235" font-family="Helvetica,sans-Serif" font-size="10.00">src/NotificationIconManager.cpp</text>
</a>
</g>
</g>
<!-- Node2 -->
<g id="node2" class="node">
<title>Node2</title>
<g id="a_node2"><a xlink:title=" ">
<polygon fill="none" stroke="#bfbfbf" points="0,-171.5 0,-191.5 53.5,-191.5 53.5,-171.5 0,-171.5"/>
<text text-anchor="middle" x="26.75" y="-178" font-family="Helvetica,sans-Serif" font-size="10.00">strsafe.h</text>
</a>
</g>
</g>
<!-- Node1&#45;&gt;Node2 -->
<g id="edge1" class="edge">
<title>Node1&#45;&gt;Node2</title>
<path fill="none" stroke="midnightblue" d="M116.56,-228.66C99.66,-219.97 73.6,-206.58 53.9,-196.45"/>
<polygon fill="midnightblue" stroke="midnightblue" points="55.75,-192.96 45.25,-191.5 52.55,-199.18 55.75,-192.96"/>
</g>
<!-- Node3 -->
<g id="node3" class="node">
<title>Node3</title>
<g id="a_node3"><a xlink:title=" ">
<polygon fill="none" stroke="#bfbfbf" points="71.5,-171.5 71.5,-191.5 116,-191.5 116,-171.5 71.5,-171.5"/>
<text text-anchor="middle" x="93.75" y="-178" font-family="Helvetica,sans-Serif" font-size="10.00">gsl/gsl</text>
</a>
</g>
</g>
<!-- Node1&#45;&gt;Node3 -->
<g id="edge2" class="edge">
<title>Node1&#45;&gt;Node3</title>
<path fill="none" stroke="midnightblue" d="M127.5,-228.91C121.9,-221.2 113.5,-209.66 106.49,-200.02"/>
<polygon fill="midnightblue" stroke="midnightblue" points="108.8,-198.24 100.09,-192.21 103.14,-202.36 108.8,-198.24"/>
</g>
<!-- Node4 -->
<g id="node4" class="node">
<title>Node4</title>
<g id="a_node4"><a xlink:href="_c_my_window_8h.html" target="_top" xlink:title=" ">
<polygon fill="none" stroke="black" points="134.25,-171.5 134.25,-191.5 213.25,-191.5 213.25,-171.5 134.25,-171.5"/>
<text text-anchor="middle" x="173.75" y="-178" font-family="Helvetica,sans-Serif" font-size="10.00">CMyWindow.h</text>
</a>
</g>
</g>
<!-- Node1&#45;&gt;Node4 -->
<g id="edge3" class="edge">
<title>Node1&#45;&gt;Node4</title>
<path fill="none" stroke="midnightblue" d="M140,-228.91C145.6,-221.2 154,-209.66 161.01,-200.02"/>
<polygon fill="midnightblue" stroke="midnightblue" points="164.36,-202.36 167.41,-192.21 158.7,-198.24 164.36,-202.36"/>
</g>
<!-- Node9 -->
<g id="node9" class="node">
<title>Node9</title>
<g id="a_node9"><a xlink:href="_notification_icon_manager_8h.html" target="_top" xlink:title=" ">
<polygon fill="none" stroke="black" points="312.88,-171.5 312.88,-191.5 440.62,-191.5 440.62,-171.5 312.88,-171.5"/>
<text text-anchor="middle" x="376.75" y="-178" font-family="Helvetica,sans-Serif" font-size="10.00">NotificationIconManager.h</text>
</a>
</g>
</g>
<!-- Node1&#45;&gt;Node9 -->
<g id="edge8" class="edge">
<title>Node1&#45;&gt;Node9</title>
<path fill="none" stroke="midnightblue" d="M173.33,-228.54C215.17,-219.07 281.25,-204.11 326.68,-193.83"/>
<polygon fill="midnightblue" stroke="midnightblue" points="327.2,-197.08 336.18,-191.46 325.66,-190.25 327.2,-197.08"/>
</g>
<!-- Node5 -->
<g id="node5" class="node">
<title>Node5</title>
<g id="a_node5"><a xlink:title=" ">
<polygon fill="none" stroke="#bfbfbf" points="7.88,-114.5 7.88,-134.5 75.62,-134.5 75.62,-114.5 7.88,-114.5"/>
<text text-anchor="middle" x="41.75" y="-121" font-family="Helvetica,sans-Serif" font-size="10.00">Winsock2.h</text>
</a>
</g>
</g>
<!-- Node4&#45;&gt;Node5 -->
<g id="edge4" class="edge">
<title>Node4&#45;&gt;Node5</title>
<path fill="none" stroke="midnightblue" d="M152.25,-171.54C130.77,-162.59 97.52,-148.74 73.11,-138.57"/>
<polygon fill="midnightblue" stroke="midnightblue" points="74.82,-135.07 64.24,-134.46 72.13,-141.53 74.82,-135.07"/>
</g>
<!-- Node6 -->
<g id="node6" class="node">
<title>Node6</title>
<g id="a_node6"><a xlink:title=" ">
<polygon fill="none" stroke="#bfbfbf" points="94.12,-114.5 94.12,-134.5 145.38,-134.5 145.38,-114.5 94.12,-114.5"/>
<text text-anchor="middle" x="119.75" y="-121" font-family="Helvetica,sans-Serif" font-size="10.00">afxwin.h</text>
</a>
</g>
</g>
<!-- Node4&#45;&gt;Node6 -->
<g id="edge5" class="edge">
<title>Node4&#45;&gt;Node6</title>
<path fill="none" stroke="midnightblue" d="M165.31,-171.91C157.43,-163.88 145.47,-151.69 135.77,-141.82"/>
<polygon fill="midnightblue" stroke="midnightblue" points="138.81,-139.9 129.31,-135.21 133.81,-144.8 138.81,-139.9"/>
</g>
<!-- Node7 -->
<g id="node7" class="node">
<title>Node7</title>
<g id="a_node7"><a xlink:title=" ">
<polygon fill="none" stroke="#bfbfbf" points="208.75,-0.5 208.75,-20.5 248.75,-20.5 248.75,-0.5 208.75,-0.5"/>
<text text-anchor="middle" x="228.75" y="-7" font-family="Helvetica,sans-Serif" font-size="10.00">string</text>
</a>
</g>
</g>
<!-- Node4&#45;&gt;Node7 -->
<g id="edge6" class="edge">
<title>Node4&#45;&gt;Node7</title>
<path fill="none" stroke="midnightblue" d="M176.05,-171.84C179.47,-159.11 186.2,-134.6 192.75,-114 202.07,-84.72 214.11,-51.19 221.63,-30.68"/>
<polygon fill="midnightblue" stroke="midnightblue" points="225.21,-32.08 225.39,-21.49 218.64,-29.66 225.21,-32.08"/>
</g>
<!-- Node8 -->
<g id="node8" class="node">
<title>Node8</title>
<g id="a_node8"><a xlink:title=" ">
<polygon fill="none" stroke="#bfbfbf" points="201.38,-114.5 201.38,-134.5 284.12,-134.5 284.12,-114.5 201.38,-114.5"/>
<text text-anchor="middle" x="242.75" y="-121" font-family="Helvetica,sans-Serif" font-size="10.00">unordered_map</text>
</a>
</g>
</g>
<!-- Node4&#45;&gt;Node8 -->
<g id="edge7" class="edge">
<title>Node4&#45;&gt;Node8</title>
<path fill="none" stroke="midnightblue" d="M184.84,-171.66C195.14,-163.45 210.71,-151.04 223.11,-141.15"/>
<polygon fill="midnightblue" stroke="midnightblue" points="224.82,-143.47 230.46,-134.5 220.46,-137.99 224.82,-143.47"/>
</g>
<!-- Node10 -->
<g id="node10" class="node">
<title>Node10</title>
<g id="a_node10"><a xlink:href="_exception_8h.html" target="_top" xlink:title=" ">
<polygon fill="none" stroke="black" points="301.88,-114.5 301.88,-134.5 369.62,-134.5 369.62,-114.5 301.88,-114.5"/>
<text text-anchor="middle" x="335.75" y="-121" font-family="Helvetica,sans-Serif" font-size="10.00">Exception.h</text>
</a>
</g>
</g>
<!-- Node9&#45;&gt;Node10 -->
<g id="edge9" class="edge">
<title>Node9&#45;&gt;Node10</title>
<path fill="none" stroke="midnightblue" d="M370.34,-171.91C364.6,-164.2 356,-152.66 348.81,-143.02"/>
<polygon fill="midnightblue" stroke="midnightblue" points="351.03,-141.14 342.25,-135.21 345.42,-145.32 351.03,-141.14"/>
</g>
<!-- Node15 -->
<g id="node15" class="node">
<title>Node15</title>
<g id="a_node15"><a xlink:title=" ">
<polygon fill="none" stroke="#bfbfbf" points="387.25,-114.5 387.25,-134.5 448.25,-134.5 448.25,-114.5 387.25,-114.5"/>
<text text-anchor="middle" x="417.75" y="-121" font-family="Helvetica,sans-Serif" font-size="10.00">windows.h</text>
</a>
</g>
</g>
<!-- Node9&#45;&gt;Node15 -->
<g id="edge16" class="edge">
<title>Node9&#45;&gt;Node15</title>
<path fill="none" stroke="midnightblue" d="M383.16,-171.91C388.9,-164.2 397.5,-152.66 404.69,-143.02"/>
<polygon fill="midnightblue" stroke="midnightblue" points="408.08,-145.32 411.25,-135.21 402.47,-141.14 408.08,-145.32"/>
</g>
<!-- Node16 -->
<g id="node16" class="node">
<title>Node16</title>
<g id="a_node16"><a xlink:title=" ">
<polygon fill="none" stroke="#bfbfbf" points="466.12,-114.5 466.12,-134.5 523.38,-134.5 523.38,-114.5 466.12,-114.5"/>
<text text-anchor="middle" x="494.75" y="-121" font-family="Helvetica,sans-Serif" font-size="10.00">shellapi.h</text>
</a>
</g>
</g>
<!-- Node9&#45;&gt;Node16 -->
<g id="edge17" class="edge">
<title>Node9&#45;&gt;Node16</title>
<path fill="none" stroke="midnightblue" d="M395.97,-171.54C414.91,-162.71 444.1,-149.11 465.84,-138.98"/>
<polygon fill="midnightblue" stroke="midnightblue" points="466.95,-141.85 474.54,-134.46 463.99,-135.51 466.95,-141.85"/>
</g>
<!-- Node10&#45;&gt;Node7 -->
<g id="edge14" class="edge">
<title>Node10&#45;&gt;Node7</title>
<path fill="none" stroke="midnightblue" d="M305.21,-114.66C286.12,-107.64 262.46,-95.97 247.75,-78 236.82,-64.64 232.17,-45.32 230.2,-30.94"/>
<polygon fill="midnightblue" stroke="midnightblue" points="233.61,-30.85 229.09,-21.26 226.64,-31.57 233.61,-30.85"/>
</g>
<!-- Node11 -->
<g id="node11" class="node">
<title>Node11</title>
<g id="a_node11"><a xlink:href="_string_conversion_8h.html" target="_top" xlink:title=" ">
<polygon fill="none" stroke="black" points="256.38,-57.5 256.38,-77.5 381.12,-77.5 381.12,-57.5 256.38,-57.5"/>
<text text-anchor="middle" x="318.75" y="-64" font-family="Helvetica,sans-Serif" font-size="10.00">Utility/StringConversion.h</text>
</a>
</g>
</g>
<!-- Node10&#45;&gt;Node11 -->
<g id="edge10" class="edge">
<title>Node10&#45;&gt;Node11</title>
<path fill="none" stroke="midnightblue" d="M333.09,-114.91C330.84,-107.6 327.51,-96.85 324.63,-87.54"/>
<polygon fill="midnightblue" stroke="midnightblue" points="327.74,-86.74 321.44,-78.21 321.05,-88.8 327.74,-86.74"/>
</g>
<!-- Node14 -->
<g id="node14" class="node">
<title>Node14</title>
<g id="a_node14"><a xlink:title=" ">
<polygon fill="none" stroke="#bfbfbf" points="399,-57.5 399,-77.5 452.5,-77.5 452.5,-57.5 399,-57.5"/>
<text text-anchor="middle" x="425.75" y="-64" font-family="Helvetica,sans-Serif" font-size="10.00">iostream</text>
</a>
</g>
</g>
<!-- Node10&#45;&gt;Node14 -->
<g id="edge15" class="edge">
<title>Node10&#45;&gt;Node14</title>
<path fill="none" stroke="midnightblue" d="M350.21,-114.66C364.17,-106.13 385.54,-93.07 402,-83.01"/>
<polygon fill="midnightblue" stroke="midnightblue" points="403.32,-85.7 410.03,-77.5 399.67,-79.73 403.32,-85.7"/>
</g>
<!-- Node11&#45;&gt;Node7 -->
<g id="edge13" class="edge">
<title>Node11&#45;&gt;Node7</title>
<path fill="none" stroke="midnightblue" d="M304.29,-57.66C290.33,-49.13 268.96,-36.07 252.5,-26.01"/>
<polygon fill="midnightblue" stroke="midnightblue" points="254.83,-22.73 244.47,-20.5 251.18,-28.7 254.83,-22.73"/>
</g>
<!-- Node12 -->
<g id="node12" class="node">
<title>Node12</title>
<g id="a_node12"><a xlink:title=" ">
<polygon fill="none" stroke="#bfbfbf" points="280.25,-0.5 280.25,-20.5 329.25,-20.5 329.25,-0.5 280.25,-0.5"/>
<text text-anchor="middle" x="304.75" y="-7" font-family="Helvetica,sans-Serif" font-size="10.00">codecvt</text>
</a>
</g>
</g>
<!-- Node11&#45;&gt;Node12 -->
<g id="edge11" class="edge">
<title>Node11&#45;&gt;Node12</title>
<path fill="none" stroke="midnightblue" d="M316.56,-57.91C314.72,-50.68 312.03,-40.09 309.67,-30.85"/>
<polygon fill="midnightblue" stroke="midnightblue" points="312.83,-30.04 306.97,-21.21 306.04,-31.77 312.83,-30.04"/>
</g>
<!-- Node13 -->
<g id="node13" class="node">
<title>Node13</title>
<g id="a_node13"><a xlink:title=" ">
<polygon fill="none" stroke="#bfbfbf" points="347,-0.5 347,-20.5 388.5,-20.5 388.5,-0.5 347,-0.5"/>
<text text-anchor="middle" x="367.75" y="-7" font-family="Helvetica,sans-Serif" font-size="10.00">locale</text>
</a>
</g>
</g>
<!-- Node11&#45;&gt;Node13 -->
<g id="edge12" class="edge">
<title>Node11&#45;&gt;Node13</title>
<path fill="none" stroke="midnightblue" d="M326.41,-57.91C333.41,-50.04 343.98,-38.18 352.68,-28.42"/>
<polygon fill="midnightblue" stroke="midnightblue" points="354.95,-31.01 358.99,-21.21 349.72,-26.35 354.95,-31.01"/>
</g>
</g>
</svg>
