<?xml version="1.0" encoding="UTF-8" standalone="no"?>
<!DOCTYPE svg PUBLIC "-//W3C//DTD SVG 1.1//EN"
 "http://www.w3.org/Graphics/SVG/1.1/DTD/svg11.dtd">
<!-- Generated by graphviz version 8.1.0 (20230707.0739)
 -->
<!-- Title: src/CMyWindow.cpp Pages: 1 -->
<svg width="1147pt" height="200pt"
 viewBox="0.00 0.00 1146.75 200.00" xmlns="http://www.w3.org/2000/svg" xmlns:xlink="http://www.w3.org/1999/xlink">
<g id="graph0" class="graph" transform="scale(1 1) rotate(0) translate(4 196)">
<title>src/CMyWindow.cpp</title>
<!-- Node1 -->
<g id="node1" class="node">
<title>Node1</title>
<g id="a_node1"><a xlink:title=" ">
<polygon fill="#bfbfbf" stroke="black" points="670.88,-171.5 670.88,-191.5 776.88,-191.5 776.88,-171.5 670.88,-171.5"/>
<text text-anchor="middle" x="723.88" y="-178" font-family="Helvetica,sans-Serif" font-size="10.00">src/CMyWindow.cpp</text>
</a>
</g>
</g>
<!-- Node2 -->
<g id="node2" class="node">
<title>Node2</title>
<g id="a_node2"><a xlink:href="_c_my_window_8h.html" target="_top" xlink:title=" ">
<polygon fill="none" stroke="black" points="157.38,-114.5 157.38,-134.5 236.38,-134.5 236.38,-114.5 157.38,-114.5"/>
<text text-anchor="middle" x="196.88" y="-121" font-family="Helvetica,sans-Serif" font-size="10.00">CMyWindow.h</text>
</a>
</g>
</g>
<!-- Node1&#45;&gt;Node2 -->
<g id="edge1" class="edge">
<title>Node1&#45;&gt;Node2</title>
<path fill="none" stroke="midnightblue" d="M670.93,-174.97C568.91,-164.33 346.4,-141.1 246.81,-130.71"/>
<polygon fill="midnightblue" stroke="midnightblue" points="247.45,-127.15 237.14,-129.6 246.72,-134.12 247.45,-127.15"/>
</g>
<!-- Node7 -->
<g id="node7" class="node">
<title>Node7</title>
<g id="a_node7"><a xlink:href="_exception_8h.html" target="_top" xlink:title=" ">
<polygon fill="none" stroke="black" points="383,-114.5 383,-134.5 450.75,-134.5 450.75,-114.5 383,-114.5"/>
<text text-anchor="middle" x="416.88" y="-121" font-family="Helvetica,sans-Serif" font-size="10.00">Exception.h</text>
</a>
</g>
</g>
<!-- Node1&#45;&gt;Node7 -->
<g id="edge6" class="edge">
<title>Node1&#45;&gt;Node7</title>
<path fill="none" stroke="midnightblue" d="M673.87,-171.54C614.93,-160.98 517.89,-143.6 461.43,-133.48"/>
<polygon fill="midnightblue" stroke="midnightblue" points="462.17,-129.88 451.71,-131.56 460.93,-136.77 462.17,-129.88"/>
</g>
<!-- Node8 -->
<g id="node8" class="node">
<title>Node8</title>
<g id="a_node8"><a xlink:href="_string_conversion_8h.html" target="_top" xlink:title=" ">
<polygon fill="none" stroke="black" points="434.5,-57.5 434.5,-77.5 559.25,-77.5 559.25,-57.5 434.5,-57.5"/>
<text text-anchor="middle" x="496.88" y="-64" font-family="Helvetica,sans-Serif" font-size="10.00">Utility/StringConversion.h</text>
</a>
</g>
</g>
<!-- Node1&#45;&gt;Node8 -->
<g id="edge13" class="edge">
<title>Node1&#45;&gt;Node8</title>
<path fill="none" stroke="midnightblue" d="M675.89,-171.54C645.14,-164.49 605.09,-152.84 572.88,-135 549.03,-121.79 526.11,-100.1 511.79,-85.1"/>
<polygon fill="midnightblue" stroke="midnightblue" points="514.79,-83.1 505.42,-78.15 509.66,-87.86 514.79,-83.1"/>
</g>
<!-- Node9 -->
<g id="node9" class="node">
<title>Node9</title>
<g id="a_node9"><a xlink:title=" ">
<polygon fill="none" stroke="#bfbfbf" points="488.38,-0.5 488.38,-20.5 537.38,-20.5 537.38,-0.5 488.38,-0.5"/>
<text text-anchor="middle" x="512.88" y="-7" font-family="Helvetica,sans-Serif" font-size="10.00">codecvt</text>
</a>
</g>
</g>
<!-- Node1&#45;&gt;Node9 -->
<g id="edge17" class="edge">
<title>Node1&#45;&gt;Node9</title>
<path fill="none" stroke="midnightblue" d="M695.61,-171.63C674.82,-164.14 646.68,-151.93 625.88,-135 592.37,-107.73 597.62,-88.33 567.88,-57 557.58,-46.16 544.77,-35.43 534.11,-27.11"/>
<polygon fill="midnightblue" stroke="midnightblue" points="536.48,-23.76 526.4,-20.49 532.24,-29.33 536.48,-23.76"/>
</g>
<!-- Node10 -->
<g id="node10" class="node">
<title>Node10</title>
<g id="a_node10"><a xlink:title=" ">
<polygon fill="none" stroke="#bfbfbf" points="587.12,-0.5 587.12,-20.5 628.62,-20.5 628.62,-0.5 587.12,-0.5"/>
<text text-anchor="middle" x="607.88" y="-7" font-family="Helvetica,sans-Serif" font-size="10.00">locale</text>
</a>
</g>
</g>
<!-- Node1&#45;&gt;Node10 -->
<g id="edge18" class="edge">
<title>Node1&#45;&gt;Node10</title>
<path fill="none" stroke="midnightblue" d="M697.65,-171.6C680.05,-164.34 657.64,-152.43 643.88,-135 619.49,-104.14 611.62,-57.29 609.08,-31.06"/>
<polygon fill="midnightblue" stroke="midnightblue" points="612.51,-30.99 608.23,-21.29 605.53,-31.54 612.51,-30.99"/>
</g>
<!-- Node12 -->
<g id="node12" class="node">
<title>Node12</title>
<g id="a_node12"><a xlink:title=" ">
<polygon fill="none" stroke="#bfbfbf" points="652.62,-114.5 652.62,-134.5 715.12,-134.5 715.12,-114.5 652.62,-114.5"/>
<text text-anchor="middle" x="683.88" y="-121" font-family="Helvetica,sans-Serif" font-size="10.00">simpleini.h</text>
</a>
</g>
</g>
<!-- Node1&#45;&gt;Node12 -->
<g id="edge14" class="edge">
<title>Node1&#45;&gt;Node12</title>
<path fill="none" stroke="midnightblue" d="M717.62,-171.91C712.02,-164.2 703.63,-152.66 696.61,-143.02"/>
<polygon fill="midnightblue" stroke="midnightblue" points="698.93,-141.24 690.21,-135.21 693.26,-145.36 698.93,-141.24"/>
</g>
<!-- Node13 -->
<g id="node13" class="node">
<title>Node13</title>
<g id="a_node13"><a xlink:title=" ">
<polygon fill="none" stroke="#bfbfbf" points="732.88,-114.5 732.88,-134.5 796.88,-134.5 796.88,-114.5 732.88,-114.5"/>
<text text-anchor="middle" x="764.88" y="-121" font-family="Helvetica,sans-Serif" font-size="10.00">Windows.h</text>
</a>
</g>
</g>
<!-- Node1&#45;&gt;Node13 -->
<g id="edge15" class="edge">
<title>Node1&#45;&gt;Node13</title>
<path fill="none" stroke="midnightblue" d="M730.28,-171.91C736.02,-164.2 744.63,-152.66 751.82,-143.02"/>
<polygon fill="midnightblue" stroke="midnightblue" points="755.21,-145.32 758.38,-135.21 749.6,-141.14 755.21,-145.32"/>
</g>
<!-- Node14 -->
<g id="node14" class="node">
<title>Node14</title>
<g id="a_node14"><a xlink:title=" ">
<polygon fill="none" stroke="#bfbfbf" points="815,-114.5 815,-134.5 852.75,-134.5 852.75,-114.5 815,-114.5"/>
<text text-anchor="middle" x="833.88" y="-121" font-family="Helvetica,sans-Serif" font-size="10.00">array</text>
</a>
</g>
</g>
<!-- Node1&#45;&gt;Node14 -->
<g id="edge16" class="edge">
<title>Node1&#45;&gt;Node14</title>
<path fill="none" stroke="midnightblue" d="M741.55,-171.66C759,-162.94 785.96,-149.46 806.25,-139.31"/>
<polygon fill="midnightblue" stroke="midnightblue" points="807.5,-142.1 814.88,-134.5 804.37,-135.84 807.5,-142.1"/>
</g>
<!-- Node15 -->
<g id="node15" class="node">
<title>Node15</title>
<g id="a_node15"><a xlink:title=" ">
<polygon fill="none" stroke="#bfbfbf" points="871.12,-114.5 871.12,-134.5 918.62,-134.5 918.62,-114.5 871.12,-114.5"/>
<text text-anchor="middle" x="894.88" y="-121" font-family="Helvetica,sans-Serif" font-size="10.00">psapi.h</text>
</a>
</g>
</g>
<!-- Node1&#45;&gt;Node15 -->
<g id="edge19" class="edge">
<title>Node1&#45;&gt;Node15</title>
<path fill="none" stroke="midnightblue" d="M751.73,-171.54C781.57,-161.94 828.96,-146.7 860.95,-136.41"/>
<polygon fill="midnightblue" stroke="midnightblue" points="861.72,-139.52 870.17,-133.13 859.58,-132.86 861.72,-139.52"/>
</g>
<!-- Node16 -->
<g id="node16" class="node">
<title>Node16</title>
<g id="a_node16"><a xlink:title=" ">
<polygon fill="none" stroke="#bfbfbf" points="936.25,-114.5 936.25,-134.5 987.5,-134.5 987.5,-114.5 936.25,-114.5"/>
<text text-anchor="middle" x="961.88" y="-121" font-family="Helvetica,sans-Serif" font-size="10.00">sstream</text>
</a>
</g>
</g>
<!-- Node1&#45;&gt;Node16 -->
<g id="edge20" class="edge">
<title>Node1&#45;&gt;Node16</title>
<path fill="none" stroke="midnightblue" d="M767.01,-171.57C806.15,-163.32 865.66,-150.38 925.85,-135.42"/>
<polygon fill="midnightblue" stroke="midnightblue" points="926.44,-138.63 935.29,-132.8 924.74,-131.84 926.44,-138.63"/>
</g>
<!-- Node17 -->
<g id="node17" class="node">
<title>Node17</title>
<g id="a_node17"><a xlink:title=" ">
<polygon fill="none" stroke="#bfbfbf" points="1005.12,-114.5 1005.12,-134.5 1058.62,-134.5 1058.62,-114.5 1005.12,-114.5"/>
<text text-anchor="middle" x="1031.88" y="-121" font-family="Helvetica,sans-Serif" font-size="10.00">iostream</text>
</a>
</g>
</g>
<!-- Node1&#45;&gt;Node17 -->
<g id="edge21" class="edge">
<title>Node1&#45;&gt;Node17</title>
<path fill="none" stroke="midnightblue" d="M776.76,-173.28C829.72,-165.7 913.7,-152.71 994.8,-135.3"/>
<polygon fill="midnightblue" stroke="midnightblue" points="995.16,-138.58 1004.19,-133.04 993.67,-131.74 995.16,-138.58"/>
</g>
<!-- Node18 -->
<g id="node18" class="node">
<title>Node18</title>
<g id="a_node18"><a xlink:href="resource_8h.html" target="_top" xlink:title=" ">
<polygon fill="none" stroke="black" points="1077,-114.5 1077,-134.5 1138.75,-134.5 1138.75,-114.5 1077,-114.5"/>
<text text-anchor="middle" x="1107.88" y="-121" font-family="Helvetica,sans-Serif" font-size="10.00">resource.h</text>
</a>
</g>
</g>
<!-- Node1&#45;&gt;Node18 -->
<g id="edge22" class="edge">
<title>Node1&#45;&gt;Node18</title>
<path fill="none" stroke="midnightblue" d="M776.59,-175.21C842.2,-168.26 957.87,-154.78 1066.84,-135.01"/>
<polygon fill="midnightblue" stroke="midnightblue" points="1067.16,-138.33 1076.37,-133.08 1065.9,-131.45 1067.16,-138.33"/>
</g>
<!-- Node3 -->
<g id="node3" class="node">
<title>Node3</title>
<g id="a_node3"><a xlink:title=" ">
<polygon fill="none" stroke="#bfbfbf" points="0,-57.5 0,-77.5 67.75,-77.5 67.75,-57.5 0,-57.5"/>
<text text-anchor="middle" x="33.88" y="-64" font-family="Helvetica,sans-Serif" font-size="10.00">Winsock2.h</text>
</a>
</g>
</g>
<!-- Node2&#45;&gt;Node3 -->
<g id="edge2" class="edge">
<title>Node2&#45;&gt;Node3</title>
<path fill="none" stroke="midnightblue" d="M170.32,-114.54C143.21,-105.39 100.91,-91.12 70.59,-80.89"/>
<polygon fill="midnightblue" stroke="midnightblue" points="72.01,-77.34 61.42,-77.46 69.77,-83.97 72.01,-77.34"/>
</g>
<!-- Node4 -->
<g id="node4" class="node">
<title>Node4</title>
<g id="a_node4"><a xlink:title=" ">
<polygon fill="none" stroke="#bfbfbf" points="86.25,-57.5 86.25,-77.5 137.5,-77.5 137.5,-57.5 86.25,-57.5"/>
<text text-anchor="middle" x="111.88" y="-64" font-family="Helvetica,sans-Serif" font-size="10.00">afxwin.h</text>
</a>
</g>
</g>
<!-- Node2&#45;&gt;Node4 -->
<g id="edge3" class="edge">
<title>Node2&#45;&gt;Node4</title>
<path fill="none" stroke="midnightblue" d="M183.22,-114.66C170.16,-106.21 150.22,-93.31 134.74,-83.3"/>
<polygon fill="midnightblue" stroke="midnightblue" points="137.08,-79.99 126.78,-77.5 133.27,-85.87 137.08,-79.99"/>
</g>
<!-- Node5 -->
<g id="node5" class="node">
<title>Node5</title>
<g id="a_node5"><a xlink:title=" ">
<polygon fill="none" stroke="#bfbfbf" points="283.88,-0.5 283.88,-20.5 323.88,-20.5 323.88,-0.5 283.88,-0.5"/>
<text text-anchor="middle" x="303.88" y="-7" font-family="Helvetica,sans-Serif" font-size="10.00">string</text>
</a>
</g>
</g>
<!-- Node2&#45;&gt;Node5 -->
<g id="edge4" class="edge">
<title>Node2&#45;&gt;Node5</title>
<path fill="none" stroke="midnightblue" d="M207.18,-114.79C217.53,-105.88 233.79,-91.47 246.88,-78 262.36,-62.04 278.76,-42.61 289.97,-28.89"/>
<polygon fill="midnightblue" stroke="midnightblue" points="293.26,-31.39 296.83,-21.41 287.82,-26.98 293.26,-31.39"/>
</g>
<!-- Node6 -->
<g id="node6" class="node">
<title>Node6</title>
<g id="a_node6"><a xlink:title=" ">
<polygon fill="none" stroke="#bfbfbf" points="155.5,-57.5 155.5,-77.5 238.25,-77.5 238.25,-57.5 155.5,-57.5"/>
<text text-anchor="middle" x="196.88" y="-64" font-family="Helvetica,sans-Serif" font-size="10.00">unordered_map</text>
</a>
</g>
</g>
<!-- Node2&#45;&gt;Node6 -->
<g id="edge5" class="edge">
<title>Node2&#45;&gt;Node6</title>
<path fill="none" stroke="midnightblue" d="M196.88,-114.91C196.88,-107.76 196.88,-97.32 196.88,-88.15"/>
<polygon fill="midnightblue" stroke="midnightblue" points="200.38,-88.21 196.88,-78.21 193.38,-88.21 200.38,-88.21"/>
</g>
<!-- Node7&#45;&gt;Node5 -->
<g id="edge11" class="edge">
<title>Node7&#45;&gt;Node5</title>
<path fill="none" stroke="midnightblue" d="M383.38,-114.86C363.16,-108.02 338.39,-96.46 322.88,-78 311.77,-64.79 307.14,-45.45 305.22,-31.02"/>
<polygon fill="midnightblue" stroke="midnightblue" points="308.63,-30.92 304.16,-21.31 301.67,-31.6 308.63,-30.92"/>
</g>
<!-- Node7&#45;&gt;Node8 -->
<g id="edge7" class="edge">
<title>Node7&#45;&gt;Node8</title>
<path fill="none" stroke="midnightblue" d="M429.73,-114.66C441.9,-106.29 460.43,-93.56 474.94,-83.58"/>
<polygon fill="midnightblue" stroke="midnightblue" points="476.53,-86.05 482.79,-77.5 472.56,-80.28 476.53,-86.05"/>
</g>
<!-- Node11 -->
<g id="node11" class="node">
<title>Node11</title>
<g id="a_node11"><a xlink:title=" ">
<polygon fill="none" stroke="#bfbfbf" points="331.75,-57.5 331.75,-77.5 416,-77.5 416,-57.5 331.75,-57.5"/>
<text text-anchor="middle" x="373.88" y="-64" font-family="Helvetica,sans-Serif" font-size="10.00">source_location</text>
</a>
</g>
</g>
<!-- Node7&#45;&gt;Node11 -->
<g id="edge12" class="edge">
<title>Node7&#45;&gt;Node11</title>
<path fill="none" stroke="midnightblue" d="M410.16,-114.91C404.07,-107.12 394.92,-95.42 387.33,-85.71"/>
<polygon fill="midnightblue" stroke="midnightblue" points="389.61,-83.94 380.69,-78.21 384.09,-88.25 389.61,-83.94"/>
</g>
<!-- Node8&#45;&gt;Node5 -->
<g id="edge10" class="edge">
<title>Node8&#45;&gt;Node5</title>
<path fill="none" stroke="midnightblue" d="M465.44,-57.54C429.14,-47.2 369.85,-30.3 334.08,-20.11"/>
<polygon fill="midnightblue" stroke="midnightblue" points="335.36,-16.55 324.78,-17.17 333.44,-23.28 335.36,-16.55"/>
</g>
<!-- Node8&#45;&gt;Node9 -->
<g id="edge8" class="edge">
<title>Node8&#45;&gt;Node9</title>
<path fill="none" stroke="midnightblue" d="M499.38,-57.91C501.5,-50.6 504.63,-39.85 507.34,-30.54"/>
<polygon fill="midnightblue" stroke="midnightblue" points="510.91,-31.79 510.34,-21.21 504.19,-29.84 510.91,-31.79"/>
</g>
<!-- Node8&#45;&gt;Node10 -->
<g id="edge9" class="edge">
<title>Node8&#45;&gt;Node10</title>
<path fill="none" stroke="midnightblue" d="M514.71,-57.66C532.32,-48.94 559.52,-35.46 580,-25.31"/>
<polygon fill="midnightblue" stroke="midnightblue" points="581.31,-28.07 588.72,-20.5 578.2,-21.8 581.31,-28.07"/>
</g>
</g>
</svg>
