<?xml version="1.0" encoding="UTF-8" standalone="no"?>
<!DOCTYPE svg PUBLIC "-//W3C//DTD SVG 1.1//EN"
 "http://www.w3.org/Graphics/SVG/1.1/DTD/svg11.dtd">
<!-- Generated by graphviz version 8.1.0 (20230707.0739)
 -->
<!-- Title: src/CMyWindow.cpp Pages: 1 -->
<svg width="972pt" height="143pt"
 viewBox="0.00 0.00 972.25 143.00" xmlns="http://www.w3.org/2000/svg" xmlns:xlink="http://www.w3.org/1999/xlink">
<g id="graph0" class="graph" transform="scale(1 1) rotate(0) translate(4 139)">
<title>src/CMyWindow.cpp</title>
<!-- Node1 -->
<g id="node1" class="node">
<title>Node1</title>
<g id="a_node1"><a xlink:title=" ">
<polygon fill="#bfbfbf" stroke="black" points="510.38,-114.5 510.38,-134.5 616.38,-134.5 616.38,-114.5 510.38,-114.5"/>
<text text-anchor="middle" x="563.38" y="-121" font-family="Helvetica,sans-Serif" font-size="10.00">src/CMyWindow.cpp</text>
</a>
</g>
</g>
<!-- Node2 -->
<g id="node2" class="node">
<title>Node2</title>
<g id="a_node2"><a xlink:href="_c_my_window_8h.html" target="_top" xlink:title=" ">
<polygon fill="none" stroke="black" points="116.88,-57.5 116.88,-77.5 195.88,-77.5 195.88,-57.5 116.88,-57.5"/>
<text text-anchor="middle" x="156.38" y="-64" font-family="Helvetica,sans-Serif" font-size="10.00">CMyWindow.h</text>
</a>
</g>
</g>
<!-- Node1&#45;&gt;Node2 -->
<g id="edge1" class="edge">
<title>Node1&#45;&gt;Node2</title>
<path fill="none" stroke="midnightblue" d="M510.58,-116.37C431.66,-105.7 283.92,-85.74 206.55,-75.28"/>
<polygon fill="midnightblue" stroke="midnightblue" points="207.04,-71.68 196.66,-73.81 206.1,-78.62 207.04,-71.68"/>
</g>
<!-- Node6 -->
<g id="node6" class="node">
<title>Node6</title>
<g id="a_node6"><a xlink:href="_exception_8h.html" target="_top" xlink:title=" ">
<polygon fill="none" stroke="black" points="269.5,-57.5 269.5,-77.5 337.25,-77.5 337.25,-57.5 269.5,-57.5"/>
<text text-anchor="middle" x="303.38" y="-64" font-family="Helvetica,sans-Serif" font-size="10.00">Exception.h</text>
</a>
</g>
</g>
<!-- Node1&#45;&gt;Node6 -->
<g id="edge5" class="edge">
<title>Node1&#45;&gt;Node6</title>
<path fill="none" stroke="midnightblue" d="M520.12,-114.57C478.52,-105.96 413.6,-92.42 347.74,-78.28"/>
<polygon fill="midnightblue" stroke="midnightblue" points="348.68,-74.68 338.17,-76 347.21,-81.53 348.68,-74.68"/>
</g>
<!-- Node7 -->
<g id="node7" class="node">
<title>Node7</title>
<g id="a_node7"><a xlink:title=" ">
<polygon fill="none" stroke="#bfbfbf" points="252.38,-0.5 252.38,-20.5 292.38,-20.5 292.38,-0.5 252.38,-0.5"/>
<text text-anchor="middle" x="272.38" y="-7" font-family="Helvetica,sans-Serif" font-size="10.00">string</text>
</a>
</g>
</g>
<!-- Node1&#45;&gt;Node7 -->
<g id="edge15" class="edge">
<title>Node1&#45;&gt;Node7</title>
<path fill="none" stroke="midnightblue" d="M510.62,-123.5C432.55,-122.25 292.05,-114.78 260.38,-78 249.04,-64.84 254.83,-44.66 261.73,-29.98"/>
<polygon fill="midnightblue" stroke="midnightblue" points="265.18,-31.92 266.72,-21.44 258.98,-28.68 265.18,-31.92"/>
</g>
<!-- Node9 -->
<g id="node9" class="node">
<title>Node9</title>
<g id="a_node9"><a xlink:title=" ">
<polygon fill="none" stroke="#bfbfbf" points="355.12,-57.5 355.12,-77.5 417.62,-77.5 417.62,-57.5 355.12,-57.5"/>
<text text-anchor="middle" x="386.38" y="-64" font-family="Helvetica,sans-Serif" font-size="10.00">simpleini.h</text>
</a>
</g>
</g>
<!-- Node1&#45;&gt;Node9 -->
<g id="edge8" class="edge">
<title>Node1&#45;&gt;Node9</title>
<path fill="none" stroke="midnightblue" d="M534.54,-114.54C504.84,-105.31 458.36,-90.87 425.39,-80.62"/>
<polygon fill="midnightblue" stroke="midnightblue" points="426.78,-77.08 416.19,-77.46 424.71,-83.77 426.78,-77.08"/>
</g>
<!-- Node10 -->
<g id="node10" class="node">
<title>Node10</title>
<g id="a_node10"><a xlink:title=" ">
<polygon fill="none" stroke="#bfbfbf" points="435.88,-57.5 435.88,-77.5 496.88,-77.5 496.88,-57.5 435.88,-57.5"/>
<text text-anchor="middle" x="466.38" y="-64" font-family="Helvetica,sans-Serif" font-size="10.00">windows.h</text>
</a>
</g>
</g>
<!-- Node1&#45;&gt;Node10 -->
<g id="edge9" class="edge">
<title>Node1&#45;&gt;Node10</title>
<path fill="none" stroke="midnightblue" d="M547.79,-114.66C532.61,-106.05 509.28,-92.83 491.48,-82.73"/>
<polygon fill="midnightblue" stroke="midnightblue" points="493.67,-79.39 483.24,-77.5 490.22,-85.47 493.67,-79.39"/>
</g>
<!-- Node11 -->
<g id="node11" class="node">
<title>Node11</title>
<g id="a_node11"><a xlink:title=" ">
<polygon fill="none" stroke="#bfbfbf" points="514.5,-57.5 514.5,-77.5 552.25,-77.5 552.25,-57.5 514.5,-57.5"/>
<text text-anchor="middle" x="533.38" y="-64" font-family="Helvetica,sans-Serif" font-size="10.00">array</text>
</a>
</g>
</g>
<!-- Node1&#45;&gt;Node11 -->
<g id="edge10" class="edge">
<title>Node1&#45;&gt;Node11</title>
<path fill="none" stroke="midnightblue" d="M558.69,-114.91C554.57,-107.36 548.45,-96.14 543.26,-86.62"/>
<polygon fill="midnightblue" stroke="midnightblue" points="545.99,-85.32 538.13,-78.21 539.84,-88.67 545.99,-85.32"/>
</g>
<!-- Node12 -->
<g id="node12" class="node">
<title>Node12</title>
<g id="a_node12"><a xlink:title=" ">
<polygon fill="none" stroke="#bfbfbf" points="569.88,-57.5 569.88,-77.5 618.88,-77.5 618.88,-57.5 569.88,-57.5"/>
<text text-anchor="middle" x="594.38" y="-64" font-family="Helvetica,sans-Serif" font-size="10.00">codecvt</text>
</a>
</g>
</g>
<!-- Node1&#45;&gt;Node12 -->
<g id="edge11" class="edge">
<title>Node1&#45;&gt;Node12</title>
<path fill="none" stroke="midnightblue" d="M568.22,-114.91C572.47,-107.36 578.8,-96.14 584.16,-86.62"/>
<polygon fill="midnightblue" stroke="midnightblue" points="587.6,-88.65 589.46,-78.21 581.5,-85.21 587.6,-88.65"/>
</g>
<!-- Node13 -->
<g id="node13" class="node">
<title>Node13</title>
<g id="a_node13"><a xlink:title=" ">
<polygon fill="none" stroke="#bfbfbf" points="636.62,-57.5 636.62,-77.5 678.12,-77.5 678.12,-57.5 636.62,-57.5"/>
<text text-anchor="middle" x="657.38" y="-64" font-family="Helvetica,sans-Serif" font-size="10.00">locale</text>
</a>
</g>
</g>
<!-- Node1&#45;&gt;Node13 -->
<g id="edge12" class="edge">
<title>Node1&#45;&gt;Node13</title>
<path fill="none" stroke="midnightblue" d="M578.48,-114.66C593.05,-106.13 615.38,-93.07 632.57,-83.01"/>
<polygon fill="midnightblue" stroke="midnightblue" points="634.13,-85.57 641,-77.5 630.6,-79.53 634.13,-85.57"/>
</g>
<!-- Node14 -->
<g id="node14" class="node">
<title>Node14</title>
<g id="a_node14"><a xlink:title=" ">
<polygon fill="none" stroke="#bfbfbf" points="696.62,-57.5 696.62,-77.5 744.12,-77.5 744.12,-57.5 696.62,-57.5"/>
<text text-anchor="middle" x="720.38" y="-64" font-family="Helvetica,sans-Serif" font-size="10.00">psapi.h</text>
</a>
</g>
</g>
<!-- Node1&#45;&gt;Node14 -->
<g id="edge13" class="edge">
<title>Node1&#45;&gt;Node14</title>
<path fill="none" stroke="midnightblue" d="M588.95,-114.54C615.57,-105.22 657.39,-90.56 686.69,-80.3"/>
<polygon fill="midnightblue" stroke="midnightblue" points="687.58,-83.35 695.87,-76.74 685.27,-76.74 687.58,-83.35"/>
</g>
<!-- Node15 -->
<g id="node15" class="node">
<title>Node15</title>
<g id="a_node15"><a xlink:title=" ">
<polygon fill="none" stroke="#bfbfbf" points="761.75,-57.5 761.75,-77.5 813,-77.5 813,-57.5 761.75,-57.5"/>
<text text-anchor="middle" x="787.38" y="-64" font-family="Helvetica,sans-Serif" font-size="10.00">sstream</text>
</a>
</g>
</g>
<!-- Node1&#45;&gt;Node15 -->
<g id="edge14" class="edge">
<title>Node1&#45;&gt;Node15</title>
<path fill="none" stroke="midnightblue" d="M602.78,-114.52C639.03,-106.15 694.52,-93.1 751.19,-78.5"/>
<polygon fill="midnightblue" stroke="midnightblue" points="751.98,-81.66 760.78,-75.76 750.22,-74.88 751.98,-81.66"/>
</g>
<!-- Node16 -->
<g id="node16" class="node">
<title>Node16</title>
<g id="a_node16"><a xlink:title=" ">
<polygon fill="none" stroke="#bfbfbf" points="830.62,-57.5 830.62,-77.5 884.12,-77.5 884.12,-57.5 830.62,-57.5"/>
<text text-anchor="middle" x="857.38" y="-64" font-family="Helvetica,sans-Serif" font-size="10.00">iostream</text>
</a>
</g>
</g>
<!-- Node1&#45;&gt;Node16 -->
<g id="edge16" class="edge">
<title>Node1&#45;&gt;Node16</title>
<path fill="none" stroke="midnightblue" d="M616.23,-115.66C666.41,-107.89 744.15,-95.03 820,-78.39"/>
<polygon fill="midnightblue" stroke="midnightblue" points="820.68,-81.6 829.68,-76.01 819.16,-74.76 820.68,-81.6"/>
</g>
<!-- Node17 -->
<g id="node17" class="node">
<title>Node17</title>
<g id="a_node17"><a xlink:href="resource_8h.html" target="_top" xlink:title=" ">
<polygon fill="none" stroke="black" points="902.5,-57.5 902.5,-77.5 964.25,-77.5 964.25,-57.5 902.5,-57.5"/>
<text text-anchor="middle" x="933.38" y="-64" font-family="Helvetica,sans-Serif" font-size="10.00">resource.h</text>
</a>
</g>
</g>
<!-- Node1&#45;&gt;Node17 -->
<g id="edge17" class="edge">
<title>Node1&#45;&gt;Node17</title>
<path fill="none" stroke="midnightblue" d="M616.21,-117.8C679.41,-110.63 788.61,-97.14 892.21,-78.05"/>
<polygon fill="midnightblue" stroke="midnightblue" points="892.68,-81.34 901.86,-76.07 891.39,-74.46 892.68,-81.34"/>
</g>
<!-- Node3 -->
<g id="node3" class="node">
<title>Node3</title>
<g id="a_node3"><a xlink:title=" ">
<polygon fill="none" stroke="#bfbfbf" points="0,-0.5 0,-20.5 64.75,-20.5 64.75,-0.5 0,-0.5"/>
<text text-anchor="middle" x="32.38" y="-7" font-family="Helvetica,sans-Serif" font-size="10.00">winsock2.h</text>
</a>
</g>
</g>
<!-- Node2&#45;&gt;Node3 -->
<g id="edge2" class="edge">
<title>Node2&#45;&gt;Node3</title>
<path fill="none" stroke="midnightblue" d="M136.18,-57.54C116.18,-48.67 85.33,-34.99 62.45,-24.84"/>
<polygon fill="midnightblue" stroke="midnightblue" points="64.13,-21.31 53.57,-20.46 61.29,-27.71 64.13,-21.31"/>
</g>
<!-- Node4 -->
<g id="node4" class="node">
<title>Node4</title>
<g id="a_node4"><a xlink:title=" ">
<polygon fill="none" stroke="#bfbfbf" points="82.75,-0.5 82.75,-20.5 134,-20.5 134,-0.5 82.75,-0.5"/>
<text text-anchor="middle" x="108.38" y="-7" font-family="Helvetica,sans-Serif" font-size="10.00">afxwin.h</text>
</a>
</g>
</g>
<!-- Node2&#45;&gt;Node4 -->
<g id="edge3" class="edge">
<title>Node2&#45;&gt;Node4</title>
<path fill="none" stroke="midnightblue" d="M148.88,-57.91C142.01,-50.04 131.66,-38.18 123.14,-28.42"/>
<polygon fill="midnightblue" stroke="midnightblue" points="125.19,-26.45 115.98,-21.21 119.92,-31.05 125.19,-26.45"/>
</g>
<!-- Node5 -->
<g id="node5" class="node">
<title>Node5</title>
<g id="a_node5"><a xlink:title=" ">
<polygon fill="none" stroke="#bfbfbf" points="152,-0.5 152,-20.5 234.75,-20.5 234.75,-0.5 152,-0.5"/>
<text text-anchor="middle" x="193.38" y="-7" font-family="Helvetica,sans-Serif" font-size="10.00">unordered_map</text>
</a>
</g>
</g>
<!-- Node2&#45;&gt;Node5 -->
<g id="edge4" class="edge">
<title>Node2&#45;&gt;Node5</title>
<path fill="none" stroke="midnightblue" d="M162.16,-57.91C167.29,-50.28 174.94,-38.9 181.39,-29.32"/>
<polygon fill="midnightblue" stroke="midnightblue" points="184.83,-31.47 187.51,-21.21 179.03,-27.56 184.83,-31.47"/>
</g>
<!-- Node6&#45;&gt;Node7 -->
<g id="edge6" class="edge">
<title>Node6&#45;&gt;Node7</title>
<path fill="none" stroke="midnightblue" d="M298.53,-57.91C294.28,-50.36 287.95,-39.14 282.59,-29.62"/>
<polygon fill="midnightblue" stroke="midnightblue" points="285.25,-28.21 277.29,-21.21 279.15,-31.65 285.25,-28.21"/>
</g>
<!-- Node8 -->
<g id="node8" class="node">
<title>Node8</title>
<g id="a_node8"><a xlink:title=" ">
<polygon fill="none" stroke="#bfbfbf" points="310.25,-0.5 310.25,-20.5 394.5,-20.5 394.5,-0.5 310.25,-0.5"/>
<text text-anchor="middle" x="352.38" y="-7" font-family="Helvetica,sans-Serif" font-size="10.00">source_location</text>
</a>
</g>
</g>
<!-- Node6&#45;&gt;Node8 -->
<g id="edge7" class="edge">
<title>Node6&#45;&gt;Node8</title>
<path fill="none" stroke="midnightblue" d="M311.03,-57.91C318.04,-50.04 328.61,-38.18 337.3,-28.42"/>
<polygon fill="midnightblue" stroke="midnightblue" points="339.57,-31.01 343.61,-21.21 334.35,-26.35 339.57,-31.01"/>
</g>
</g>
</svg>
