<?xml version="1.0" encoding="UTF-8" standalone="no"?>
<!DOCTYPE svg PUBLIC "-//W3C//DTD SVG 1.1//EN"
 "http://www.w3.org/Graphics/SVG/1.1/DTD/svg11.dtd">
<!-- Generated by graphviz version 8.1.0 (20230707.0739)
 -->
<!-- Title: src/CMyWindow.cpp Pages: 1 -->
<svg width="1045pt" height="200pt"
 viewBox="0.00 0.00 1044.50 200.00" xmlns="http://www.w3.org/2000/svg" xmlns:xlink="http://www.w3.org/1999/xlink">
<g id="graph0" class="graph" transform="scale(1 1) rotate(0) translate(4 196)">
<title>src/CMyWindow.cpp</title>
<!-- Node1 -->
<g id="node1" class="node">
<title>Node1</title>
<g id="a_node1"><a xlink:title=" ">
<polygon fill="#bfbfbf" stroke="black" points="569.62,-171.5 569.62,-191.5 675.62,-191.5 675.62,-171.5 569.62,-171.5"/>
<text text-anchor="middle" x="622.62" y="-178" font-family="Helvetica,sans-Serif" font-size="10.00">src/CMyWindow.cpp</text>
</a>
</g>
</g>
<!-- Node2 -->
<g id="node2" class="node">
<title>Node2</title>
<g id="a_node2"><a xlink:href="_c_my_window_8h.html" target="_top" xlink:title=" ">
<polygon fill="none" stroke="black" points="140.12,-114.5 140.12,-134.5 219.12,-134.5 219.12,-114.5 140.12,-114.5"/>
<text text-anchor="middle" x="179.62" y="-121" font-family="Helvetica,sans-Serif" font-size="10.00">CMyWindow.h</text>
</a>
</g>
</g>
<!-- Node1&#45;&gt;Node2 -->
<g id="edge1" class="edge">
<title>Node1&#45;&gt;Node2</title>
<path fill="none" stroke="midnightblue" d="M569.63,-173.92C483.47,-163.22 314.18,-142.21 229.85,-131.74"/>
<polygon fill="midnightblue" stroke="midnightblue" points="230.37,-128.15 220.02,-130.39 229.51,-135.1 230.37,-128.15"/>
</g>
<!-- Node7 -->
<g id="node7" class="node">
<title>Node7</title>
<g id="a_node7"><a xlink:href="_exception_8h.html" target="_top" xlink:title=" ">
<polygon fill="none" stroke="black" points="385.75,-114.5 385.75,-134.5 453.5,-134.5 453.5,-114.5 385.75,-114.5"/>
<text text-anchor="middle" x="419.62" y="-121" font-family="Helvetica,sans-Serif" font-size="10.00">Exception.h</text>
</a>
</g>
</g>
<!-- Node1&#45;&gt;Node7 -->
<g id="edge6" class="edge">
<title>Node1&#45;&gt;Node7</title>
<path fill="none" stroke="midnightblue" d="M589.56,-171.54C555.05,-162.19 500.8,-147.49 462.9,-137.23"/>
<polygon fill="midnightblue" stroke="midnightblue" points="464.25,-133.69 453.68,-134.46 462.41,-140.45 464.25,-133.69"/>
</g>
<!-- Node8 -->
<g id="node8" class="node">
<title>Node8</title>
<g id="a_node8"><a xlink:href="_string_conversion_8h.html" target="_top" xlink:title=" ">
<polygon fill="none" stroke="black" points="403.25,-57.5 403.25,-77.5 528,-77.5 528,-57.5 403.25,-57.5"/>
<text text-anchor="middle" x="465.62" y="-64" font-family="Helvetica,sans-Serif" font-size="10.00">Utility/StringConversion.h</text>
</a>
</g>
</g>
<!-- Node1&#45;&gt;Node8 -->
<g id="edge13" class="edge">
<title>Node1&#45;&gt;Node8</title>
<path fill="none" stroke="midnightblue" d="M604.28,-171.58C587.43,-163.07 562.04,-149.43 541.62,-135 519.84,-119.6 497.11,-99.02 482.25,-84.85"/>
<polygon fill="midnightblue" stroke="midnightblue" points="485.1,-82.77 475.47,-78.34 480.23,-87.81 485.1,-82.77"/>
</g>
<!-- Node9 -->
<g id="node9" class="node">
<title>Node9</title>
<g id="a_node9"><a xlink:title=" ">
<polygon fill="none" stroke="#bfbfbf" points="457.12,-0.5 457.12,-20.5 506.12,-20.5 506.12,-0.5 457.12,-0.5"/>
<text text-anchor="middle" x="481.62" y="-7" font-family="Helvetica,sans-Serif" font-size="10.00">codecvt</text>
</a>
</g>
</g>
<!-- Node1&#45;&gt;Node9 -->
<g id="edge17" class="edge">
<title>Node1&#45;&gt;Node9</title>
<path fill="none" stroke="midnightblue" d="M617.53,-171.52C605.25,-150.28 572.37,-95.83 536.62,-57 526.5,-46 513.7,-35.26 503,-26.98"/>
<polygon fill="midnightblue" stroke="midnightblue" points="505.35,-23.61 495.25,-20.39 501.13,-29.2 505.35,-23.61"/>
</g>
<!-- Node10 -->
<g id="node10" class="node">
<title>Node10</title>
<g id="a_node10"><a xlink:title=" ">
<polygon fill="none" stroke="#bfbfbf" points="555.88,-0.5 555.88,-20.5 597.38,-20.5 597.38,-0.5 555.88,-0.5"/>
<text text-anchor="middle" x="576.62" y="-7" font-family="Helvetica,sans-Serif" font-size="10.00">locale</text>
</a>
</g>
</g>
<!-- Node1&#45;&gt;Node10 -->
<g id="edge18" class="edge">
<title>Node1&#45;&gt;Node10</title>
<path fill="none" stroke="midnightblue" d="M620.28,-171.89C613.18,-145.79 591.77,-67.14 581.82,-30.57"/>
<polygon fill="midnightblue" stroke="midnightblue" points="585.02,-30.03 579.02,-21.3 578.27,-31.87 585.02,-30.03"/>
</g>
<!-- Node11 -->
<g id="node11" class="node">
<title>Node11</title>
<g id="a_node11"><a xlink:title=" ">
<polygon fill="none" stroke="#bfbfbf" points="293.88,-57.5 293.88,-77.5 347.38,-77.5 347.38,-57.5 293.88,-57.5"/>
<text text-anchor="middle" x="320.62" y="-64" font-family="Helvetica,sans-Serif" font-size="10.00">iostream</text>
</a>
</g>
</g>
<!-- Node1&#45;&gt;Node11 -->
<g id="edge21" class="edge">
<title>Node1&#45;&gt;Node11</title>
<path fill="none" stroke="midnightblue" d="M569.64,-180.83C517.26,-178.93 436.5,-169.84 376.62,-135 356.51,-123.3 340.3,-101.56 330.6,-86.13"/>
<polygon fill="midnightblue" stroke="midnightblue" points="333.32,-84.85 325.19,-78.06 327.31,-88.44 333.32,-84.85"/>
</g>
<!-- Node12 -->
<g id="node12" class="node">
<title>Node12</title>
<g id="a_node12"><a xlink:title=" ">
<polygon fill="none" stroke="#bfbfbf" points="621.38,-114.5 621.38,-134.5 683.88,-134.5 683.88,-114.5 621.38,-114.5"/>
<text text-anchor="middle" x="652.62" y="-121" font-family="Helvetica,sans-Serif" font-size="10.00">simpleini.h</text>
</a>
</g>
</g>
<!-- Node1&#45;&gt;Node12 -->
<g id="edge14" class="edge">
<title>Node1&#45;&gt;Node12</title>
<path fill="none" stroke="midnightblue" d="M627.31,-171.91C631.43,-164.36 637.55,-153.14 642.74,-143.62"/>
<polygon fill="midnightblue" stroke="midnightblue" points="646.16,-145.67 647.87,-135.21 640.01,-142.32 646.16,-145.67"/>
</g>
<!-- Node13 -->
<g id="node13" class="node">
<title>Node13</title>
<g id="a_node13"><a xlink:title=" ">
<polygon fill="none" stroke="#bfbfbf" points="701.62,-114.5 701.62,-134.5 765.62,-134.5 765.62,-114.5 701.62,-114.5"/>
<text text-anchor="middle" x="733.62" y="-121" font-family="Helvetica,sans-Serif" font-size="10.00">Windows.h</text>
</a>
</g>
</g>
<!-- Node1&#45;&gt;Node13 -->
<g id="edge15" class="edge">
<title>Node1&#45;&gt;Node13</title>
<path fill="none" stroke="midnightblue" d="M640.46,-171.66C658.07,-162.94 685.27,-149.46 705.75,-139.31"/>
<polygon fill="midnightblue" stroke="midnightblue" points="707.06,-142.07 714.47,-134.5 703.95,-135.8 707.06,-142.07"/>
</g>
<!-- Node14 -->
<g id="node14" class="node">
<title>Node14</title>
<g id="a_node14"><a xlink:title=" ">
<polygon fill="none" stroke="#bfbfbf" points="783.75,-114.5 783.75,-134.5 821.5,-134.5 821.5,-114.5 783.75,-114.5"/>
<text text-anchor="middle" x="802.62" y="-121" font-family="Helvetica,sans-Serif" font-size="10.00">array</text>
</a>
</g>
</g>
<!-- Node1&#45;&gt;Node14 -->
<g id="edge16" class="edge">
<title>Node1&#45;&gt;Node14</title>
<path fill="none" stroke="midnightblue" d="M653.88,-171.5C682.57,-163.17 726.5,-150.2 773.57,-135.25"/>
<polygon fill="midnightblue" stroke="midnightblue" points="774.52,-138.31 782.98,-131.93 772.39,-131.64 774.52,-138.31"/>
</g>
<!-- Node15 -->
<g id="node15" class="node">
<title>Node15</title>
<g id="a_node15"><a xlink:title=" ">
<polygon fill="none" stroke="#bfbfbf" points="839.88,-114.5 839.88,-134.5 887.38,-134.5 887.38,-114.5 839.88,-114.5"/>
<text text-anchor="middle" x="863.62" y="-121" font-family="Helvetica,sans-Serif" font-size="10.00">psapi.h</text>
</a>
</g>
</g>
<!-- Node1&#45;&gt;Node15 -->
<g id="edge19" class="edge">
<title>Node1&#45;&gt;Node15</title>
<path fill="none" stroke="midnightblue" d="M667.45,-171.57C707.48,-163.4 767.93,-150.59 829.58,-135.14"/>
<polygon fill="midnightblue" stroke="midnightblue" points="830.04,-138.38 838.88,-132.53 828.33,-131.59 830.04,-138.38"/>
</g>
<!-- Node16 -->
<g id="node16" class="node">
<title>Node16</title>
<g id="a_node16"><a xlink:title=" ">
<polygon fill="none" stroke="#bfbfbf" points="905,-114.5 905,-134.5 956.25,-134.5 956.25,-114.5 905,-114.5"/>
<text text-anchor="middle" x="930.62" y="-121" font-family="Helvetica,sans-Serif" font-size="10.00">sstream</text>
</a>
</g>
</g>
<!-- Node1&#45;&gt;Node16 -->
<g id="edge20" class="edge">
<title>Node1&#45;&gt;Node16</title>
<path fill="none" stroke="midnightblue" d="M675.48,-173.45C728.62,-165.98 813.08,-153.05 894.63,-135.26"/>
<polygon fill="midnightblue" stroke="midnightblue" points="895.07,-138.53 904.08,-132.96 893.56,-131.7 895.07,-138.53"/>
</g>
<!-- Node17 -->
<g id="node17" class="node">
<title>Node17</title>
<g id="a_node17"><a xlink:href="resource_8h.html" target="_top" xlink:title=" ">
<polygon fill="none" stroke="black" points="974.75,-114.5 974.75,-134.5 1036.5,-134.5 1036.5,-114.5 974.75,-114.5"/>
<text text-anchor="middle" x="1005.62" y="-121" font-family="Helvetica,sans-Serif" font-size="10.00">resource.h</text>
</a>
</g>
</g>
<!-- Node1&#45;&gt;Node17 -->
<g id="edge22" class="edge">
<title>Node1&#45;&gt;Node17</title>
<path fill="none" stroke="midnightblue" d="M675.48,-175.17C740.89,-168.2 855.87,-154.74 964.31,-135.07"/>
<polygon fill="midnightblue" stroke="midnightblue" points="964.91,-138.33 974.12,-133.08 963.65,-131.45 964.91,-138.33"/>
</g>
<!-- Node3 -->
<g id="node3" class="node">
<title>Node3</title>
<g id="a_node3"><a xlink:title=" ">
<polygon fill="none" stroke="#bfbfbf" points="207.75,-57.5 207.75,-77.5 275.5,-77.5 275.5,-57.5 207.75,-57.5"/>
<text text-anchor="middle" x="241.62" y="-64" font-family="Helvetica,sans-Serif" font-size="10.00">Winsock2.h</text>
</a>
</g>
</g>
<!-- Node2&#45;&gt;Node3 -->
<g id="edge2" class="edge">
<title>Node2&#45;&gt;Node3</title>
<path fill="none" stroke="midnightblue" d="M189.59,-114.66C198.66,-106.61 212.29,-94.52 223.33,-84.73"/>
<polygon fill="midnightblue" stroke="midnightblue" points="225.32,-87.75 230.48,-78.5 220.68,-82.52 225.32,-87.75"/>
</g>
<!-- Node4 -->
<g id="node4" class="node">
<title>Node4</title>
<g id="a_node4"><a xlink:title=" ">
<polygon fill="none" stroke="#bfbfbf" points="0,-57.5 0,-77.5 51.25,-77.5 51.25,-57.5 0,-57.5"/>
<text text-anchor="middle" x="25.62" y="-64" font-family="Helvetica,sans-Serif" font-size="10.00">afxwin.h</text>
</a>
</g>
</g>
<!-- Node2&#45;&gt;Node4 -->
<g id="edge3" class="edge">
<title>Node2&#45;&gt;Node4</title>
<path fill="none" stroke="midnightblue" d="M154.54,-114.54C129.03,-105.43 89.31,-91.24 60.69,-81.02"/>
<polygon fill="midnightblue" stroke="midnightblue" points="62.29,-77.52 51.7,-77.46 59.94,-84.11 62.29,-77.52"/>
</g>
<!-- Node5 -->
<g id="node5" class="node">
<title>Node5</title>
<g id="a_node5"><a xlink:title=" ">
<polygon fill="none" stroke="#bfbfbf" points="355.62,-0.5 355.62,-20.5 395.62,-20.5 395.62,-0.5 355.62,-0.5"/>
<text text-anchor="middle" x="375.62" y="-7" font-family="Helvetica,sans-Serif" font-size="10.00">string</text>
</a>
</g>
</g>
<!-- Node2&#45;&gt;Node5 -->
<g id="edge4" class="edge">
<title>Node2&#45;&gt;Node5</title>
<path fill="none" stroke="midnightblue" d="M179.52,-114.8C179.84,-100.63 182.62,-72.58 198.62,-57 238.16,-18.5 305.67,-11.31 344.9,-10.66"/>
<polygon fill="midnightblue" stroke="midnightblue" points="344.88,-14.16 354.87,-10.64 344.86,-7.16 344.88,-14.16"/>
</g>
<!-- Node6 -->
<g id="node6" class="node">
<title>Node6</title>
<g id="a_node6"><a xlink:title=" ">
<polygon fill="none" stroke="#bfbfbf" points="69.25,-57.5 69.25,-77.5 152,-77.5 152,-57.5 69.25,-57.5"/>
<text text-anchor="middle" x="110.62" y="-64" font-family="Helvetica,sans-Serif" font-size="10.00">unordered_map</text>
</a>
</g>
</g>
<!-- Node2&#45;&gt;Node6 -->
<g id="edge5" class="edge">
<title>Node2&#45;&gt;Node6</title>
<path fill="none" stroke="midnightblue" d="M168.54,-114.66C158.24,-106.45 142.67,-94.04 130.26,-84.15"/>
<polygon fill="midnightblue" stroke="midnightblue" points="132.91,-80.99 122.91,-77.5 128.55,-86.47 132.91,-80.99"/>
</g>
<!-- Node7&#45;&gt;Node5 -->
<g id="edge11" class="edge">
<title>Node7&#45;&gt;Node5</title>
<path fill="none" stroke="midnightblue" d="M414.03,-114.73C408.51,-105.78 400.11,-91.34 394.62,-78 388.26,-62.54 383.2,-44.23 379.91,-30.74"/>
<polygon fill="midnightblue" stroke="midnightblue" points="383.16,-30.26 377.48,-21.32 376.34,-31.85 383.16,-30.26"/>
</g>
<!-- Node7&#45;&gt;Node8 -->
<g id="edge7" class="edge">
<title>Node7&#45;&gt;Node8</title>
<path fill="none" stroke="midnightblue" d="M426.81,-114.91C433.39,-107.04 443.31,-95.18 451.48,-85.42"/>
<polygon fill="midnightblue" stroke="midnightblue" points="454.61,-88.13 458.34,-78.21 449.24,-83.64 454.61,-88.13"/>
</g>
<!-- Node7&#45;&gt;Node11 -->
<g id="edge12" class="edge">
<title>Node7&#45;&gt;Node11</title>
<path fill="none" stroke="midnightblue" d="M403.72,-114.66C388.22,-106.05 364.41,-92.83 346.24,-82.73"/>
<polygon fill="midnightblue" stroke="midnightblue" points="348.26,-79.29 337.82,-77.5 344.86,-85.41 348.26,-79.29"/>
</g>
<!-- Node8&#45;&gt;Node5 -->
<g id="edge10" class="edge">
<title>Node8&#45;&gt;Node5</title>
<path fill="none" stroke="midnightblue" d="M451.16,-57.66C437.21,-49.13 415.83,-36.07 399.38,-26.01"/>
<polygon fill="midnightblue" stroke="midnightblue" points="401.71,-22.73 391.35,-20.5 398.06,-28.7 401.71,-22.73"/>
</g>
<!-- Node8&#45;&gt;Node9 -->
<g id="edge8" class="edge">
<title>Node8&#45;&gt;Node9</title>
<path fill="none" stroke="midnightblue" d="M468.12,-57.91C470.25,-50.6 473.38,-39.85 476.09,-30.54"/>
<polygon fill="midnightblue" stroke="midnightblue" points="479.66,-31.79 479.09,-21.21 472.94,-29.84 479.66,-31.79"/>
</g>
<!-- Node8&#45;&gt;Node10 -->
<g id="edge9" class="edge">
<title>Node8&#45;&gt;Node10</title>
<path fill="none" stroke="midnightblue" d="M483.46,-57.66C501.07,-48.94 528.27,-35.46 548.75,-25.31"/>
<polygon fill="midnightblue" stroke="midnightblue" points="550.06,-28.07 557.47,-20.5 546.95,-21.8 550.06,-28.07"/>
</g>
</g>
</svg>
